%TF.GenerationSoftware,KiCad,Pcbnew,10.0.1*%
%TF.CreationDate,2026-05-12T19:54:10+07:00*%
%TF.ProjectId,Power_and_Motor,506f7765-725f-4616-9e64-5f4d6f746f72,rev?*%
%TF.SameCoordinates,Original*%
%TF.FileFunction,Soldermask,Bot*%
%TF.FilePolarity,Negative*%
%FSLAX46Y46*%
G04 Gerber Fmt 4.6, Leading zero omitted, Abs format (unit mm)*
G04 Created by KiCad (PCBNEW 10.0.1) date 2026-05-12 19:54:10*
%MOMM*%
%LPD*%
G01*
G04 APERTURE LIST*
G04 Aperture macros list*
%AMRoundRect*
0 Rectangle with rounded corners*
0 $1 Rounding radius*
0 $2 $3 $4 $5 $6 $7 $8 $9 X,Y pos of 4 corners*
0 Add a 4 corners polygon primitive as box body*
4,1,4,$2,$3,$4,$5,$6,$7,$8,$9,$2,$3,0*
0 Add four circle primitives for the rounded corners*
1,1,$1+$1,$2,$3*
1,1,$1+$1,$4,$5*
1,1,$1+$1,$6,$7*
1,1,$1+$1,$8,$9*
0 Add four rect primitives between the rounded corners*
20,1,$1+$1,$2,$3,$4,$5,0*
20,1,$1+$1,$4,$5,$6,$7,0*
20,1,$1+$1,$6,$7,$8,$9,0*
20,1,$1+$1,$8,$9,$2,$3,0*%
G04 Aperture macros list end*
%ADD10R,2.000000X1.905000*%
%ADD11O,2.000000X1.905000*%
%ADD12R,1.500000X1.500000*%
%ADD13C,1.500000*%
%ADD14C,2.000000*%
%ADD15C,2.500000*%
%ADD16C,1.600000*%
%ADD17R,1.600000X1.600000*%
%ADD18C,1.300000*%
%ADD19RoundRect,0.249999X0.850001X-0.850001X0.850001X0.850001X-0.850001X0.850001X-0.850001X-0.850001X0*%
%ADD20C,2.200000*%
%ADD21O,1.600000X1.600000*%
%ADD22O,4.000000X2.000000*%
%ADD23O,2.000000X4.000000*%
%ADD24RoundRect,0.249999X-0.850001X-0.850001X0.850001X-0.850001X0.850001X0.850001X-0.850001X0.850001X0*%
G04 APERTURE END LIST*
D10*
%TO.C,U1*%
X130050000Y-126460000D03*
D11*
X130050000Y-129000000D03*
X130050000Y-131540000D03*
%TD*%
D12*
%TO.C,Q1*%
X92920000Y-145500000D03*
D13*
X95460000Y-145500000D03*
X98000000Y-145500000D03*
%TD*%
D14*
%TO.C,M1*%
X143920000Y-95000000D03*
X149000000Y-95000000D03*
%TD*%
D15*
%TO.C,RV1*%
X190500000Y-70660000D03*
X190500000Y-65580000D03*
X190500000Y-60500000D03*
%TD*%
D16*
%TO.C,C3*%
X138000000Y-90000000D03*
X133000000Y-90000000D03*
%TD*%
D17*
%TO.C,C6*%
X154000000Y-94500000D03*
D16*
X156500000Y-94500000D03*
%TD*%
D18*
%TO.C,U6*%
X140770309Y-136654381D03*
%TD*%
D19*
%TO.C,D2*%
X117500000Y-116080000D03*
D20*
X117500000Y-105920000D03*
%TD*%
D14*
%TO.C,SW1*%
X190000000Y-88660000D03*
X190000000Y-83580000D03*
X190000000Y-78500000D03*
%TD*%
D16*
%TO.C,C5*%
X120500000Y-100000000D03*
X120500000Y-95000000D03*
%TD*%
D18*
%TO.C,U2*%
X104760309Y-147048581D03*
%TD*%
%TO.C,U7*%
X140770309Y-157986681D03*
%TD*%
%TO.C,U5*%
X136770309Y-157986681D03*
%TD*%
D16*
%TO.C,R1*%
X89500000Y-139920000D03*
D21*
X89500000Y-150080000D03*
%TD*%
D22*
%TO.C,J1*%
X93500000Y-65599999D03*
D23*
X88900000Y-62800000D03*
D22*
X93500000Y-59500000D03*
%TD*%
D24*
%TO.C,D1*%
X141500000Y-90000000D03*
D20*
X151660000Y-90000000D03*
%TD*%
D14*
%TO.C,L5*%
X93500000Y-72000000D03*
X93500000Y-79620000D03*
X93500000Y-74540000D03*
%TD*%
D15*
%TO.C,C2*%
X103499999Y-159500000D03*
X118500001Y-159500000D03*
%TD*%
D18*
%TO.C,U3*%
X107940309Y-146808581D03*
%TD*%
D16*
%TO.C,R3*%
X163840000Y-60500000D03*
D21*
X174000000Y-60500000D03*
%TD*%
D18*
%TO.C,U4*%
X136770309Y-136654381D03*
%TD*%
D16*
%TO.C,R2*%
X124500000Y-105920000D03*
D21*
X124500000Y-116080000D03*
%TD*%
D17*
%TO.C,C1*%
X107000000Y-62000000D03*
D16*
X107000000Y-59500000D03*
%TD*%
D12*
%TO.C,Q2*%
X100420000Y-153000000D03*
D13*
X102960000Y-153000000D03*
X105500000Y-153000000D03*
%TD*%
D16*
%TO.C,C4*%
X180000000Y-60500000D03*
X180000000Y-65500000D03*
%TD*%
M02*
