%TF.GenerationSoftware,KiCad,Pcbnew,10.0.1*%
%TF.CreationDate,2026-05-12T19:56:47+07:00*%
%TF.ProjectId,Royer_coil,526f7965-725f-4636-9f69-6c2e6b696361,rev?*%
%TF.SameCoordinates,Original*%
%TF.FileFunction,Legend,Top*%
%TF.FilePolarity,Positive*%
%FSLAX46Y46*%
G04 Gerber Fmt 4.6, Leading zero omitted, Abs format (unit mm)*
G04 Created by KiCad (PCBNEW 10.0.1) date 2026-05-12 19:56:47*
%MOMM*%
%LPD*%
G01*
G04 APERTURE LIST*
%ADD10C,0.150000*%
G04 APERTURE END LIST*
D10*
X114448572Y-129194700D02*
X114662858Y-129266128D01*
X114662858Y-129266128D02*
X115020000Y-129266128D01*
X115020000Y-129266128D02*
X115162858Y-129194700D01*
X115162858Y-129194700D02*
X115234286Y-129123271D01*
X115234286Y-129123271D02*
X115305715Y-128980414D01*
X115305715Y-128980414D02*
X115305715Y-128837557D01*
X115305715Y-128837557D02*
X115234286Y-128694700D01*
X115234286Y-128694700D02*
X115162858Y-128623271D01*
X115162858Y-128623271D02*
X115020000Y-128551842D01*
X115020000Y-128551842D02*
X114734286Y-128480414D01*
X114734286Y-128480414D02*
X114591429Y-128408985D01*
X114591429Y-128408985D02*
X114520000Y-128337557D01*
X114520000Y-128337557D02*
X114448572Y-128194700D01*
X114448572Y-128194700D02*
X114448572Y-128051842D01*
X114448572Y-128051842D02*
X114520000Y-127908985D01*
X114520000Y-127908985D02*
X114591429Y-127837557D01*
X114591429Y-127837557D02*
X114734286Y-127766128D01*
X114734286Y-127766128D02*
X115091429Y-127766128D01*
X115091429Y-127766128D02*
X115305715Y-127837557D01*
X115948571Y-128480414D02*
X116448571Y-128480414D01*
X116662857Y-129266128D02*
X115948571Y-129266128D01*
X115948571Y-129266128D02*
X115948571Y-127766128D01*
X115948571Y-127766128D02*
X116662857Y-127766128D01*
X117305714Y-129266128D02*
X117305714Y-127766128D01*
X118162857Y-129266128D02*
X117520000Y-128408985D01*
X118162857Y-127766128D02*
X117305714Y-128623271D01*
X119591429Y-129266128D02*
X118734286Y-129266128D01*
X119162857Y-129266128D02*
X119162857Y-127766128D01*
X119162857Y-127766128D02*
X119020000Y-127980414D01*
X119020000Y-127980414D02*
X118877143Y-128123271D01*
X118877143Y-128123271D02*
X118734286Y-128194700D01*
X180438572Y-129104700D02*
X180652858Y-129176128D01*
X180652858Y-129176128D02*
X181010000Y-129176128D01*
X181010000Y-129176128D02*
X181152858Y-129104700D01*
X181152858Y-129104700D02*
X181224286Y-129033271D01*
X181224286Y-129033271D02*
X181295715Y-128890414D01*
X181295715Y-128890414D02*
X181295715Y-128747557D01*
X181295715Y-128747557D02*
X181224286Y-128604700D01*
X181224286Y-128604700D02*
X181152858Y-128533271D01*
X181152858Y-128533271D02*
X181010000Y-128461842D01*
X181010000Y-128461842D02*
X180724286Y-128390414D01*
X180724286Y-128390414D02*
X180581429Y-128318985D01*
X180581429Y-128318985D02*
X180510000Y-128247557D01*
X180510000Y-128247557D02*
X180438572Y-128104700D01*
X180438572Y-128104700D02*
X180438572Y-127961842D01*
X180438572Y-127961842D02*
X180510000Y-127818985D01*
X180510000Y-127818985D02*
X180581429Y-127747557D01*
X180581429Y-127747557D02*
X180724286Y-127676128D01*
X180724286Y-127676128D02*
X181081429Y-127676128D01*
X181081429Y-127676128D02*
X181295715Y-127747557D01*
X181938571Y-128390414D02*
X182438571Y-128390414D01*
X182652857Y-129176128D02*
X181938571Y-129176128D01*
X181938571Y-129176128D02*
X181938571Y-127676128D01*
X181938571Y-127676128D02*
X182652857Y-127676128D01*
X183295714Y-129176128D02*
X183295714Y-127676128D01*
X184152857Y-129176128D02*
X183510000Y-128318985D01*
X184152857Y-127676128D02*
X183295714Y-128533271D01*
X184724286Y-127818985D02*
X184795714Y-127747557D01*
X184795714Y-127747557D02*
X184938572Y-127676128D01*
X184938572Y-127676128D02*
X185295714Y-127676128D01*
X185295714Y-127676128D02*
X185438572Y-127747557D01*
X185438572Y-127747557D02*
X185510000Y-127818985D01*
X185510000Y-127818985D02*
X185581429Y-127961842D01*
X185581429Y-127961842D02*
X185581429Y-128104700D01*
X185581429Y-128104700D02*
X185510000Y-128318985D01*
X185510000Y-128318985D02*
X184652857Y-129176128D01*
X184652857Y-129176128D02*
X185581429Y-129176128D01*
M02*
