%TF.GenerationSoftware,KiCad,Pcbnew,10.0.2*%
%TF.CreationDate,2026-05-18T13:32:22+07:00*%
%TF.ProjectId,Royer_coil,526f7965-725f-4636-9f69-6c2e6b696361,rev?*%
%TF.SameCoordinates,Original*%
%TF.FileFunction,Copper,L2,Bot*%
%TF.FilePolarity,Positive*%
%FSLAX46Y46*%
G04 Gerber Fmt 4.6, Leading zero omitted, Abs format (unit mm)*
G04 Created by KiCad (PCBNEW 10.0.2) date 2026-05-18 13:32:22*
%MOMM*%
%LPD*%
G01*
G04 APERTURE LIST*
%TA.AperFunction,ComponentPad*%
%ADD10C,2.000000*%
%TD*%
%TA.AperFunction,ComponentPad*%
%ADD11C,2.500000*%
%TD*%
%TA.AperFunction,ViaPad*%
%ADD12C,1.500000*%
%TD*%
%TA.AperFunction,Conductor*%
%ADD13C,1.500000*%
%TD*%
%TA.AperFunction,Conductor*%
%ADD14C,0.250000*%
%TD*%
G04 APERTURE END LIST*
D10*
%TO.P,,2,~_2*%
%TO.N,Net-(L\u002A\u002A1-Pad1)*%
X179500000Y-137500000D03*
%TD*%
D11*
%TO.P,,1*%
%TO.N,Net-(L\u002A\u002A1-Pad1)*%
X108500000Y-78000000D03*
%TD*%
D10*
%TO.P,,1,~_1*%
%TO.N,Net-(L\u002A\u002A1-Pad1)*%
X120500000Y-137500000D03*
%TD*%
D11*
%TO.P,,1*%
%TO.N,N/C*%
X191500000Y-78000000D03*
%TD*%
D12*
%TO.N,Net-(L\u002A\u002A1-Pad1)*%
X150000000Y-69800000D03*
%TD*%
%TO.N,Net-(L\u002A\u002A1-Pad1)*%
D13*
X180029131Y-94117111D02*
X180322032Y-95697462D01*
X178660919Y-89498104D02*
X179197435Y-91013178D01*
X176586980Y-115850000D02*
X175747186Y-117220418D01*
X179653923Y-92554255D02*
X180029131Y-94117111D01*
X162486815Y-72454154D02*
X163937508Y-73146100D01*
X180700000Y-100500000D02*
X180657927Y-102106714D01*
X171849797Y-121888043D02*
X170683929Y-122994411D01*
X179197435Y-109986822D02*
X178660919Y-111501896D01*
X179197435Y-91013178D02*
X179653923Y-92554255D01*
X177353900Y-114437508D02*
X176586980Y-115850000D01*
X150000000Y-69800000D02*
X151606714Y-69842073D01*
X174978441Y-118224872D02*
X174000000Y-119500000D01*
X180531822Y-103709024D02*
X180322032Y-105302538D01*
X180322032Y-105302538D02*
X180029131Y-106882889D01*
X170683929Y-122994411D02*
X169461755Y-124038246D01*
X180657927Y-102106714D02*
X180531822Y-103709024D01*
X180029131Y-106882889D02*
X179653923Y-108445745D01*
X157945745Y-70846077D02*
X159486822Y-71302565D01*
X175747186Y-83779582D02*
X176586980Y-85150000D01*
X172814546Y-79957690D02*
X173858381Y-81179864D01*
X161001896Y-71839081D02*
X162486815Y-72454154D01*
X169320136Y-76641619D02*
X170542310Y-77685454D01*
X174000000Y-119500000D02*
X172956166Y-120722174D01*
X156382889Y-70470869D02*
X157945745Y-70846077D01*
X171708178Y-78791822D02*
X172814546Y-79957690D01*
X168186626Y-126186626D02*
X168186626Y-125016686D01*
X153209024Y-69968178D02*
X154802538Y-70177968D01*
X180531822Y-97290976D02*
X180657927Y-98893286D01*
X154802538Y-70177968D02*
X156382889Y-70470869D01*
X159486822Y-71302565D02*
X161001896Y-71839081D01*
X168045007Y-75663178D02*
X169320136Y-76641619D01*
X173858381Y-81179864D02*
X174836822Y-82454993D01*
X151606714Y-69842073D02*
X153209024Y-69968178D01*
X178660919Y-111501896D02*
X178045846Y-112986815D01*
X179653923Y-108445745D02*
X179197435Y-109986822D01*
D14*
X175747186Y-117220418D02*
X175840418Y-117220418D01*
D13*
X180322032Y-95697462D02*
X180531822Y-97290976D01*
X168186626Y-126186626D02*
X179500000Y-137500000D01*
X172956166Y-120722174D02*
X171849797Y-121888043D01*
X165350000Y-73913020D02*
X166720418Y-74752814D01*
X180657927Y-98893286D02*
X180700000Y-100500000D01*
X170542310Y-77685454D02*
X171708178Y-78791822D01*
X166720418Y-74752814D02*
X168045007Y-75663178D01*
X175888805Y-116900283D02*
X174978441Y-118224872D01*
X178045846Y-112986815D02*
X177353900Y-114437508D01*
X174836822Y-82454993D02*
X175747186Y-83779582D01*
X176586980Y-85150000D02*
X177353900Y-86562492D01*
X163937508Y-73146100D02*
X165350000Y-73913020D01*
X169461755Y-124038246D02*
X168186626Y-125016686D01*
X177353900Y-86562492D02*
X178045846Y-88013185D01*
D14*
X175747186Y-117220418D02*
X175790418Y-117220418D01*
D13*
X178045846Y-88013185D02*
X178660919Y-89498104D01*
%TD*%
M02*
