%TF.GenerationSoftware,KiCad,Pcbnew,10.0.1*%
%TF.CreationDate,2026-05-12T19:54:10+07:00*%
%TF.ProjectId,Power_and_Motor,506f7765-725f-4616-9e64-5f4d6f746f72,rev?*%
%TF.SameCoordinates,Original*%
%TF.FileFunction,Copper,L2,Bot*%
%TF.FilePolarity,Positive*%
%FSLAX46Y46*%
G04 Gerber Fmt 4.6, Leading zero omitted, Abs format (unit mm)*
G04 Created by KiCad (PCBNEW 10.0.1) date 2026-05-12 19:54:10*
%MOMM*%
%LPD*%
G01*
G04 APERTURE LIST*
G04 Aperture macros list*
%AMRoundRect*
0 Rectangle with rounded corners*
0 $1 Rounding radius*
0 $2 $3 $4 $5 $6 $7 $8 $9 X,Y pos of 4 corners*
0 Add a 4 corners polygon primitive as box body*
4,1,4,$2,$3,$4,$5,$6,$7,$8,$9,$2,$3,0*
0 Add four circle primitives for the rounded corners*
1,1,$1+$1,$2,$3*
1,1,$1+$1,$4,$5*
1,1,$1+$1,$6,$7*
1,1,$1+$1,$8,$9*
0 Add four rect primitives between the rounded corners*
20,1,$1+$1,$2,$3,$4,$5,0*
20,1,$1+$1,$4,$5,$6,$7,0*
20,1,$1+$1,$6,$7,$8,$9,0*
20,1,$1+$1,$8,$9,$2,$3,0*%
G04 Aperture macros list end*
%TA.AperFunction,ComponentPad*%
%ADD10R,2.000000X1.905000*%
%TD*%
%TA.AperFunction,ComponentPad*%
%ADD11O,2.000000X1.905000*%
%TD*%
%TA.AperFunction,ComponentPad*%
%ADD12R,1.500000X1.500000*%
%TD*%
%TA.AperFunction,ComponentPad*%
%ADD13C,1.500000*%
%TD*%
%TA.AperFunction,ComponentPad*%
%ADD14C,2.000000*%
%TD*%
%TA.AperFunction,ComponentPad*%
%ADD15C,2.500000*%
%TD*%
%TA.AperFunction,ComponentPad*%
%ADD16C,1.600000*%
%TD*%
%TA.AperFunction,ComponentPad*%
%ADD17R,1.600000X1.600000*%
%TD*%
%TA.AperFunction,ComponentPad*%
%ADD18C,1.300000*%
%TD*%
%TA.AperFunction,ComponentPad*%
%ADD19RoundRect,0.249999X0.850001X-0.850001X0.850001X0.850001X-0.850001X0.850001X-0.850001X-0.850001X0*%
%TD*%
%TA.AperFunction,ComponentPad*%
%ADD20C,2.200000*%
%TD*%
%TA.AperFunction,ComponentPad*%
%ADD21O,1.600000X1.600000*%
%TD*%
%TA.AperFunction,ComponentPad*%
%ADD22O,4.000000X2.000000*%
%TD*%
%TA.AperFunction,ComponentPad*%
%ADD23O,2.000000X4.000000*%
%TD*%
%TA.AperFunction,ComponentPad*%
%ADD24RoundRect,0.249999X-0.850001X-0.850001X0.850001X-0.850001X0.850001X0.850001X-0.850001X0.850001X0*%
%TD*%
%TA.AperFunction,Conductor*%
%ADD25C,1.500000*%
%TD*%
%TA.AperFunction,Conductor*%
%ADD26C,1.000000*%
%TD*%
%TA.AperFunction,Conductor*%
%ADD27C,0.700000*%
%TD*%
%TA.AperFunction,Conductor*%
%ADD28C,0.250000*%
%TD*%
G04 APERTURE END LIST*
D10*
%TO.P,U1,1,ADJ_1*%
%TO.N,Net-(U1-ADJ)*%
X130050000Y-126460000D03*
D11*
%TO.P,U1,2,VO_2*%
%TO.N,Net-(D2-A)*%
X130050000Y-129000000D03*
%TO.P,U1,3,VI_3*%
%TO.N,+12V*%
X130050000Y-131540000D03*
%TD*%
D12*
%TO.P,Q1,1,C_1*%
%TO.N,Net-(Q1-C)*%
X92920000Y-145500000D03*
D13*
%TO.P,Q1,2,B_2*%
%TO.N,Net-(Q1-B)*%
X95460000Y-145500000D03*
%TO.P,Q1,3,E_3*%
%TO.N,GND*%
X98000000Y-145500000D03*
%TD*%
D14*
%TO.P,M1,1,+_1*%
%TO.N,Net-(D1-K)*%
X143920000Y-95000000D03*
%TO.P,M1,2,-_2*%
%TO.N,GND*%
X149000000Y-95000000D03*
%TD*%
D15*
%TO.P,RV1,1,1_1*%
%TO.N,GND*%
X190500000Y-70660000D03*
%TO.P,RV1,2,2_2*%
%TO.N,Net-(C4-Pad1)*%
X190500000Y-65580000D03*
%TO.P,RV1,3,3_3*%
X190500000Y-60500000D03*
%TD*%
D16*
%TO.P,C3,1*%
%TO.N,Net-(D1-K)*%
X138000000Y-90000000D03*
%TO.P,C3,2*%
%TO.N,GND*%
X133000000Y-90000000D03*
%TD*%
D17*
%TO.P,C6,1*%
%TO.N,Net-(D2-A)*%
X154000000Y-94500000D03*
D16*
%TO.P,C6,2*%
%TO.N,GND*%
X156500000Y-94500000D03*
%TD*%
D18*
%TO.P,U6,1,Pin1_1*%
%TO.N,Net-(Q1-C)*%
X140770309Y-136654381D03*
%TD*%
D19*
%TO.P,D2,1,K_1*%
%TO.N,+12V*%
X117500000Y-116080000D03*
D20*
%TO.P,D2,2,A_2*%
%TO.N,Net-(D2-A)*%
X117500000Y-105920000D03*
%TD*%
D14*
%TO.P,SW1,1,A_1*%
%TO.N,unconnected-(SW1A-A-Pad1)*%
X190000000Y-88660000D03*
%TO.P,SW1,2,B_2*%
%TO.N,Net-(D2-A)*%
X190000000Y-83580000D03*
%TO.P,SW1,3,C_3*%
%TO.N,Net-(D1-K)*%
X190000000Y-78500000D03*
%TD*%
D16*
%TO.P,C5,1*%
%TO.N,+12V*%
X120500000Y-100000000D03*
%TO.P,C5,2*%
%TO.N,GND*%
X120500000Y-95000000D03*
%TD*%
D18*
%TO.P,U2,1,Pin1_1*%
%TO.N,Net-(Q1-B)*%
X104760309Y-147048581D03*
%TD*%
%TO.P,U7,1,Pin1_1*%
%TO.N,Net-(Q1-C)*%
X140770309Y-157986681D03*
%TD*%
%TO.P,U5,1,Pin1_1*%
%TO.N,Net-(Q1-C)*%
X136770309Y-157986681D03*
%TD*%
D16*
%TO.P,R1,1*%
%TO.N,+12V*%
X89500000Y-139920000D03*
D21*
%TO.P,R1,2*%
%TO.N,Net-(Q1-B)*%
X89500000Y-150080000D03*
%TD*%
D22*
%TO.P,J1,1*%
%TO.N,+12V*%
X93500000Y-65599999D03*
D23*
%TO.P,J1,2*%
%TO.N,N/C*%
X88900000Y-62800000D03*
D22*
%TO.P,J1,3*%
%TO.N,GND*%
X93500000Y-59500000D03*
%TD*%
D24*
%TO.P,D1,1,K_1*%
%TO.N,Net-(D1-K)*%
X141500000Y-90000000D03*
D20*
%TO.P,D1,2,A_2*%
%TO.N,GND*%
X151660000Y-90000000D03*
%TD*%
D14*
%TO.P,L5,1,1_1*%
%TO.N,+12V*%
X93500000Y-72000000D03*
%TO.P,L5,2,2_2*%
%TO.N,Net-(Q1-C)*%
X93500000Y-79620000D03*
%TO.P,L5,3,3_3*%
%TO.N,+12V*%
X93500000Y-74540000D03*
%TD*%
D15*
%TO.P,C2,1*%
%TO.N,Net-(Q1-C)*%
X103499999Y-159500000D03*
%TO.P,C2,2*%
X118500001Y-159500000D03*
%TD*%
D18*
%TO.P,U3,1,Pin1_1*%
%TO.N,Net-(Q1-B)*%
X107940309Y-146808581D03*
%TD*%
D16*
%TO.P,R3,1*%
%TO.N,Net-(U1-ADJ)*%
X163840000Y-60500000D03*
D21*
%TO.P,R3,2*%
%TO.N,Net-(C4-Pad1)*%
X174000000Y-60500000D03*
%TD*%
D18*
%TO.P,U4,1,Pin1_1*%
%TO.N,Net-(Q1-C)*%
X136770309Y-136654381D03*
%TD*%
D16*
%TO.P,R2,1*%
%TO.N,Net-(D2-A)*%
X124500000Y-105920000D03*
D21*
%TO.P,R2,2*%
%TO.N,Net-(U1-ADJ)*%
X124500000Y-116080000D03*
%TD*%
D17*
%TO.P,C1,1*%
%TO.N,+12V*%
X107000000Y-62000000D03*
D16*
%TO.P,C1,2*%
%TO.N,GND*%
X107000000Y-59500000D03*
%TD*%
D12*
%TO.P,Q2,1,C_1*%
%TO.N,Net-(Q1-C)*%
X100420000Y-153000000D03*
D13*
%TO.P,Q2,2,B_2*%
%TO.N,Net-(Q1-B)*%
X102960000Y-153000000D03*
%TO.P,Q2,3,E_3*%
%TO.N,GND*%
X105500000Y-153000000D03*
%TD*%
D16*
%TO.P,C4,1*%
%TO.N,Net-(C4-Pad1)*%
X180000000Y-60500000D03*
%TO.P,C4,2*%
%TO.N,GND*%
X180000000Y-65500000D03*
%TD*%
%TO.N,GND*%
D25*
X98000000Y-145500000D02*
X105500000Y-153000000D01*
X88500000Y-89500000D02*
X88500000Y-132000000D01*
X93500000Y-59500000D02*
X107000000Y-59500000D01*
X151660000Y-90000000D02*
X153053909Y-90000000D01*
X93500000Y-59500000D02*
X100500000Y-66500000D01*
X120500000Y-95000000D02*
X122500000Y-97000000D01*
X156500000Y-93446091D02*
X156500000Y-94500000D01*
X126000000Y-97000000D02*
X133000000Y-90000000D01*
X88500000Y-132000000D02*
X98000000Y-141500000D01*
X122500000Y-97000000D02*
X126000000Y-97000000D01*
X98000000Y-141500000D02*
X98000000Y-145500000D01*
X100500000Y-66500000D02*
X100500000Y-77500000D01*
X100500000Y-77500000D02*
X88500000Y-89500000D01*
X153053909Y-90000000D02*
X156500000Y-93446091D01*
%TO.N,Net-(D2-A)*%
D26*
X137180000Y-93320000D02*
X152820000Y-93320000D01*
X124500000Y-105920000D02*
X124580000Y-105920000D01*
X124500000Y-105920000D02*
X122000000Y-108420000D01*
X152820000Y-93320000D02*
X154000000Y-94500000D01*
X129277500Y-129000000D02*
X130050000Y-129000000D01*
X124580000Y-105920000D02*
X137180000Y-93320000D01*
X122000000Y-121722500D02*
X129277500Y-129000000D01*
X122000000Y-108420000D02*
X122000000Y-121722500D01*
X117500000Y-105920000D02*
X124500000Y-105920000D01*
%TO.N,Net-(Q1-C)*%
D27*
X162788890Y-147913953D02*
X160820309Y-149120301D01*
X157974107Y-148618157D02*
X155975269Y-149571554D01*
X175619739Y-112859778D02*
X175468167Y-114785681D01*
X155975269Y-149571554D02*
X153929273Y-150419033D01*
X122297475Y-147027172D02*
X120383694Y-146114345D01*
X148768775Y-136975475D02*
X147391883Y-137463058D01*
X120467160Y-151138127D02*
X118340737Y-150123875D01*
X177265288Y-135927513D02*
X175904189Y-137907924D01*
X162575612Y-143693769D02*
X160828190Y-144894739D01*
X111492486Y-87939435D02*
X112685926Y-86542097D01*
X105558955Y-88460875D02*
X106733236Y-86752285D01*
X124127790Y-142916217D02*
X122426651Y-142104816D01*
X164258227Y-122276533D02*
X163629391Y-123594916D01*
X165943235Y-93282276D02*
X166829532Y-94728581D01*
X113771377Y-148523560D02*
X111790966Y-147162461D01*
X114436000Y-76535277D02*
X116222253Y-75307619D01*
X103092660Y-84107251D02*
X104498172Y-82275552D01*
X156339741Y-76446629D02*
X158120309Y-77413398D01*
X181367638Y-122342501D02*
X180711901Y-124556230D01*
X130724127Y-72174269D02*
X132716295Y-71805042D01*
X128055201Y-150017910D02*
X126785178Y-149641712D01*
X118520309Y-74954552D02*
X120383694Y-73942817D01*
X141219632Y-64192719D02*
X143662241Y-64384956D01*
X118673129Y-79081637D02*
X120320309Y-78072244D01*
X93121754Y-114826437D02*
X92933213Y-112430801D01*
X116030077Y-130503978D02*
X114989643Y-129285785D01*
X133343807Y-84498895D02*
X134687364Y-84249881D01*
X96016382Y-90993306D02*
X97071204Y-88781826D01*
X114415610Y-140104130D02*
X112874955Y-138788286D01*
X114023586Y-132310630D02*
X112891348Y-130984950D01*
X165180294Y-116542197D02*
X164850306Y-117916695D01*
X118486773Y-126453865D02*
X117654938Y-125369796D01*
X141592578Y-84076490D02*
X142994040Y-84260996D01*
X119566511Y-147718157D02*
X117620309Y-146661456D01*
X165719640Y-103707530D02*
X166060627Y-105127845D01*
X185883043Y-118390505D02*
X185427950Y-120845969D01*
X116270309Y-148999724D02*
X114261552Y-147768757D01*
X134160604Y-153886997D02*
X131871549Y-153585637D01*
X96172980Y-98614661D02*
X96828717Y-96400932D01*
X159160290Y-136108110D02*
X157814551Y-137140732D01*
X108859692Y-139939198D02*
X107335283Y-138332806D01*
X182786951Y-101572555D02*
X183216284Y-103889030D01*
X116167016Y-96978564D02*
X116880978Y-95813484D01*
X107442869Y-113321228D02*
X107313479Y-111677164D01*
X171506069Y-92028581D02*
X172450356Y-93767740D01*
X178260761Y-126087545D02*
X177413282Y-128133541D01*
X110951645Y-102574593D02*
X111379881Y-101128892D01*
X109318115Y-73658150D02*
X111261959Y-72166586D01*
X102684545Y-91641966D02*
X103696280Y-89778581D01*
X127089467Y-74078645D02*
X128986949Y-73516585D01*
X130162765Y-69533270D02*
X132293922Y-69138284D01*
X173864294Y-122331308D02*
X173219427Y-124152358D01*
X118036568Y-128697325D02*
X117087937Y-127586620D01*
X163436036Y-121910470D02*
X162827485Y-123186324D01*
X142062956Y-79601141D02*
X143697995Y-79816398D01*
X160452681Y-128486620D02*
X159504050Y-129597325D01*
X103996979Y-100711095D02*
X104532274Y-98903969D01*
X108343645Y-118181381D02*
X107958660Y-116577799D01*
X145669069Y-154485637D02*
X143380014Y-154786997D01*
X104498172Y-137781610D02*
X103092660Y-135949911D01*
X96514333Y-101046796D02*
X97042313Y-98847598D01*
X156341332Y-150393745D02*
X154251804Y-151259255D01*
X119870309Y-142764341D02*
X118182953Y-141730328D01*
X173219427Y-124152358D02*
X172480136Y-125937163D01*
X181367638Y-99514661D02*
X181906618Y-101759675D01*
X162827485Y-98670838D02*
X163436036Y-99946692D01*
X153479601Y-139797192D02*
X151948576Y-140527454D01*
X113240623Y-104602079D02*
X113559612Y-103273395D01*
X184418864Y-115726437D02*
X184105204Y-118108923D01*
X125695383Y-135689569D02*
X124370309Y-134970113D01*
X99396569Y-97235277D02*
X100120079Y-95192148D01*
X116114775Y-82051326D02*
X117610040Y-80903969D01*
X150484324Y-84618472D02*
X151845235Y-85267593D01*
X116681163Y-137306404D02*
X115283825Y-136112964D01*
X127356389Y-67431252D02*
X129601403Y-66892272D01*
X129685761Y-143932578D02*
X127923812Y-143410665D01*
X108343645Y-101875781D02*
X108812029Y-100294546D01*
X127481719Y-139436364D02*
X125958105Y-138805263D01*
X95629513Y-107767668D02*
X95806963Y-105512951D01*
X129219886Y-74385918D02*
X131098368Y-73934935D01*
X140897394Y-157986681D02*
X141219632Y-157664443D01*
X121220309Y-140426073D02*
X119653479Y-139465918D01*
X179660606Y-117404968D02*
X179265620Y-119536125D01*
X129416893Y-134395062D02*
X128154469Y-133872149D01*
X126103974Y-134887663D02*
X124820309Y-134190690D01*
X100282312Y-114073833D02*
X100123346Y-112053983D01*
X136556498Y-152270610D02*
X134348755Y-152096857D01*
X128758158Y-140842812D02*
X127159187Y-140276587D01*
X97071204Y-131275336D02*
X96016382Y-129063856D01*
X174720972Y-112812675D02*
X174573097Y-114691606D01*
X104437328Y-117326281D02*
X104102448Y-115519431D01*
X180170309Y-110928581D02*
X180113572Y-113095290D01*
X111213804Y-114393103D02*
X111023148Y-112944925D01*
X138770309Y-63228581D02*
X141266734Y-63293952D01*
X112460200Y-98314566D02*
X113109321Y-96953655D01*
X104321191Y-96804804D02*
X105060482Y-95019999D01*
X146629371Y-147902560D02*
X144683532Y-148263200D01*
X101022113Y-112006880D02*
X100970309Y-110028581D01*
X176591091Y-94089684D02*
X177420539Y-96092148D01*
X111583668Y-143601287D02*
X109863867Y-142132437D01*
X105892168Y-126780830D02*
X105060482Y-125037163D01*
X112706044Y-108662611D02*
X112813253Y-107300385D01*
X171660331Y-105719313D02*
X171887888Y-107447783D01*
X132997877Y-73582881D02*
X134913209Y-73330723D01*
X170244720Y-136416057D02*
X168867674Y-138028371D01*
X130384572Y-78732584D02*
X132033970Y-78336599D01*
X155219398Y-68077239D02*
X157439521Y-68996844D01*
X143003712Y-70650444D02*
X145105905Y-70927203D01*
X177265288Y-85929649D02*
X178520875Y-87978581D01*
X174447958Y-136849911D02*
X173042446Y-138681610D01*
X98274998Y-101421037D02*
X98780980Y-99313473D01*
X97880012Y-116504968D02*
X97597103Y-114356059D01*
X117247552Y-136606973D02*
X115886042Y-135444134D01*
X101796330Y-102169519D02*
X102258313Y-100245221D01*
X167337870Y-121894640D02*
X166724800Y-123374722D01*
X147669998Y-83538153D02*
X149091306Y-84041465D01*
X167016688Y-101750776D02*
X167458306Y-103241655D01*
X141968880Y-80496211D02*
X143557204Y-80705318D01*
X122104355Y-135691900D02*
X120784080Y-134784501D01*
X162558620Y-81552464D02*
X164063446Y-82837707D01*
X165943235Y-128574886D02*
X164982460Y-129972823D01*
X152639149Y-74799018D02*
X154511017Y-75574372D01*
X114079390Y-82606537D02*
X115548387Y-81351895D01*
X138770309Y-155928581D02*
X136368089Y-155865677D01*
X165270686Y-126228581D02*
X164433628Y-127594535D01*
X109111012Y-111582959D02*
X109070309Y-110028581D01*
X169370309Y-110928581D02*
X169328373Y-112530061D01*
X145991360Y-137877912D02*
X144571045Y-138218899D01*
X159930578Y-140053193D02*
X158377314Y-141120721D01*
X175216009Y-116701013D02*
X174863955Y-118600522D01*
X173252261Y-128498013D02*
X172285492Y-130278581D01*
X151582513Y-139705263D02*
X150058899Y-140336364D01*
X106547800Y-106641859D02*
X106769207Y-104960104D01*
X106596466Y-136082445D02*
X105277005Y-134362890D01*
X100546770Y-116082595D02*
X100282312Y-114073833D01*
X162169218Y-95733152D02*
X162932418Y-96978581D01*
X100960302Y-124542483D02*
X100252520Y-122543769D01*
X107474312Y-101642844D02*
X107956078Y-100016430D01*
X138770309Y-79428581D02*
X140418892Y-79471751D01*
X109719325Y-116203558D02*
X109435965Y-114674685D01*
X108297886Y-125555056D02*
X107527054Y-123938974D01*
X183975638Y-123041312D02*
X183279754Y-125390576D01*
X145506648Y-79236599D02*
X147156046Y-79632584D01*
X113477172Y-138119455D02*
X112041673Y-136757217D01*
X157439521Y-152860318D02*
X155219398Y-153779923D01*
X106547800Y-113415303D02*
X106414712Y-111724266D01*
X117654938Y-94687366D02*
X118486773Y-93603297D01*
X164226153Y-136384425D02*
X162859011Y-137681795D01*
X177417272Y-112953983D02*
X177258306Y-114973833D01*
X122297475Y-73029990D02*
X124256407Y-72218574D01*
X117932145Y-69131382D02*
X120101097Y-68096844D01*
X159771380Y-89927510D02*
X160841710Y-91055402D01*
X131846850Y-77456266D02*
X133561041Y-77138559D01*
X100578589Y-132078581D02*
X99476921Y-130049562D01*
X171862906Y-144021178D02*
X170085621Y-145707759D01*
X159245706Y-133668813D02*
X158027513Y-134709247D01*
X147948114Y-139174960D02*
X146457235Y-139616578D01*
X182809871Y-108620565D02*
X182870309Y-110928581D01*
X97880012Y-103552194D02*
X98274998Y-101421037D01*
X112352186Y-127184711D02*
X111490509Y-125778581D01*
X127923812Y-76646497D02*
X129685761Y-76124584D01*
X170085621Y-76149403D02*
X171862906Y-77835984D01*
X131549258Y-83079250D02*
X132969573Y-82738263D01*
X140937018Y-69585318D02*
X143097787Y-69755375D01*
X127123452Y-66561919D02*
X129414283Y-66011939D01*
X107658126Y-114956267D02*
X107442869Y-113321228D01*
X105515945Y-108285794D02*
X105652730Y-106547783D01*
X161044173Y-88654717D02*
X162179371Y-89850967D01*
X120101097Y-151960318D02*
X117932145Y-150925780D01*
X184105204Y-103748239D02*
X184418864Y-106130725D01*
X102399878Y-139480775D02*
X100908314Y-137536931D01*
X158027513Y-87147915D02*
X159245706Y-88188349D01*
X124555212Y-88139250D02*
X125720292Y-87425288D01*
X115860049Y-132938841D02*
X114692417Y-131708413D01*
X148446244Y-136135253D02*
X147113768Y-136607107D01*
X100546770Y-103974567D02*
X100915997Y-101982399D01*
X153046765Y-78863135D02*
X154705376Y-79654252D01*
X93831980Y-112383699D02*
X93770309Y-110028581D01*
X160407777Y-132566049D02*
X159245706Y-133668813D01*
X113559612Y-103273395D02*
X113947701Y-101963227D01*
X168369182Y-124106848D02*
X167638920Y-125637873D01*
X141266734Y-63293952D02*
X143756317Y-63489887D01*
X94016824Y-114732362D02*
X93831980Y-112383699D01*
X162298715Y-147159150D02*
X160370309Y-148340878D01*
X106950504Y-78208776D02*
X108659432Y-76587064D01*
X135759889Y-138670812D02*
X134264996Y-138474005D01*
X149413837Y-83201242D02*
X150850387Y-83796281D01*
X155926439Y-84510458D02*
X157285544Y-85444546D01*
X156836835Y-130993491D02*
X155761960Y-131911522D01*
X103862590Y-106359632D02*
X104102448Y-104537731D01*
X169581958Y-117477799D02*
X169196973Y-119081381D01*
X124864544Y-152826124D02*
X122643751Y-152039700D01*
X164431297Y-97853655D02*
X165080418Y-99214566D01*
X171296442Y-100360200D02*
X171804972Y-102076970D01*
X171981663Y-89360875D02*
X173064915Y-91128581D01*
X148500576Y-156705889D02*
X146091442Y-157152395D01*
X151948576Y-140527454D02*
X150381431Y-141176587D01*
X168327639Y-118848444D02*
X167872638Y-120384501D01*
X102258313Y-100245221D02*
X102820373Y-98347739D01*
X100035664Y-101795278D02*
X100519646Y-99779347D01*
X169167801Y-128478581D02*
X168207646Y-130045411D01*
X114079390Y-137450625D02*
X112678069Y-136120821D01*
X178865603Y-90499009D02*
X179879855Y-92625432D01*
X144542741Y-147374281D02*
X142627409Y-147626439D01*
X182461873Y-94156961D02*
X183279754Y-96466586D01*
X165267881Y-81500046D02*
X166771738Y-82927152D01*
X132969573Y-82738263D02*
X134405787Y-82472076D01*
X136603600Y-68685318D02*
X138770309Y-68628581D01*
X107995329Y-134949668D02*
X106733236Y-133304877D01*
X181438445Y-117686550D02*
X181026285Y-119910366D01*
X94324334Y-117068132D02*
X94016824Y-114732362D01*
X121609468Y-143708628D02*
X119870309Y-142764341D01*
X125869063Y-143637476D02*
X124127790Y-142916217D01*
X114014389Y-92042352D02*
X114989643Y-90771377D01*
X146091442Y-64704767D02*
X148500576Y-65151273D01*
X107682081Y-121962234D02*
X107100127Y-120318847D01*
X175282305Y-101145221D02*
X175744288Y-103069519D01*
X155931150Y-144608628D02*
X154144954Y-145460599D01*
X155609206Y-148749363D02*
X153606742Y-149578811D01*
X127645697Y-144266616D02*
X125869063Y-143637476D01*
X106244176Y-99460200D02*
X106841858Y-97772397D01*
X110093623Y-133250503D02*
X108917582Y-131717857D01*
X110202748Y-120994640D02*
X109667980Y-119484501D01*
X143756317Y-158367275D02*
X142761742Y-158461290D01*
X121614179Y-136446704D02*
X120255074Y-135512616D01*
X120833223Y-150315936D02*
X118749328Y-149321969D01*
X150417166Y-67461919D02*
X152676074Y-68131038D01*
X111830043Y-90455332D02*
X112891348Y-89072212D01*
X101177381Y-113979757D02*
X101022113Y-112006880D01*
X142062956Y-142256021D02*
X140418892Y-142385411D01*
X166326814Y-115293103D02*
X166060627Y-116729317D01*
X155243143Y-147927172D02*
X153284211Y-148738588D01*
X122835242Y-78754252D02*
X124493853Y-77963135D01*
X107823365Y-89931401D02*
X108917582Y-88339305D01*
X122900121Y-88185142D02*
X124065068Y-87384496D01*
X161808540Y-75452816D02*
X163633625Y-76707162D01*
X109261649Y-142801268D02*
X107586900Y-141211990D01*
X174218317Y-79011051D02*
X175840171Y-80909998D01*
X117523554Y-151727686D02*
X115370309Y-150558570D01*
X161720309Y-71178015D02*
X163769241Y-72433602D01*
X121609468Y-76348534D02*
X123395664Y-75496563D01*
X166829532Y-94728581D02*
X167638920Y-96219289D01*
X165188432Y-93772451D02*
X166050109Y-95178581D01*
X167530840Y-109421305D02*
X167570309Y-110928581D01*
X125224001Y-74739241D02*
X127089467Y-74078645D01*
X123920309Y-84307627D02*
X125286791Y-83565687D01*
X170085621Y-145707759D02*
X168222503Y-147299012D01*
X151436644Y-86069499D02*
X152720309Y-86766472D01*
X131659729Y-76575933D02*
X133420250Y-76249640D01*
X109070309Y-110028581D02*
X109111012Y-108474203D01*
X147564974Y-152304225D02*
X145387487Y-152707798D01*
X153510420Y-156293977D02*
X151115977Y-157003243D01*
X150184229Y-153525910D02*
X147939215Y-154064890D01*
X176182606Y-132528581D02*
X175000878Y-134456987D01*
X136368089Y-155865677D02*
X133972453Y-155677136D01*
X138770309Y-67728581D02*
X141031222Y-67787785D01*
X102539740Y-86500175D02*
X103820775Y-84636258D01*
X100275330Y-85029649D02*
X101636429Y-83049238D01*
X179265620Y-102321037D02*
X179660606Y-104452194D01*
X111261959Y-147890576D02*
X109318115Y-146399012D01*
X119653479Y-80591244D02*
X121220309Y-79631089D01*
X99170309Y-110028581D02*
X99224579Y-107956077D01*
X176151638Y-100912284D02*
X176624621Y-102882399D01*
X147939215Y-154064890D02*
X145669069Y-154485637D01*
X134687364Y-135807281D02*
X133343807Y-135558267D01*
X155864460Y-155460367D02*
X153510420Y-156293977D01*
X166588973Y-118382569D02*
X166160737Y-119828270D01*
X117523554Y-68329476D02*
X119735034Y-67274654D01*
X132012340Y-67360445D02*
X134254679Y-67065235D01*
X126890515Y-65692586D02*
X129227162Y-65131606D01*
X182809871Y-113236597D02*
X182628725Y-115538286D01*
X121199286Y-70563417D02*
X123288814Y-69697907D01*
X161517598Y-79619623D02*
X163125008Y-80853032D01*
X152680702Y-79685326D02*
X154296784Y-80456158D01*
X110815818Y-122474722D02*
X110202748Y-120994640D01*
X104617179Y-108238691D02*
X104757660Y-106453708D01*
X104617179Y-111818471D02*
X104570309Y-110028581D01*
X105090262Y-127189422D02*
X104238291Y-125403226D01*
X161517598Y-142237539D02*
X159847840Y-143385132D01*
X132595332Y-139079565D02*
X131083383Y-138716578D01*
X103556995Y-117513402D02*
X103213529Y-115660222D01*
X180079721Y-134778581D02*
X178774895Y-136907863D01*
X164063446Y-82837707D02*
X165498945Y-84199945D01*
X158377314Y-141120721D02*
X156770309Y-142105496D01*
X93121754Y-105230725D02*
X93435414Y-102848239D01*
X102819646Y-111912675D02*
X102770309Y-110028581D01*
X159920309Y-147561456D02*
X157974107Y-148618157D01*
X133420250Y-76249640D02*
X135195436Y-76015932D01*
X149252480Y-71808585D02*
X151285497Y-72410792D01*
X168788892Y-73858719D02*
X170687839Y-75480573D01*
X98274998Y-118636125D02*
X97880012Y-116504968D01*
X127923812Y-143410665D02*
X126191594Y-142797254D01*
X185427950Y-120845969D02*
X184844971Y-123274249D01*
X125420775Y-68942939D02*
X127589326Y-68300585D01*
X146923109Y-80501917D02*
X148504344Y-80970301D01*
X128521075Y-148279244D02*
X126533236Y-147690419D01*
X98325813Y-112148187D02*
X98270309Y-110028581D01*
X116496445Y-87754717D02*
X117692695Y-86619519D01*
X146442250Y-147022227D02*
X144542741Y-147374281D01*
X160172880Y-130199542D02*
X159134984Y-131293256D01*
X177741452Y-133428581D02*
X176510485Y-135437338D01*
X134254679Y-152991927D02*
X132012340Y-152696717D01*
X114713154Y-122286314D02*
X114104604Y-121010461D01*
X109993627Y-97216377D02*
X110703603Y-95727880D01*
X115515008Y-121877749D02*
X114926741Y-120644421D01*
X115361247Y-131106195D02*
X114290211Y-129852173D01*
X143285939Y-67965235D02*
X145528278Y-68260445D01*
X106005121Y-86223278D02*
X107295898Y-84541105D01*
X115494013Y-77991508D02*
X117202603Y-76817227D01*
X176510485Y-135437338D02*
X175176074Y-137378917D01*
X164824173Y-143102424D02*
X163104618Y-144421885D01*
X102539740Y-133556987D02*
X101358012Y-131628581D01*
X170440491Y-100638315D02*
X170935639Y-102309907D01*
X176632304Y-138436931D02*
X175140740Y-140380775D01*
X105880287Y-115237849D02*
X105652730Y-113509379D01*
X154896867Y-68917462D02*
X157073458Y-69819035D01*
X134630982Y-70645514D02*
X136697805Y-70482851D01*
X113049355Y-124878581D02*
X112307415Y-123512099D01*
X125977005Y-149402321D02*
X123933876Y-148678811D01*
X157439521Y-68996844D02*
X159608473Y-70031382D01*
X163769241Y-72433602D02*
X165749652Y-73794701D01*
X164854692Y-134415065D02*
X163589757Y-135748029D01*
X136792010Y-147776777D02*
X134819133Y-147621509D01*
X177360420Y-82891224D02*
X178774895Y-84949299D01*
X99019743Y-87078581D02*
X100275330Y-85029649D01*
X152316617Y-75639241D02*
X154144954Y-76396563D01*
X163769241Y-149423560D02*
X161720309Y-150679147D01*
X112191917Y-131551338D02*
X111101928Y-130130837D01*
X121931412Y-72207799D02*
X123933876Y-71378351D01*
X119499348Y-131431152D02*
X118405634Y-130393256D01*
X121124004Y-82855655D02*
X122570309Y-81969358D01*
X123084705Y-85874869D02*
X124370309Y-85087049D01*
X159199881Y-70833287D02*
X161270309Y-71957438D01*
X118294912Y-132768813D02*
X117132841Y-131666049D01*
X157670309Y-78192821D02*
X159357665Y-79226834D01*
X140371789Y-141486645D02*
X138770309Y-141528581D01*
X95570309Y-110028581D02*
X95629513Y-107767668D01*
X126512576Y-134085736D02*
X125270321Y-133411246D01*
X136744907Y-148675544D02*
X134725057Y-148516578D01*
X173064915Y-91128581D02*
X174054167Y-92950557D01*
X170944152Y-84874717D02*
X172263613Y-86594272D01*
X116712428Y-143994739D02*
X114965006Y-142793769D01*
X170590114Y-142748386D02*
X168881186Y-144370098D01*
X108672944Y-137128371D02*
X107295898Y-135516057D01*
X115820309Y-70278015D02*
X117932145Y-69131382D01*
X149091306Y-137815697D02*
X147669998Y-138319009D01*
X165733306Y-109515510D02*
X165770309Y-110928581D01*
X148553669Y-74416585D02*
X150451151Y-74978645D01*
X100960302Y-95514679D02*
X101771718Y-93555747D01*
X126921141Y-86773280D02*
X128154469Y-86185013D01*
X106001636Y-97449866D02*
X106704863Y-95752125D01*
X103416100Y-94287873D02*
X104288357Y-92459149D01*
X136933317Y-74976684D02*
X138770309Y-74928581D01*
X151285497Y-72410792D02*
X153284211Y-73118574D01*
X140842813Y-150474311D02*
X138770309Y-150528581D01*
X179667508Y-90090417D02*
X180702046Y-92259369D01*
X131846850Y-142600896D02*
X130151635Y-142193911D01*
X168680926Y-140839198D02*
X167074534Y-142363607D01*
X117610040Y-80903969D02*
X119163304Y-79836441D01*
X163711841Y-96528581D02*
X164431297Y-97853655D01*
X131472609Y-75695600D02*
X133279459Y-75360720D01*
X180838585Y-115350135D02*
X180549526Y-117545759D01*
X178385287Y-102508158D02*
X178771687Y-104592985D01*
X110373812Y-130659843D02*
X109332972Y-129145411D01*
X117202603Y-76817227D02*
X118970309Y-75733975D01*
X92920000Y-152920000D02*
X103000000Y-163000000D01*
X96828717Y-96400932D02*
X97599412Y-94224554D01*
X154520309Y-83648781D02*
X155926439Y-84510458D01*
X160820309Y-72736861D02*
X162788890Y-73943209D01*
X173042446Y-138681610D02*
X171542996Y-140437241D01*
X181733655Y-115444211D02*
X181438445Y-117686550D01*
X169018315Y-122539703D02*
X168369182Y-124106848D01*
X167530840Y-112435857D02*
X167412540Y-113939001D01*
X100275330Y-135027513D02*
X99019743Y-132978581D01*
X152314639Y-141349645D02*
X150703962Y-142016809D01*
X171535497Y-134733884D02*
X170244720Y-136416057D01*
X104548890Y-134891897D02*
X103294544Y-133066812D01*
X157220309Y-142884918D02*
X155522558Y-143806722D01*
X180145953Y-119723246D02*
X179628971Y-121876627D01*
X172991728Y-86065265D02*
X174246074Y-87890350D01*
X102072451Y-106171481D02*
X102324609Y-104256149D01*
X142439258Y-76020862D02*
X144261159Y-76260720D01*
X94911893Y-114638286D02*
X94730747Y-112336597D01*
X145809860Y-66482606D02*
X148126335Y-66911939D01*
X98439635Y-125510076D02*
X97684667Y-123378115D01*
X104659962Y-79315486D02*
X106314108Y-77572380D01*
X107474312Y-118414318D02*
X107078327Y-116764920D01*
X146255130Y-146141895D02*
X144401950Y-146485361D01*
X158867489Y-79981637D02*
X160459585Y-81075854D01*
X165304786Y-102307007D02*
X165719640Y-103707530D01*
X168788892Y-147998443D02*
X166807666Y-149518692D01*
X179667508Y-131766745D02*
X178520875Y-133878581D01*
X96102173Y-116786550D02*
X95806963Y-114544211D01*
X126657578Y-155233910D02*
X124308314Y-154538026D01*
X137121726Y-141485411D02*
X135477662Y-141356021D01*
X161270309Y-71957438D02*
X163279066Y-73188405D01*
X151994086Y-145377699D02*
X150173036Y-146022566D01*
X108057214Y-75918234D02*
X109884503Y-74357581D01*
X97042313Y-98847598D02*
X97684667Y-96679047D01*
X141078325Y-66889019D02*
X143380014Y-67070165D01*
X145319527Y-141740230D02*
X143697995Y-142040764D01*
X175216009Y-105156149D02*
X175468167Y-107071481D01*
X108838992Y-116390679D02*
X108547046Y-114815476D01*
X159134984Y-131293256D02*
X158041270Y-132331152D01*
X131316321Y-82209917D02*
X132782452Y-81857930D01*
X100949527Y-93189684D02*
X101882639Y-91233374D01*
X124370309Y-85087049D02*
X125695383Y-84367593D01*
X116488260Y-85281858D02*
X117813940Y-84149620D01*
X155870309Y-140546650D02*
X154296784Y-141401004D01*
X110523930Y-100850776D02*
X111042970Y-99385053D01*
X129414283Y-154045223D02*
X127123452Y-153495243D01*
X165080418Y-99214566D02*
X165657425Y-100607584D01*
X162620309Y-152237993D02*
X160425656Y-153429592D01*
X104102448Y-104537731D02*
X104437328Y-102730881D01*
X134348755Y-67960305D02*
X136556498Y-67786552D01*
X113950861Y-134848029D02*
X112685926Y-133515065D01*
X115223653Y-86481925D02*
X116488260Y-85281858D01*
X104288357Y-92459149D02*
X105255126Y-90678581D01*
X131098368Y-146122227D02*
X129219886Y-145671244D01*
X166517470Y-113844925D02*
X166326814Y-115293103D01*
X102364544Y-83578245D02*
X103798741Y-81709163D01*
X118897130Y-87957180D02*
X120079493Y-86947346D01*
X169317322Y-141475594D02*
X167676751Y-143032437D01*
X98492172Y-114261984D02*
X98325813Y-112148187D01*
X123574880Y-86629672D02*
X124820309Y-85866472D01*
X178020092Y-136417688D02*
X176632304Y-138436931D01*
X107958660Y-103479363D02*
X108343645Y-101875781D01*
X175657979Y-92133374D02*
X176591091Y-94089684D01*
X158872565Y-138596962D02*
X157396964Y-139611114D01*
X112319973Y-146434346D02*
X110450891Y-145000149D01*
X174447958Y-85007251D02*
X175755681Y-86910000D01*
X107682081Y-98094928D02*
X108349245Y-96484251D01*
X129414283Y-66011939D02*
X131730758Y-65582606D01*
X114981998Y-139404698D02*
X113477172Y-138119455D01*
X103486451Y-92050557D02*
X104475703Y-90228581D01*
X152314639Y-80507517D02*
X153888193Y-81258064D01*
X143697995Y-79816398D02*
X145319527Y-80116932D01*
X111830043Y-129601830D02*
X110842579Y-128165061D01*
X107995329Y-85107494D02*
X109341774Y-83531009D01*
X97911647Y-99080535D02*
X98540618Y-96957162D01*
X96759190Y-126155139D02*
X95972766Y-123934346D01*
X104866312Y-119113129D02*
X104437328Y-117326281D01*
X166326814Y-106564059D02*
X166517470Y-108012237D01*
X173549487Y-79613269D02*
X175140740Y-81476387D01*
X159504050Y-92259837D02*
X160452681Y-93370542D01*
X174327089Y-105296940D02*
X174573097Y-107165556D01*
X107270309Y-110028581D02*
X107313479Y-108379998D01*
X151026493Y-79000130D02*
X152680702Y-79685326D01*
X101771718Y-93555747D02*
X102684545Y-91641966D01*
X113106990Y-93362627D02*
X114014389Y-92042352D01*
X172285492Y-91578581D02*
X173252261Y-93359149D01*
X116488260Y-134775304D02*
X115223653Y-133575237D01*
X112102747Y-114252308D02*
X111918242Y-112850847D01*
X127159187Y-79780575D02*
X128758158Y-79214350D01*
X110679435Y-135321718D02*
X109394192Y-133816892D01*
X158041270Y-132331152D02*
X156894736Y-133310385D01*
X126255121Y-148546370D02*
X124256407Y-147838588D01*
X128480043Y-78358399D02*
X130151635Y-77863251D01*
X177288098Y-98413393D02*
X177890305Y-100446410D01*
X123470309Y-136528958D02*
X122104355Y-135691900D01*
X179048446Y-106695178D02*
X179214805Y-108808975D01*
X164254344Y-129443816D02*
X163250407Y-130752173D01*
X140654403Y-74977918D02*
X142533334Y-75125793D01*
X113377986Y-144978115D02*
X111583668Y-143601287D01*
X170687839Y-75480573D02*
X172499302Y-77199588D01*
X111213804Y-105664059D02*
X111479991Y-104227845D01*
X163678825Y-94752802D02*
X164491263Y-96078581D01*
X167458306Y-103241655D02*
X167821293Y-104753604D01*
X160407777Y-89291113D02*
X161510541Y-90453184D01*
X150883040Y-156133910D02*
X148500576Y-156705889D01*
X179057664Y-92991495D02*
X179941206Y-95124554D01*
X152270309Y-134311267D02*
X151028052Y-134985757D01*
X105515945Y-111771368D02*
X105470309Y-110028581D01*
X110087776Y-91401926D02*
X111101928Y-89926325D01*
X135948043Y-136880648D02*
X134546582Y-136696143D01*
X174899872Y-97059741D02*
X175576196Y-98969623D01*
X122321220Y-67177239D02*
X124586429Y-66375087D01*
X107313479Y-111677164D02*
X107270309Y-110028581D01*
X114981998Y-80652464D02*
X116552026Y-79447739D01*
X138770309Y-65028581D02*
X141172529Y-65091485D01*
X138770309Y-81228581D02*
X140324687Y-81269284D01*
X144945286Y-81877597D02*
X146457235Y-82240584D01*
X144683532Y-73593962D02*
X146629371Y-73954602D01*
X115241903Y-146259150D02*
X113377986Y-144978115D01*
X141686653Y-138675742D02*
X140230482Y-138790345D01*
X115223653Y-133575237D02*
X114023586Y-132310630D01*
X109496088Y-80754360D02*
X111068302Y-79262385D01*
X110093623Y-86806659D02*
X111348265Y-85337662D01*
X145950651Y-156263476D02*
X143568165Y-156577136D01*
X94753667Y-119384607D02*
X94324334Y-117068132D01*
X175140740Y-81476387D02*
X176632304Y-83420231D01*
X172379204Y-98027335D02*
X173008344Y-99803969D01*
X165719640Y-118149632D02*
X165304786Y-119550155D01*
X132153131Y-151807798D02*
X129975644Y-151404225D01*
X167408134Y-82290756D02*
X168867674Y-83828791D01*
X157439053Y-90194840D02*
X158498588Y-91200302D01*
X149718355Y-151787243D02*
X147564974Y-152304225D01*
X112360347Y-104414970D02*
X112690335Y-103040473D01*
X180113572Y-113095290D02*
X179943515Y-115256059D01*
X112319973Y-73622816D02*
X114261552Y-72288405D01*
X124901469Y-146158144D02*
X123029601Y-145382790D01*
X113950861Y-85209133D02*
X115283825Y-83944198D01*
X96514333Y-119010366D02*
X96102173Y-116786550D01*
X173543639Y-120246067D02*
X173008344Y-122053193D01*
X159753250Y-93936930D02*
X160613768Y-95058379D01*
X155420309Y-139767227D02*
X153888193Y-140599098D01*
X101964422Y-98069623D02*
X102640746Y-96159741D01*
X132716295Y-148252120D02*
X130724127Y-147882893D01*
X124493853Y-77963135D02*
X126191594Y-77259908D01*
X133156698Y-136438543D02*
X131782201Y-136108555D01*
X125420775Y-151114223D02*
X123288814Y-150359255D01*
X130162765Y-150523892D02*
X128055201Y-150017910D01*
X176432147Y-98691508D02*
X177020972Y-100679347D01*
X183975638Y-98815850D02*
X184547617Y-101198314D01*
X138770309Y-155028581D02*
X136415191Y-154966910D01*
X114616597Y-125714185D02*
X113828777Y-124428581D01*
X178759638Y-121643689D02*
X178144049Y-123721885D01*
X100519646Y-120277815D02*
X100035664Y-118261884D01*
X145246696Y-151818878D02*
X143097787Y-152101787D01*
X120703799Y-130093473D02*
X119678443Y-129120447D01*
X173864294Y-99525854D02*
X174412972Y-101378158D01*
X178385287Y-119349004D02*
X177890305Y-121410752D01*
X118405634Y-89663906D02*
X119499348Y-88626010D01*
X138770309Y-83928581D02*
X140183380Y-83965584D01*
X111042970Y-99385053D02*
X111638009Y-97948503D01*
X124493853Y-142094027D02*
X122835242Y-141302910D01*
X132221091Y-140840230D02*
X130617509Y-140455245D01*
X122018060Y-77150440D02*
X123761727Y-76318754D01*
X177420539Y-96092148D02*
X178144049Y-98135277D01*
X114290211Y-129852173D02*
X113286274Y-128543816D01*
X106197994Y-116952040D02*
X105880287Y-115237849D01*
X114965006Y-77263393D02*
X116712428Y-76062423D01*
X152676074Y-68131038D02*
X154896867Y-68917462D01*
X105880287Y-104819313D02*
X106197994Y-103105122D01*
X150451151Y-146878517D02*
X148553669Y-147440577D01*
X173252261Y-93359149D02*
X174124518Y-95187873D01*
X165622400Y-113750850D02*
X165437894Y-115152312D01*
X133842623Y-78916398D02*
X135477662Y-78701141D01*
X108004113Y-137730588D02*
X106596466Y-136082445D01*
X142994040Y-137596166D02*
X141592578Y-137780672D01*
X181524236Y-129963856D02*
X180469414Y-132175336D01*
X172991728Y-135791897D02*
X171643583Y-137548834D01*
X100127336Y-92823621D02*
X101080733Y-90824783D01*
X165390562Y-143801855D02*
X163633625Y-145150000D01*
X113861793Y-126204360D02*
X113049355Y-124878581D01*
X169483404Y-76818234D02*
X171226510Y-78472380D01*
X136336417Y-136915473D02*
X135948043Y-136880648D01*
X174441309Y-82042775D02*
X175904189Y-83949238D01*
X165267881Y-140357116D02*
X163691396Y-141703561D01*
X130617509Y-140455245D02*
X129036274Y-139986861D01*
X166747564Y-133584115D02*
X165523523Y-135017283D01*
X137074624Y-77672984D02*
X138770309Y-77628581D01*
X126811351Y-73222694D02*
X128754012Y-72647252D01*
X135007284Y-145831369D02*
X133138668Y-145585361D01*
X143979577Y-143818603D02*
X142251107Y-144046160D01*
X161808540Y-146404346D02*
X159920309Y-147561456D01*
X165902609Y-123008659D02*
X165233203Y-124412099D01*
X147854857Y-77024584D02*
X149616806Y-77546497D01*
X160370309Y-73516284D02*
X162298715Y-74698012D01*
X123920309Y-135749535D02*
X122594530Y-134937097D01*
X174124518Y-95187873D02*
X174899872Y-97059741D01*
X175403184Y-132078581D02*
X174246074Y-133966812D01*
X146629371Y-73954602D02*
X148553669Y-74416585D01*
X146442250Y-74834935D02*
X148320732Y-75285918D01*
X148320732Y-146571244D02*
X146442250Y-147022227D01*
X138770309Y-74928581D02*
X140654403Y-74977918D01*
X178144049Y-98135277D02*
X178759638Y-100213473D01*
X100120079Y-95192148D02*
X100949527Y-93189684D01*
X154511017Y-146282790D02*
X152639149Y-147058144D01*
X167016688Y-120106386D02*
X166497648Y-121572109D01*
X128288138Y-149148577D02*
X126255121Y-148546370D01*
X112558158Y-90984339D02*
X113590780Y-89638600D01*
X170807382Y-87652285D02*
X171981663Y-89360875D01*
X140513096Y-77674217D02*
X142251107Y-77811002D01*
X142157031Y-78706072D02*
X143838786Y-78927479D01*
X129040042Y-155805889D02*
X126657578Y-155233910D01*
X105470309Y-110028581D02*
X105515945Y-108285794D01*
X101800524Y-124219952D02*
X101108471Y-122265654D01*
X171657945Y-96286062D02*
X172379204Y-98027335D01*
X145809860Y-155374556D02*
X143474090Y-155682066D01*
X100278827Y-90416191D02*
X101358012Y-88428581D01*
X99650313Y-120510752D02*
X99155331Y-118449004D01*
X100127336Y-127233541D02*
X99279857Y-125187545D01*
X101964422Y-121987539D02*
X101388980Y-120044878D01*
X108578169Y-129635586D02*
X107593394Y-128028581D01*
X113049355Y-95178581D02*
X113861793Y-93852802D01*
X162170309Y-70398592D02*
X164259416Y-71678798D01*
X120633829Y-82100851D02*
X122120309Y-81189935D01*
X98768931Y-103692985D02*
X99155331Y-101608158D01*
X171125906Y-109232896D02*
X171170309Y-110928581D01*
X172549250Y-105578522D02*
X172782958Y-107353708D01*
X171296442Y-121496962D02*
X170698760Y-123184765D01*
X157073458Y-152038127D02*
X154896867Y-152939700D01*
X100035664Y-118261884D02*
X99657851Y-116223386D01*
X112706044Y-111394551D02*
X112670275Y-110028581D01*
X148782460Y-80114350D02*
X150381431Y-80680575D01*
X106034549Y-128928581D02*
X105090262Y-127189422D01*
X106001636Y-122607296D02*
X105388225Y-120875078D01*
X166632073Y-112388754D02*
X166517470Y-113844925D01*
X122570309Y-138087804D02*
X121124004Y-137201507D01*
X128055201Y-70039252D02*
X130162765Y-69533270D01*
X174720972Y-109044487D02*
X174770309Y-110928581D01*
X108859692Y-80117964D02*
X110466084Y-78593555D01*
X134819133Y-72435653D02*
X136792010Y-72280385D01*
X167546991Y-123740785D02*
X166837015Y-125229282D01*
X157285544Y-85444546D02*
X158593901Y-86448483D01*
X159357665Y-79226834D02*
X160988592Y-80347739D01*
X109993627Y-122840785D02*
X109362526Y-121317171D01*
X157862192Y-91836698D02*
X158835219Y-92862055D01*
X136320986Y-63292719D02*
X138770309Y-63228581D01*
X166523338Y-76656444D02*
X168278969Y-78155894D01*
X155931150Y-77248534D02*
X157670309Y-78192821D01*
X134536906Y-150306718D02*
X132434713Y-150029959D01*
X166698039Y-92792101D02*
X167608955Y-94278581D01*
X150173036Y-75834596D02*
X151994086Y-76479463D01*
X112813253Y-112756777D02*
X112706044Y-111394551D01*
X107586900Y-141211990D02*
X105997622Y-139537241D01*
X172222957Y-103818001D02*
X172549250Y-105578522D01*
X109970309Y-110028581D02*
X110009778Y-108521305D01*
X160828190Y-144894739D02*
X159020309Y-146002610D01*
X102137434Y-131178581D02*
X101080733Y-129232379D01*
X116681163Y-82750758D02*
X118139047Y-81632084D01*
X158382699Y-149420063D02*
X156341332Y-150393745D01*
X110128078Y-113039001D02*
X110009778Y-111535857D01*
X155522558Y-78050440D02*
X157220309Y-78972244D01*
X123761727Y-143738408D02*
X122018060Y-142906722D01*
X107593394Y-92028581D02*
X108578169Y-90421576D01*
X136042113Y-84071525D02*
X137404339Y-83964316D01*
X179265620Y-119536125D02*
X178759638Y-121643689D01*
X161680569Y-88018321D02*
X162848201Y-89248749D01*
X172450356Y-128089422D02*
X171506069Y-129828581D01*
X125286791Y-83565687D02*
X126690231Y-82896281D01*
X94753667Y-100672555D02*
X95303647Y-98381724D01*
X119678443Y-129120447D02*
X118705417Y-128095091D01*
X105060482Y-125037163D02*
X104321191Y-123252358D01*
X158171647Y-67352463D02*
X160425656Y-68427570D01*
X177882767Y-117123386D02*
X177504954Y-119161884D01*
X103486451Y-128006605D02*
X102593909Y-126135352D01*
X110815818Y-97582440D02*
X111505509Y-96136472D01*
X108917582Y-131717857D02*
X107823365Y-130125761D01*
X109435965Y-114674685D02*
X109233009Y-113133076D01*
X153071010Y-82861875D02*
X154520309Y-83648781D01*
X113477172Y-81937707D02*
X114981998Y-80652464D01*
X134066528Y-65275096D02*
X136415191Y-65090252D01*
X181012338Y-108714770D02*
X181070309Y-110928581D01*
X101771718Y-126501415D02*
X100960302Y-124542483D01*
X120792285Y-74744723D02*
X122663538Y-73852181D01*
X121220309Y-79631089D02*
X122835242Y-78754252D01*
X169536505Y-83226574D02*
X170944152Y-84874717D01*
X96991092Y-103411403D02*
X97394665Y-101233916D01*
X160370309Y-148340878D02*
X158382699Y-149420063D01*
X161425843Y-82951326D02*
X162859011Y-84175367D01*
X110842579Y-128165061D02*
X109931663Y-126678581D01*
X173678028Y-114597530D02*
X173438170Y-116419431D01*
X113286274Y-128543816D02*
X112352186Y-127184711D01*
X108212245Y-111630061D02*
X108170309Y-110028581D01*
X170227139Y-112577164D02*
X170097749Y-114221228D01*
X155864460Y-66396795D02*
X158171647Y-67352463D01*
X115371400Y-94833152D02*
X116198735Y-93629372D01*
X108337939Y-113227152D02*
X108212245Y-111630061D01*
X95629513Y-112289494D02*
X95570309Y-110028581D01*
X109171436Y-96850314D02*
X109901698Y-95319289D01*
X158835219Y-92862055D02*
X159753250Y-93936930D01*
X175768900Y-94455747D02*
X176580316Y-96414679D01*
X178153376Y-106789254D02*
X178316039Y-108856077D01*
X170590114Y-79108776D02*
X172211826Y-80817704D01*
X159470309Y-146782033D02*
X157565516Y-147816251D01*
X170874165Y-82022139D02*
X172343015Y-83741940D01*
X134687364Y-84249881D02*
X136042113Y-84071525D01*
X112352186Y-92872451D02*
X113286274Y-91513346D01*
X158343558Y-137868847D02*
X156906789Y-138856311D01*
X161992231Y-82251895D02*
X163461228Y-83506537D01*
X97684667Y-96679047D02*
X98439635Y-94547086D01*
X151582513Y-82151899D02*
X153071010Y-82861875D01*
X138770309Y-154128581D02*
X136462293Y-154068143D01*
X122643751Y-152039700D02*
X120467160Y-151138127D01*
X172343015Y-138115222D02*
X170874165Y-139835023D01*
X119197060Y-83088315D02*
X120633829Y-82100851D01*
X145387487Y-152707798D02*
X143191863Y-152996857D01*
X142721485Y-73335653D02*
X144683532Y-73593962D01*
X109496088Y-139302802D02*
X108004113Y-137730588D01*
X120143654Y-81346048D02*
X121670309Y-80410512D01*
X114692417Y-88348749D02*
X115860049Y-87118321D01*
X167074534Y-142363607D02*
X165390562Y-143801855D01*
X134546582Y-83361019D02*
X135948043Y-83176514D01*
X153778891Y-144638408D02*
X151994086Y-145377699D01*
X112874955Y-81268876D02*
X114415610Y-79953032D01*
X125958105Y-81251899D02*
X127481719Y-80620798D01*
X130426858Y-135707084D02*
X129094383Y-135235230D01*
X118749328Y-70735193D02*
X120833223Y-69741226D01*
X105328792Y-79917704D02*
X106950504Y-78208776D01*
X140277585Y-82168050D02*
X141780729Y-82286350D01*
X165188432Y-128084711D02*
X164254344Y-129443816D01*
X129975644Y-68652937D02*
X132153131Y-68249364D01*
X124256407Y-72218574D02*
X126255121Y-71510792D01*
X161680569Y-133838841D02*
X160450141Y-135006473D01*
X112723415Y-100030115D02*
X113282391Y-98680629D01*
X180469414Y-132175336D02*
X179300298Y-134328581D01*
X166050109Y-126678581D02*
X165188432Y-128084711D01*
X116270309Y-71057438D02*
X118340737Y-69933287D01*
X116698908Y-90155402D02*
X117769238Y-89027510D01*
X157814551Y-137140732D02*
X156416614Y-138101507D01*
X108917582Y-88339305D02*
X110093623Y-86806659D01*
X126921141Y-133283882D02*
X125720292Y-132631874D01*
X153965738Y-87529672D02*
X155169518Y-88357007D01*
X163678825Y-127104360D02*
X162798114Y-128385803D01*
X149718355Y-70069919D02*
X151841728Y-70698890D01*
X162788890Y-73943209D02*
X164691639Y-75250932D01*
X154070309Y-84428204D02*
X155436263Y-85265262D01*
X92993001Y-100298314D02*
X93564980Y-97915850D01*
X156748333Y-146212439D02*
X154877080Y-147104981D01*
X125958105Y-138805263D02*
X124469608Y-138095287D01*
X152397958Y-68986989D02*
X154574336Y-69757684D01*
X112848979Y-74350932D02*
X114751728Y-73043209D01*
X132408211Y-139959898D02*
X130850446Y-139585911D01*
X159753250Y-127920232D02*
X158835219Y-128995107D01*
X122594530Y-85120065D02*
X123920309Y-84307627D01*
X117692695Y-86619519D02*
X118946717Y-85548483D01*
X148687697Y-157586222D02*
X146232233Y-158041315D01*
X113106990Y-126694535D02*
X112269932Y-125328581D01*
X178520875Y-87978581D02*
X179667508Y-90090417D01*
X167215733Y-106423268D02*
X167412540Y-107918161D01*
X166517470Y-108012237D02*
X166632073Y-109468408D01*
X149616806Y-144310665D02*
X147854857Y-144832578D01*
X116388505Y-91904154D02*
X117367738Y-90757620D01*
X152316617Y-146217921D02*
X150451151Y-146878517D01*
X149752198Y-135594308D02*
X148446244Y-136135253D01*
X176104928Y-116841804D02*
X175744288Y-118787643D01*
X97873110Y-89190417D02*
X99019743Y-87078581D01*
X143838786Y-142929683D02*
X142157031Y-143151090D01*
X173008344Y-99803969D02*
X173543639Y-101611095D01*
X152270309Y-87545895D02*
X153475563Y-88284476D01*
X166940960Y-116916438D02*
X166588973Y-118382569D01*
X114587257Y-134211633D02*
X113354756Y-132912848D01*
X153046765Y-142994027D02*
X151349024Y-143697254D01*
X95918967Y-93579492D02*
X96838572Y-91359369D01*
X111638009Y-97948503D02*
X112307415Y-96545063D01*
X102770309Y-110028581D02*
X102819646Y-108144487D01*
X169858537Y-98994928D02*
X170440491Y-100638315D01*
X182236971Y-122575438D02*
X181567852Y-124834346D01*
X181621651Y-127377670D02*
X180702046Y-129597793D01*
X186470309Y-110928581D02*
X186404938Y-113425006D01*
X177504954Y-102695278D02*
X177882767Y-104733776D01*
X110450891Y-145000149D02*
X108659432Y-143470098D01*
X180113572Y-108761872D02*
X180170309Y-110928581D01*
X154296784Y-141401004D02*
X152680702Y-142171836D01*
X128201928Y-77502448D02*
X129918698Y-76993918D01*
X114989643Y-90771377D02*
X116030077Y-89553184D01*
X152954189Y-154582075D02*
X150650103Y-155264576D01*
X169351151Y-88710298D02*
X170472056Y-90341225D01*
X163125008Y-80853032D02*
X164665663Y-82168876D01*
X124859916Y-141271836D02*
X123243834Y-140501004D01*
X121305977Y-90632476D02*
X122345025Y-89745045D01*
X169882492Y-106000895D02*
X170097749Y-107635934D01*
X160459585Y-140781308D02*
X158867489Y-141875525D01*
X123933876Y-148678811D02*
X121931412Y-147849363D01*
X143474090Y-66175096D02*
X145809860Y-66482606D01*
X110324885Y-105523268D02*
X110599658Y-104040724D01*
X147621920Y-77893918D02*
X149338690Y-78402448D01*
X105277005Y-85694272D02*
X106596466Y-83974717D01*
X109667980Y-119484501D02*
X109212979Y-117948444D01*
X124578938Y-146998366D02*
X122663538Y-146204981D01*
X166807666Y-72338470D02*
X168788892Y-73858719D01*
X121778674Y-89045659D02*
X122900121Y-88185142D01*
X151115977Y-157003243D02*
X148687697Y-157586222D01*
X105161414Y-97127335D02*
X105882673Y-95386062D01*
X143662241Y-157472206D02*
X141219632Y-157664443D01*
X110703603Y-95727880D02*
X111490509Y-94278581D01*
X175904189Y-137907924D02*
X174441309Y-139814387D01*
X123243834Y-79556158D02*
X124859916Y-78785326D01*
X172970309Y-110928581D02*
X172923439Y-112718471D01*
X158791290Y-150221969D02*
X156707395Y-151215936D01*
X173543639Y-101611095D02*
X173983623Y-103443760D01*
X99476921Y-130049562D02*
X98482954Y-127965667D01*
X109099792Y-94910697D02*
X109931663Y-93378581D01*
X114713154Y-97770848D02*
X115387644Y-96528593D01*
X149894921Y-76690546D02*
X151671555Y-77319686D01*
X164817203Y-100930115D02*
X165304786Y-102307007D01*
X168207646Y-130045411D02*
X167166806Y-131559843D01*
X107658126Y-105100895D02*
X107958660Y-103479363D01*
X107313479Y-108379998D02*
X107442869Y-106735934D01*
X155926439Y-137346704D02*
X154520309Y-138208381D01*
X93435414Y-102848239D02*
X93873334Y-100485434D01*
X163526229Y-92942352D02*
X164433628Y-94262627D01*
X105897035Y-136648834D02*
X104548890Y-134891897D01*
X141874804Y-81391281D02*
X143416413Y-81594237D01*
X174327089Y-116560222D02*
X173983623Y-118413402D01*
X95078745Y-126800201D02*
X94260864Y-124490576D01*
X122663538Y-146204981D02*
X120792285Y-145312439D01*
X119513105Y-133809247D02*
X118294912Y-132768813D01*
X152397958Y-152870173D02*
X150184229Y-153525910D01*
X127788429Y-85362876D02*
X129094383Y-84821932D01*
X176632304Y-83420231D02*
X178020092Y-85439474D01*
X179628971Y-99980535D02*
X180145953Y-102133916D01*
X172549250Y-116278640D02*
X172222957Y-118039161D01*
X173844338Y-90678581D02*
X174856073Y-92541966D01*
X155761960Y-89945640D02*
X156836835Y-90863671D01*
X159020309Y-75854552D02*
X160828190Y-76962423D01*
X167676751Y-143032437D02*
X165956950Y-144501287D01*
X154970309Y-138987804D02*
X153479601Y-139797192D01*
X148553669Y-147440577D02*
X146629371Y-147902560D01*
X118340737Y-150123875D02*
X116270309Y-148999724D01*
X111379881Y-101128892D02*
X111883193Y-99707584D01*
X168623036Y-132617857D02*
X167446995Y-134150503D01*
X138770309Y-150528581D02*
X136650703Y-150473077D01*
X173822206Y-109091589D02*
X173870309Y-110928581D01*
X134124205Y-139362925D02*
X132595332Y-139079565D01*
X120079493Y-86947346D02*
X121313087Y-86000776D01*
X183770309Y-110928581D02*
X183708638Y-113283699D01*
X166829532Y-127128581D02*
X165943235Y-128574886D01*
X117367738Y-129299542D02*
X116388505Y-128153008D01*
X133983414Y-79805318D02*
X135571738Y-79596211D01*
X160988592Y-80347739D02*
X162558620Y-81552464D01*
X101388980Y-120044878D02*
X100915997Y-118074763D01*
X136603600Y-151371844D02*
X134442831Y-151201787D01*
X96528280Y-112242392D02*
X96470309Y-110028581D01*
X182628725Y-106318876D02*
X182809871Y-108620565D01*
X159608473Y-151825780D02*
X157439521Y-152860318D01*
X118036568Y-91359837D02*
X119042030Y-90300302D01*
X121200877Y-144510533D02*
X119420309Y-143543764D01*
X135378064Y-135116581D02*
X134687364Y-135807281D01*
X132575504Y-70916123D02*
X134630982Y-70645514D01*
X180079721Y-87078581D02*
X181271320Y-89273234D01*
X166438690Y-131030837D02*
X165348701Y-132451338D01*
X179941206Y-95124554D02*
X180711901Y-97300932D01*
X155541929Y-154620145D02*
X153232304Y-155438026D01*
X164850306Y-117916695D02*
X164448835Y-119272040D01*
X185883043Y-103466657D02*
X186209003Y-105942573D01*
X117081033Y-80175854D02*
X118673129Y-79081637D01*
X133972453Y-64380026D02*
X136368089Y-64191485D01*
X154144954Y-76396563D02*
X155931150Y-77248534D01*
X105090262Y-92867740D02*
X106034549Y-91128581D01*
X113281202Y-149278364D02*
X111261959Y-147890576D01*
X183523794Y-106224800D02*
X183708638Y-108573463D01*
X170097749Y-107635934D02*
X170227139Y-109279998D01*
X103820775Y-84636258D02*
X105197603Y-82841940D01*
X132575504Y-149141039D02*
X130537006Y-148763226D01*
X113354756Y-132912848D02*
X112191917Y-131551338D01*
X142909636Y-71545514D02*
X144965114Y-71816123D01*
X162620309Y-69619169D02*
X164749591Y-70923995D01*
X171170309Y-110928581D02*
X171125906Y-112624266D01*
X129036274Y-80070301D02*
X130617509Y-79601917D01*
X124878200Y-137293381D02*
X123470309Y-136528958D01*
X164749591Y-70923995D02*
X166807666Y-72338470D01*
X110466084Y-78593555D02*
X112150056Y-77155307D01*
X117813940Y-135907542D02*
X116488260Y-134775304D01*
X100949527Y-126867478D02*
X100120079Y-124865014D01*
X160450141Y-86850689D02*
X161680569Y-88018321D01*
X131589967Y-64693686D02*
X133972453Y-64380026D01*
X107958660Y-116577799D02*
X107658126Y-114956267D01*
X156894736Y-88546777D02*
X158041270Y-89526010D01*
X144965114Y-71816123D02*
X147003612Y-72193936D01*
X148313456Y-155825556D02*
X145950651Y-156263476D01*
X129975644Y-151404225D02*
X127822263Y-150887243D01*
D28*
X142761742Y-158461290D02*
X142730600Y-158461290D01*
D27*
X151007382Y-73266743D02*
X152961680Y-73958796D01*
X117087937Y-92470542D02*
X118036568Y-91359837D01*
X91970309Y-110028581D02*
X92034447Y-107579258D01*
X182423803Y-125112461D02*
X181621651Y-127377670D01*
X101358012Y-88428581D02*
X102539740Y-86500175D01*
X128449312Y-136915697D02*
X127056294Y-136338690D01*
X103127646Y-119579004D02*
X102676663Y-117700522D01*
X123395664Y-75496563D02*
X125224001Y-74739241D01*
X135571738Y-79596211D02*
X137168829Y-79470517D01*
X114403828Y-100675165D02*
X114926741Y-99412741D01*
X149616806Y-77546497D02*
X151349024Y-78159908D01*
X151216450Y-138883072D02*
X149736368Y-139496142D01*
X115283825Y-136112964D02*
X113950861Y-134848029D01*
X120101565Y-130762322D02*
X119042030Y-129756860D01*
X99799166Y-87528581D02*
X101030133Y-85519824D01*
X133561041Y-142918603D02*
X131846850Y-142600896D01*
X162827485Y-123186324D02*
X162152995Y-124428581D01*
X104102448Y-115519431D02*
X103862590Y-113697530D01*
X130724127Y-147882893D02*
X128754012Y-147409910D01*
X155522558Y-143806722D02*
X153778891Y-144638408D01*
X111042970Y-120672109D02*
X110523930Y-119206386D01*
X165902609Y-98848503D02*
X166497648Y-100285053D01*
X177890305Y-100446410D02*
X178385287Y-102508158D01*
X133972453Y-155677136D02*
X131589967Y-155363476D01*
X176624621Y-102882399D02*
X176993848Y-104874567D01*
X179057664Y-128865667D02*
X178063697Y-130949562D01*
X143662241Y-64384956D02*
X146091442Y-64704767D01*
X145880889Y-144381229D02*
X144120368Y-144707522D01*
X117090477Y-85950689D02*
X118380328Y-84849052D01*
X169483404Y-145038928D02*
X167656115Y-146599581D01*
X167089727Y-145900149D02*
X165220645Y-147334346D01*
X166048132Y-88839435D02*
X167166806Y-90297319D01*
X108522303Y-121639703D02*
X107956078Y-120040732D01*
X133701832Y-78027479D02*
X135383587Y-77806072D01*
X184547617Y-120658848D02*
X183975638Y-123041312D01*
X167530014Y-136823935D02*
X166135341Y-138293613D01*
X119374204Y-92564249D02*
X120314798Y-91573070D01*
X149894921Y-145166616D02*
X148087795Y-145701911D01*
X170846544Y-94584923D02*
X171657945Y-96286062D01*
X174946709Y-94821810D02*
X175740094Y-96737210D01*
X157887139Y-81491244D02*
X159401571Y-82532084D01*
X147939215Y-67792272D02*
X150184229Y-68331252D01*
X95806963Y-105512951D02*
X96102173Y-103270612D01*
X166940960Y-104940724D02*
X167215733Y-106423268D01*
X132857086Y-72693962D02*
X134819133Y-72435653D01*
X128288138Y-70908585D02*
X130349886Y-70413603D01*
X99279857Y-125187545D02*
X98540618Y-123100000D01*
X109212979Y-102108718D02*
X109667980Y-100572661D01*
X159020309Y-146002610D02*
X157156924Y-147014345D01*
X170835755Y-96652125D02*
X171538982Y-98349866D01*
X106813972Y-128478581D02*
X105892168Y-126780830D01*
X99019743Y-132978581D02*
X97873110Y-130866745D01*
X110768880Y-138030010D02*
X109341774Y-136526153D01*
X171887888Y-107447783D02*
X172024673Y-109185794D01*
X129094383Y-84821932D02*
X130426858Y-84350078D01*
X100123346Y-112053983D02*
X100070309Y-110028581D01*
X119975102Y-146916251D02*
X118070309Y-145882033D01*
X118139047Y-138425078D02*
X116681163Y-137306404D01*
X140560199Y-145081711D02*
X138770309Y-145128581D01*
X168198844Y-84431009D02*
X169545289Y-86007494D01*
X170227139Y-109279998D02*
X170270309Y-110928581D01*
X183708638Y-108573463D02*
X183770309Y-110928581D01*
X115689074Y-91337765D02*
X116698908Y-90155402D01*
X117620309Y-146661456D02*
X115732078Y-145504346D01*
X142909636Y-150311648D02*
X140842813Y-150474311D01*
X126811351Y-146834468D02*
X124901469Y-146158144D01*
X150484324Y-137238690D02*
X149091306Y-137815697D01*
X101920879Y-111959778D02*
X101870309Y-110028581D01*
X155698524Y-134228270D02*
X154455913Y-135082293D01*
X173741877Y-139247999D02*
X172211826Y-141039458D01*
X182870309Y-110928581D02*
X182809871Y-113236597D01*
X178260761Y-95769617D02*
X179000000Y-97857162D01*
X100908314Y-82520231D02*
X102399878Y-80576387D01*
X140889915Y-70484085D02*
X143003712Y-70650444D01*
X103294544Y-86990350D02*
X104548890Y-85165265D01*
X98540618Y-123100000D02*
X97911647Y-120976627D01*
X153170309Y-85987049D02*
X154455913Y-86774869D01*
X128126781Y-137755920D02*
X126690231Y-137160881D01*
X140465994Y-78572984D02*
X142157031Y-78706072D01*
X136744907Y-71381618D02*
X138770309Y-71328581D01*
X173678028Y-107259632D02*
X173822206Y-109091589D01*
X140984120Y-153170610D02*
X138770309Y-153228581D01*
X173741877Y-82609163D02*
X175176074Y-84478245D01*
X116880978Y-124243678D02*
X116167016Y-123078598D01*
X94434314Y-121908375D02*
X93873334Y-119571728D01*
X162953361Y-135111633D02*
X161654576Y-136344134D01*
X168146426Y-87140270D02*
X169351151Y-88710298D01*
X161270309Y-149899724D02*
X159199881Y-151023875D01*
X130148735Y-83494104D02*
X131549258Y-83079250D01*
X115470620Y-93100366D02*
X116388505Y-91904154D01*
X174412972Y-120479004D02*
X173864294Y-122331308D01*
X114290211Y-90204989D02*
X115361247Y-88950967D01*
X125286791Y-136491475D02*
X123920309Y-135749535D01*
X148126335Y-66911939D02*
X150417166Y-67461919D01*
X155609206Y-73107799D02*
X157565516Y-74040911D01*
X112991609Y-105945636D02*
X113240623Y-104602079D01*
X126533236Y-147690419D02*
X124578938Y-146998366D01*
X105652730Y-106547783D02*
X105880287Y-104819313D01*
X161052358Y-86181858D02*
X162316965Y-87381925D01*
X115241903Y-73798012D02*
X117170309Y-72616284D01*
X130911247Y-147002560D02*
X128986949Y-146540577D01*
X96828717Y-123656230D02*
X96172980Y-121442501D01*
X121212270Y-88346209D02*
X122371100Y-87457007D01*
X171981663Y-132496287D02*
X170807382Y-134204877D01*
X137357239Y-83065607D02*
X138792941Y-83028614D01*
X175576196Y-122887539D02*
X174899872Y-124797421D01*
X168044530Y-81654360D02*
X169536505Y-83226574D01*
X147156046Y-79632584D02*
X148782460Y-80114350D01*
X101080733Y-129232379D02*
X100127336Y-127233541D01*
X175768900Y-127401415D02*
X174856073Y-129315196D01*
X146457235Y-139616578D02*
X144945286Y-139979565D01*
X113282391Y-98680629D02*
X113911227Y-97362246D01*
X135383587Y-77806072D02*
X137074624Y-77672984D01*
X171657945Y-125571100D02*
X170846544Y-127272239D01*
X127822263Y-150887243D02*
X125698890Y-150258272D01*
X135101360Y-144936300D02*
X133279459Y-144696442D01*
X122663538Y-73852181D02*
X124578938Y-73058796D01*
X96991092Y-116645759D02*
X96702033Y-114450135D01*
X182461873Y-127700201D02*
X181524236Y-129963856D01*
X118946717Y-134508679D02*
X117692695Y-133437643D01*
X123761727Y-76318754D02*
X125546532Y-75579463D01*
X101920879Y-108097384D02*
X102072451Y-106171481D01*
X132221091Y-79216932D02*
X133842623Y-78916398D01*
X168845858Y-86573882D02*
X170079267Y-88181292D01*
X159160290Y-85749052D02*
X160450141Y-86850689D01*
X152639149Y-147058144D02*
X150729267Y-147734468D01*
X110010604Y-135923935D02*
X108694760Y-134383280D01*
X123029601Y-74674372D02*
X124901469Y-73899018D01*
X126657578Y-64823252D02*
X129040042Y-64251273D01*
X126324168Y-82074090D02*
X127804250Y-81461020D01*
X167337870Y-99962522D02*
X167872638Y-101472661D01*
X161654576Y-85513028D02*
X162953361Y-86745529D01*
X135948043Y-83176514D02*
X137357239Y-83065607D01*
X118668053Y-82360200D02*
X120143654Y-81346048D01*
X153170309Y-135870113D02*
X151845235Y-136589569D01*
X160988592Y-141509423D02*
X159357665Y-142630328D01*
X111479991Y-115829317D02*
X111213804Y-114393103D01*
X125546532Y-144477699D02*
X123761727Y-143738408D01*
X108659432Y-143470098D02*
X106950504Y-141848386D01*
X106841858Y-122284765D02*
X106244176Y-120596962D01*
X147391883Y-137463058D02*
X145991360Y-137877912D01*
X140230482Y-83066817D02*
X141686653Y-83181420D01*
X104991368Y-104678522D02*
X105317661Y-102918001D01*
X124065068Y-132672666D02*
X122900121Y-131872020D01*
X162298715Y-74698012D02*
X164162632Y-75979047D01*
X179943515Y-106601103D02*
X180113572Y-108761872D01*
X150173036Y-146022566D02*
X148320732Y-146571244D01*
X138770309Y-143328581D02*
X137027522Y-143282945D01*
X168222503Y-147299012D02*
X166278659Y-148790576D01*
X104866312Y-100944033D02*
X105388225Y-99182084D01*
X178144049Y-123721885D02*
X177420539Y-125765014D01*
X115860049Y-87118321D02*
X117090477Y-85950689D01*
X140418892Y-142385411D02*
X138770309Y-142428581D01*
X168388378Y-93828581D02*
X169242732Y-95402106D01*
X174059649Y-97382273D02*
X174720245Y-99247739D01*
X114692417Y-131708413D02*
X113590780Y-130418562D01*
X113828777Y-95628581D02*
X114616597Y-94342977D01*
X136650703Y-150473077D02*
X134536906Y-150306718D01*
X117170309Y-147440878D02*
X115241903Y-146259150D01*
X172450356Y-93767740D02*
X173302327Y-95553936D01*
X101108471Y-97791508D02*
X101800524Y-95837210D01*
X167408134Y-139566406D02*
X165870099Y-141025946D01*
X172285492Y-130278581D02*
X171226860Y-132006112D01*
X134264996Y-138474005D02*
X132782452Y-138199232D01*
X105735646Y-101176970D02*
X106244176Y-99460200D01*
X168207646Y-91811751D02*
X169167801Y-93378581D01*
X173103290Y-103630881D02*
X173438170Y-105437731D01*
X170935639Y-102309907D02*
X171342624Y-104005122D01*
X147190732Y-150543559D02*
X145105905Y-150929959D01*
X103670309Y-110028581D02*
X103718412Y-108191589D01*
X106694074Y-93684923D02*
X107593394Y-92028581D01*
X170726646Y-129378581D02*
X169717253Y-131025761D01*
X179628971Y-121876627D02*
X179000000Y-124000000D01*
X109667980Y-100572661D02*
X110202748Y-99062522D01*
X124864544Y-67231038D02*
X127123452Y-66561919D01*
X101636429Y-83049238D02*
X103099309Y-81142775D01*
X146816491Y-148782893D02*
X144824323Y-149152120D01*
X149413837Y-138655920D02*
X147948114Y-139174960D01*
X175468167Y-107071481D02*
X175619739Y-108997384D01*
X110793054Y-87373047D02*
X112017095Y-85939879D01*
X117769238Y-131029652D02*
X116698908Y-129901760D01*
X148446244Y-85721909D02*
X149752198Y-86262854D01*
X183667284Y-120471728D02*
X183106304Y-122808375D01*
X136462293Y-154068143D02*
X134160604Y-153886997D01*
X179300298Y-134328581D02*
X178020092Y-136417688D01*
X168104653Y-106282477D02*
X168307609Y-107824086D01*
X176570309Y-110928581D02*
X176518505Y-112906880D01*
X158343558Y-83988315D02*
X159726678Y-85049620D01*
X142627409Y-74230723D02*
X144542741Y-74482881D01*
X181733655Y-106412951D02*
X181911105Y-108667668D01*
X166192353Y-135619500D02*
X164862549Y-137020821D01*
X135571738Y-140460951D02*
X133983414Y-140251844D01*
X129870620Y-137419009D02*
X128449312Y-136915697D01*
X134819133Y-147621509D02*
X132857086Y-147363200D01*
X166472316Y-80162385D02*
X168044530Y-81654360D01*
X158570309Y-76633975D02*
X160338015Y-77717227D01*
X151026493Y-142857032D02*
X149338690Y-143454714D01*
X109931663Y-93378581D02*
X110842579Y-91892101D01*
X128758158Y-79214350D02*
X130384572Y-78732584D01*
X105735646Y-118880192D02*
X105317661Y-117139161D01*
X124256407Y-147838588D02*
X122297475Y-147027172D01*
X106950504Y-141848386D02*
X105328792Y-140139458D01*
X130850446Y-80471251D02*
X132408211Y-80097264D01*
X125142660Y-151970173D02*
X122966282Y-151199478D01*
X123395664Y-144560599D02*
X121609468Y-143708628D01*
X119157919Y-148520063D02*
X117170309Y-147440878D01*
X114415610Y-79953032D02*
X116023020Y-78719623D01*
X177413282Y-128133541D02*
X176459885Y-130132379D01*
X114023586Y-87746532D02*
X115223653Y-86481925D01*
X120770309Y-78851666D02*
X122426651Y-77952346D01*
X106604979Y-118647255D02*
X106197994Y-116952040D01*
X179100983Y-95447086D02*
X179855951Y-97579047D01*
X156707395Y-151215936D02*
X154574336Y-152099478D01*
X156328348Y-89246209D02*
X157439053Y-90194840D01*
X118668053Y-137696962D02*
X117247552Y-136606973D01*
X158377314Y-80736441D02*
X159930578Y-81803969D01*
X161341883Y-94529372D02*
X162169218Y-95733152D01*
X171643583Y-84308328D02*
X172991728Y-86065265D01*
X106314108Y-142484782D02*
X104659962Y-140741676D01*
X178063697Y-90907600D02*
X179057664Y-92991495D01*
X151285497Y-149446370D02*
X149252480Y-150048577D01*
X140701506Y-74079151D02*
X142627409Y-74230723D01*
X109152240Y-92928581D02*
X110087776Y-91401926D01*
X120314798Y-91573070D02*
X121305977Y-90632476D01*
X113861793Y-93852802D02*
X114742504Y-92571359D01*
X155113967Y-143004816D02*
X153412828Y-143816217D01*
X144571045Y-83638263D02*
X145991360Y-83979250D01*
X173491271Y-88380525D02*
X174623761Y-90228581D01*
X148786606Y-73547252D02*
X150729267Y-74122694D01*
X143134831Y-138485086D02*
X141686653Y-138675742D01*
X128154469Y-86185013D02*
X129416893Y-85662100D01*
X111820978Y-102807530D02*
X112235832Y-101407007D01*
X140513096Y-144182945D02*
X138770309Y-144228581D01*
X120645882Y-87646777D02*
X121842094Y-86728892D01*
X98492172Y-105795178D02*
X98768931Y-103692985D01*
X92226684Y-114920513D02*
X92034447Y-112477904D01*
X132033970Y-141720563D02*
X130384572Y-141324578D01*
X112272737Y-80600046D02*
X113849222Y-79253601D01*
X149252480Y-150048577D02*
X147190732Y-150543559D01*
X121305977Y-129424686D02*
X120314798Y-128484092D01*
X174054167Y-128906605D02*
X173064915Y-130728581D01*
X119653479Y-139465918D02*
X118139047Y-138425078D01*
X120633829Y-137956311D02*
X119197060Y-136968847D01*
X121200877Y-75546629D02*
X123029601Y-74674372D01*
X132434713Y-150029959D02*
X130349886Y-149643559D01*
X164862549Y-137020821D02*
X163461228Y-138350625D01*
X102676663Y-117700522D02*
X102324609Y-115801013D01*
X146091442Y-157152395D02*
X143662241Y-157472206D01*
X166035109Y-97036472D02*
X166724800Y-98482440D01*
X124061017Y-138897192D02*
X122570309Y-138087804D01*
X132782452Y-81857930D02*
X134264996Y-81583157D01*
X176580316Y-125442483D02*
X175768900Y-127401415D01*
X127056294Y-136338690D02*
X125695383Y-135689569D01*
X180498305Y-122109564D02*
X179855951Y-124278115D01*
X159401571Y-139325078D02*
X157887139Y-140365918D01*
X173870309Y-110928581D02*
X173822206Y-112765573D01*
X119499348Y-88626010D02*
X120645882Y-87646777D01*
X129227162Y-154925556D02*
X126890515Y-154364576D01*
X111670519Y-79931216D02*
X113282833Y-78554170D01*
X133343807Y-135558267D02*
X132015123Y-135239278D01*
X181906618Y-101759675D02*
X182327365Y-104029821D01*
X117692778Y-142485132D02*
X116023020Y-141337539D01*
X151115977Y-64853919D02*
X153510420Y-65563185D01*
X156328348Y-132610953D02*
X155169518Y-133500155D01*
X102640746Y-123897421D02*
X101964422Y-121987539D01*
X151216450Y-82974090D02*
X152662418Y-83663781D01*
X122966282Y-151199478D02*
X120833223Y-150315936D01*
X138770309Y-156828581D02*
X136320986Y-156764443D01*
X112690335Y-117016689D02*
X112360347Y-115642192D01*
X172923439Y-112718471D02*
X172782958Y-114503454D01*
X181524236Y-91893306D02*
X182461873Y-94156961D01*
X155436263Y-85265262D02*
X156756538Y-86172661D01*
X146224297Y-138747245D02*
X144758166Y-139099232D01*
X138770309Y-76728581D02*
X140560199Y-76775451D01*
X160841710Y-91055402D02*
X161851544Y-92237765D01*
X160459585Y-81075854D02*
X161992231Y-82251895D01*
X116198735Y-93629372D02*
X117087937Y-92470542D01*
X180781428Y-127055139D02*
X179879855Y-129231730D01*
X121614179Y-83610458D02*
X123020309Y-82748781D01*
X140371789Y-80370517D02*
X141968880Y-80496211D01*
X183279754Y-125390576D02*
X182461873Y-127700201D01*
X127159187Y-140276587D02*
X125592042Y-139627454D01*
X115000001Y-163000000D02*
X118500001Y-159500000D01*
X173983623Y-118413402D02*
X173543639Y-120246067D01*
X179879855Y-129231730D02*
X178865603Y-131358153D01*
X164665663Y-139688286D02*
X163125008Y-141004130D01*
X144683532Y-148263200D02*
X142721485Y-148521509D01*
X110132484Y-138666406D02*
X108672944Y-137128371D01*
X99279857Y-94869617D02*
X100127336Y-92823621D01*
X121313087Y-86000776D02*
X122594530Y-85120065D01*
X106244176Y-120596962D02*
X105735646Y-118880192D01*
X134630982Y-149411648D02*
X132575504Y-149141039D01*
X164982460Y-129972823D02*
X163949838Y-131318562D01*
X99155331Y-101608158D02*
X99650313Y-99546410D01*
X177288098Y-123443769D02*
X176580316Y-125442483D01*
X132997877Y-146474281D02*
X131098368Y-146122227D01*
X111068302Y-140794777D02*
X109496088Y-139302802D01*
X113563660Y-119704507D02*
X113091806Y-118372032D01*
X131083383Y-138716578D02*
X129592504Y-138274960D01*
X165304786Y-119550155D02*
X164817203Y-120927047D01*
X160338015Y-144139935D02*
X158570309Y-145223187D01*
X169717253Y-131025761D02*
X168623036Y-132617857D01*
X129036274Y-139986861D02*
X127481719Y-139436364D01*
X162859011Y-137681795D02*
X161425843Y-138905836D01*
X122345025Y-89745045D02*
X123429094Y-88913210D01*
X134160604Y-66170165D02*
X136462293Y-65989019D01*
X123288814Y-69697907D02*
X125420775Y-68942939D01*
X145387487Y-69149364D02*
X147564974Y-69552937D01*
X102399878Y-80576387D02*
X103991131Y-78713269D01*
X177470309Y-110928581D02*
X177417272Y-112953983D01*
X176580316Y-96414679D02*
X177288098Y-98413393D01*
X132015123Y-84817884D02*
X133343807Y-84498895D01*
X145991360Y-83979250D02*
X147391883Y-84394104D01*
X156227531Y-134956386D02*
X154946088Y-135837097D01*
X110768880Y-82027152D02*
X112272737Y-80600046D01*
X173983623Y-103443760D02*
X174327089Y-105296940D01*
X113849222Y-79253601D02*
X115494013Y-77991508D01*
X130704955Y-85205973D02*
X132015123Y-84817884D01*
X168369182Y-97750314D02*
X169018315Y-99317459D01*
X97427046Y-107861872D02*
X97597103Y-105701103D01*
X124469608Y-138095287D02*
X123020309Y-137308381D01*
X109931663Y-126678581D02*
X109099792Y-125146465D01*
X129094383Y-135235230D02*
X127788429Y-134694286D01*
X163949838Y-131318562D02*
X162848201Y-132608413D01*
X148313456Y-66031606D02*
X150650103Y-66592586D01*
X162575612Y-78163393D02*
X164257785Y-79454170D01*
X131285488Y-74815267D02*
X133138668Y-74471801D01*
X151436644Y-135787663D02*
X150118261Y-136416499D01*
X164691639Y-146606230D02*
X162788890Y-147913953D01*
X105255126Y-129378581D02*
X104288357Y-127598013D01*
X181438445Y-104170612D02*
X181733655Y-106412951D01*
X100120079Y-124865014D02*
X99396569Y-122821885D01*
X114989643Y-129285785D02*
X114014389Y-128014810D01*
X105997622Y-80519921D02*
X107586900Y-78845172D01*
X151841728Y-151158272D02*
X149718355Y-151787243D01*
X160613768Y-126798783D02*
X159753250Y-127920232D01*
X167446995Y-134150503D02*
X166192353Y-135619500D01*
X136839112Y-146878011D02*
X134913209Y-146726439D01*
X167452842Y-92301926D02*
X168388378Y-93828581D01*
X108297886Y-94502106D02*
X109152240Y-92928581D01*
X177882767Y-104733776D02*
X178153376Y-106789254D01*
X109099792Y-125146465D02*
X108349245Y-123572911D01*
X180549526Y-117545759D02*
X180145953Y-119723246D01*
X94260864Y-124490576D02*
X93564980Y-122141312D01*
X126512576Y-85971426D02*
X127788429Y-85362876D01*
X103099309Y-81142775D02*
X104659962Y-79315486D01*
X105317661Y-102918001D02*
X105735646Y-101176970D01*
X131449176Y-63804767D02*
X133878377Y-63484956D01*
X175176074Y-137378917D02*
X173741877Y-139247999D01*
X111807335Y-108615511D02*
X111918242Y-107206315D01*
X162558620Y-140304698D02*
X160988592Y-141509423D01*
X148504344Y-80970301D02*
X150058899Y-81520798D01*
X161654576Y-136344134D02*
X160293066Y-137506973D01*
X162550975Y-91671377D02*
X163526229Y-92942352D01*
X183279754Y-96466586D02*
X183975638Y-98815850D01*
X151563613Y-150302321D02*
X149485417Y-150917910D01*
X126191594Y-142797254D02*
X124493853Y-142094027D01*
X137027522Y-143282945D02*
X135289511Y-143146160D01*
X169545289Y-86007494D02*
X170807382Y-87652285D01*
X173008344Y-122053193D02*
X172379204Y-123829827D01*
X117932145Y-150925780D02*
X115820309Y-149779147D01*
X164491263Y-125778581D02*
X163678825Y-127104360D01*
X102137434Y-88878581D02*
X103294544Y-86990350D01*
X141078325Y-154968143D02*
X138770309Y-155028581D01*
X97394665Y-101233916D02*
X97911647Y-99080535D01*
X125977005Y-70654841D02*
X128055201Y-70039252D01*
X130911247Y-73054602D02*
X132857086Y-72693962D01*
X117170309Y-72616284D02*
X119157919Y-71537099D01*
X97370309Y-110028581D02*
X97427046Y-107861872D01*
X136650703Y-69584085D02*
X138770309Y-69528581D01*
X131549258Y-136977912D02*
X130148735Y-136563058D01*
X169196973Y-102775781D02*
X169581958Y-104379363D01*
X166497648Y-100285053D02*
X167016688Y-101750776D01*
X116926870Y-94158393D02*
X117787387Y-93036946D01*
X183667284Y-101385434D02*
X184105204Y-103748239D01*
X140842813Y-71382851D02*
X142909636Y-71545514D01*
X146816491Y-73074269D02*
X148786606Y-73547252D01*
X165523523Y-135017283D02*
X164226153Y-136384425D01*
X142345182Y-76915932D02*
X144120368Y-77149640D01*
X137215931Y-139687878D02*
X135665814Y-139565881D01*
X186209003Y-115914589D02*
X185883043Y-118390505D01*
X184418864Y-106130725D02*
X184607405Y-108526361D01*
X103798741Y-81709163D02*
X105328792Y-79917704D01*
X161992231Y-139605267D02*
X160459585Y-140781308D01*
X166670309Y-110928581D02*
X166632073Y-112388754D01*
X136980419Y-75875451D02*
X138770309Y-75828581D01*
X150729267Y-74122694D02*
X152639149Y-74799018D01*
X178759638Y-100213473D02*
X179265620Y-102321037D01*
X104475703Y-129828581D02*
X103486451Y-128006605D01*
X163711841Y-125328581D02*
X162924021Y-126614185D01*
X107593394Y-128028581D02*
X106694074Y-126372239D01*
X173719843Y-85536258D02*
X175000878Y-87400175D01*
X183523794Y-115632362D02*
X183216284Y-117968132D01*
X92546495Y-102707448D02*
X92993001Y-100298314D01*
X147156046Y-142224578D02*
X145506648Y-142620563D01*
X115548387Y-81351895D02*
X117081033Y-80175854D01*
X99387242Y-114167908D02*
X99224579Y-112101085D01*
X97660763Y-91725432D02*
X98675015Y-89599009D01*
X169717253Y-90831401D02*
X170726646Y-92478581D01*
X178771687Y-104592985D02*
X179048446Y-106695178D01*
X168993572Y-115715476D02*
X168701626Y-117290679D01*
X113091806Y-118372032D02*
X112690335Y-117016689D01*
X124586429Y-66375087D02*
X126890515Y-65692586D01*
X123470309Y-83528204D02*
X124878200Y-82763781D01*
X111348265Y-85337662D02*
X112678069Y-83936341D01*
X106733236Y-133304877D02*
X105558955Y-131596287D01*
X181070309Y-110928581D02*
X181012338Y-113142392D01*
X166060627Y-105127845D02*
X166326814Y-106564059D01*
X169018315Y-99317459D02*
X169584540Y-100916430D01*
X95303647Y-121675438D02*
X94753667Y-119384607D01*
X170944152Y-136982445D02*
X169536505Y-138630588D01*
X120770309Y-141205496D02*
X119163304Y-140220721D01*
X158120309Y-77413398D02*
X159847840Y-78472030D01*
X174218317Y-142846111D02*
X172499302Y-144657574D01*
X166747564Y-88273047D02*
X167894921Y-89768312D01*
X138770309Y-78528581D02*
X140465994Y-78572984D01*
X112678069Y-136120821D02*
X111348265Y-134719500D01*
X141968880Y-141360951D02*
X140371789Y-141486645D01*
X128449312Y-83141465D02*
X129870620Y-82638153D01*
X184844971Y-123274249D02*
X184135705Y-125668692D01*
X163104618Y-77435277D02*
X164824173Y-78754738D01*
X127589326Y-68300585D02*
X129788524Y-67772605D01*
X134725057Y-71540584D02*
X136744907Y-71381618D01*
X125869063Y-76419686D02*
X127645697Y-75790546D01*
X177261791Y-91316191D02*
X178235473Y-93357558D01*
X162924021Y-95242977D02*
X163711841Y-96528581D01*
X110082312Y-102341655D02*
X110523930Y-100850776D01*
X106841858Y-97772397D02*
X107527054Y-96118188D01*
X166771738Y-82927152D02*
X168198844Y-84431009D01*
X136886215Y-145979244D02*
X135007284Y-145831369D01*
X138770309Y-139728581D02*
X137215931Y-139687878D01*
X185313934Y-115820513D02*
X184994123Y-118249714D01*
X101882639Y-128823788D02*
X100949527Y-126867478D01*
X145319527Y-80116932D02*
X146923109Y-80501917D01*
X143191863Y-68860305D02*
X145387487Y-69149364D01*
X120101097Y-68096844D02*
X122321220Y-67177239D01*
X168440826Y-126046465D02*
X167608955Y-127578581D01*
X148768775Y-84881687D02*
X150118261Y-85440663D01*
X182628725Y-115538286D02*
X182327365Y-117827341D01*
X150703962Y-79840353D02*
X152314639Y-80507517D01*
X171506069Y-129828581D02*
X170472056Y-131515937D01*
X150850387Y-138060881D02*
X149413837Y-138655920D01*
X129601403Y-153164890D02*
X127356389Y-152625910D01*
X109863867Y-77924725D02*
X111583668Y-76455875D01*
X157461125Y-87847346D02*
X158643488Y-88857180D01*
X98439635Y-94547086D02*
X99305145Y-92457558D01*
X181012338Y-113142392D02*
X180838585Y-115350135D01*
X124308314Y-154538026D02*
X121998689Y-153720145D01*
X177258306Y-114973833D02*
X176993848Y-116982595D01*
X97911647Y-120976627D02*
X97394665Y-118823246D01*
X149951292Y-69200585D02*
X152119843Y-69842939D01*
X152253827Y-84465687D02*
X153620309Y-85207627D01*
X160017064Y-69229476D02*
X162170309Y-70398592D01*
X141172529Y-65091485D02*
X143568165Y-65280026D01*
X96702033Y-114450135D02*
X96528280Y-112242392D01*
X123652425Y-80358064D02*
X125225979Y-79607517D01*
X177258306Y-106883329D02*
X177417272Y-108903179D01*
X138770309Y-152328581D02*
X136556498Y-152270610D01*
X136770309Y-157986681D02*
X138030209Y-159246581D01*
X154070309Y-137428958D02*
X152662418Y-138193381D01*
X165749652Y-73794701D02*
X167656115Y-75257581D01*
X107335283Y-138332806D02*
X105897035Y-136648834D01*
X175740094Y-125119952D02*
X174946709Y-127035352D01*
X125225979Y-140449645D02*
X123652425Y-139699098D01*
X160293066Y-84350189D02*
X161654576Y-85513028D01*
X169953718Y-142111990D02*
X168278969Y-143701268D01*
X108694760Y-85673882D02*
X110010604Y-84133227D01*
X121670309Y-80410512D02*
X123243834Y-79556158D01*
X154705376Y-79654252D02*
X156320309Y-80531089D01*
X179879855Y-92625432D02*
X180781428Y-94802023D01*
X165523523Y-86839879D02*
X166747564Y-88273047D01*
X155169518Y-133500155D02*
X153965738Y-134327490D01*
X138770309Y-153228581D02*
X136509396Y-153169377D01*
X180838585Y-106507027D02*
X181012338Y-108714770D01*
X164491263Y-96078581D02*
X165233203Y-97445063D01*
X136933317Y-145080478D02*
X135101360Y-144936300D01*
X185506171Y-113377904D02*
X185313934Y-115820513D01*
X167656115Y-75257581D02*
X169483404Y-76818234D01*
X152253827Y-137391475D02*
X150850387Y-138060881D01*
X174899872Y-124797421D02*
X174124518Y-126669289D01*
X176993848Y-116982595D02*
X176624621Y-118974763D01*
X138770309Y-138828581D02*
X137263033Y-138789112D01*
X140418892Y-79471751D02*
X142062956Y-79601141D01*
X171226860Y-89851050D02*
X172285492Y-91578581D01*
X165233203Y-97445063D02*
X165902609Y-98848503D01*
X150850387Y-83796281D02*
X152253827Y-84465687D01*
X135665814Y-80491281D02*
X137215931Y-80369284D01*
X148782460Y-141742812D02*
X147156046Y-142224578D01*
X129416893Y-85662100D02*
X130704955Y-85205973D01*
X126255121Y-71510792D02*
X128288138Y-70908585D01*
X138770309Y-65928581D02*
X141125427Y-65990252D01*
X146690172Y-140485911D02*
X145132407Y-140859898D01*
X106197994Y-103105122D02*
X106604979Y-101409907D01*
X102324609Y-104256149D02*
X102676663Y-102356640D01*
X165390562Y-78055307D02*
X167074534Y-79493555D01*
X106666453Y-138935023D02*
X105197603Y-137215222D01*
X180702046Y-92259369D02*
X181621651Y-94479492D01*
X147388983Y-78763251D02*
X149060575Y-79258399D01*
X144120368Y-144707522D02*
X142345182Y-144941230D01*
X184994123Y-103607448D02*
X185313934Y-106036649D01*
X126324168Y-137983072D02*
X124878200Y-137293381D01*
X168867674Y-138028371D02*
X167408134Y-139566406D01*
X160293066Y-137506973D02*
X158872565Y-138596962D01*
X170771411Y-105860104D02*
X170992818Y-107541859D01*
X119735034Y-152782508D02*
X117523554Y-151727686D01*
X120314798Y-128484092D02*
X119374204Y-127492913D01*
X132153131Y-68249364D02*
X134348755Y-67960305D01*
X154296784Y-80456158D02*
X155870309Y-81310512D01*
X96838572Y-91359369D02*
X97873110Y-89190417D01*
X110711086Y-93828581D02*
X111597383Y-92382276D01*
X167452842Y-129555236D02*
X166438690Y-131030837D01*
X182346427Y-91527243D02*
X183302095Y-93834430D01*
X171648450Y-94176332D02*
X172480136Y-95919999D01*
X167608955Y-94278581D02*
X168440826Y-95810697D01*
X135665814Y-139565881D02*
X134124205Y-139362925D01*
X169167801Y-93378581D02*
X170044638Y-94993514D01*
X167089727Y-75957013D02*
X168881186Y-77487064D01*
X123084705Y-134182293D02*
X121842094Y-133328270D01*
X122120309Y-81189935D02*
X123652425Y-80358064D01*
X100282312Y-105983329D02*
X100546770Y-103974567D01*
X138770309Y-66828581D02*
X141078325Y-66889019D01*
X118749328Y-149321969D02*
X116720309Y-148220301D01*
X167166806Y-90297319D02*
X168207646Y-91811751D01*
X114926741Y-99412741D02*
X115515008Y-98179413D01*
X167894921Y-89768312D02*
X168962449Y-91321576D01*
X108578169Y-90421576D02*
X109645697Y-88868312D01*
X115732078Y-74552816D02*
X117620309Y-73395706D01*
X114608200Y-96078581D02*
X115371400Y-94833152D01*
X166135341Y-83563549D02*
X167530014Y-85033227D01*
X168701626Y-117290679D02*
X168327639Y-118848444D01*
X116222253Y-75307619D02*
X118070309Y-74175129D01*
X119566511Y-72339005D02*
X121565349Y-71385608D01*
X152961680Y-73958796D02*
X154877080Y-74752181D01*
X104238291Y-94653936D02*
X105090262Y-92867740D01*
X106313758Y-131106112D02*
X105255126Y-129378581D01*
X144542741Y-74482881D02*
X146442250Y-74834935D01*
X140324687Y-81269284D02*
X141874804Y-81391281D01*
X130617509Y-79601917D02*
X132221091Y-79216932D01*
X107442869Y-106735934D02*
X107658126Y-105100895D01*
X112150056Y-142901855D02*
X110466084Y-141463607D01*
X143097787Y-69755375D02*
X145246696Y-70038284D01*
X179000000Y-97857162D02*
X179628971Y-99980535D01*
X133701832Y-142029683D02*
X132033970Y-141720563D01*
X145132407Y-80997264D02*
X146690172Y-81371251D01*
X130537006Y-148763226D02*
X128521075Y-148279244D01*
X147113768Y-85250055D02*
X148446244Y-85721909D01*
X154946088Y-135837097D02*
X153620309Y-136649535D01*
X116167016Y-123078598D02*
X115515008Y-121877749D01*
X142815561Y-72440584D02*
X144824323Y-72705042D01*
X161425843Y-138905836D02*
X159930578Y-140053193D01*
X145246696Y-70038284D02*
X147377853Y-70433270D01*
X142721485Y-148521509D02*
X140748608Y-148676777D01*
X165080418Y-122642596D02*
X164431297Y-124003507D01*
X164665663Y-82168876D02*
X166135341Y-83563549D01*
X114681607Y-136781795D02*
X113314465Y-135484425D01*
X114403828Y-119381997D02*
X113947701Y-118093935D01*
X106704863Y-124305037D02*
X106001636Y-122607296D01*
X163589757Y-86109133D02*
X164854692Y-87442097D01*
X124065068Y-87384496D02*
X125270321Y-86645916D01*
X97873110Y-130866745D02*
X96838572Y-128697793D01*
X131083383Y-81340584D02*
X132595332Y-80977597D01*
X146255130Y-75715267D02*
X148087795Y-76155251D01*
X181970309Y-110928581D02*
X181911105Y-113189494D01*
X143568165Y-65280026D02*
X145950651Y-65593686D01*
X132434713Y-70027203D02*
X134536906Y-69750444D01*
X110951645Y-117482569D02*
X110599658Y-116016438D01*
X124859916Y-78785326D02*
X126514125Y-78100130D01*
X108170309Y-110028581D02*
X108212245Y-108427101D01*
X127422357Y-84540663D02*
X128771843Y-83981687D01*
X141031222Y-154069377D02*
X138770309Y-154128581D01*
X160450141Y-135006473D02*
X159160290Y-136108110D01*
X163633625Y-76707162D02*
X165390562Y-78055307D01*
X128521075Y-71777918D02*
X130537006Y-71293936D01*
X105997622Y-139537241D02*
X104498172Y-137781610D01*
X136980419Y-144181711D02*
X135195436Y-144041230D01*
X134725057Y-148516578D02*
X132716295Y-148252120D01*
X161510541Y-131403978D02*
X160407777Y-132566049D01*
X133842623Y-141140764D02*
X132221091Y-140840230D01*
X160613768Y-95058379D02*
X161414414Y-96223327D01*
X180549526Y-104311403D02*
X180838585Y-106507027D01*
X167608955Y-127578581D02*
X166698039Y-129065061D01*
X106596466Y-83974717D02*
X108004113Y-82326574D01*
X136509396Y-66887785D02*
X138770309Y-66828581D01*
X125224001Y-145317921D02*
X123395664Y-144560599D01*
X103718412Y-111865573D02*
X103670309Y-110028581D01*
X112102747Y-105804854D02*
X112360347Y-104414970D01*
X154455913Y-135082293D02*
X153170309Y-135870113D01*
X92546495Y-117349714D02*
X92226684Y-114920513D01*
X99155331Y-118449004D02*
X98768931Y-116364177D01*
X154877080Y-74752181D02*
X156748333Y-75644723D01*
X153929273Y-150419033D02*
X151841728Y-151158272D01*
X174246074Y-133966812D02*
X172991728Y-135791897D01*
X112685926Y-86542097D02*
X113950861Y-85209133D01*
X138770309Y-142428581D02*
X137074624Y-142384178D01*
X127804250Y-138596142D02*
X126324168Y-137983072D01*
X184844971Y-98582913D02*
X185427950Y-101011193D01*
X175619739Y-108997384D02*
X175670309Y-110928581D01*
X144758166Y-139099232D02*
X143275622Y-139374005D01*
X109233009Y-113133076D02*
X109111012Y-111582959D01*
X117620309Y-73395706D02*
X119566511Y-72339005D01*
X107078327Y-116764920D02*
X106769207Y-115097058D01*
X134348755Y-152096857D02*
X132153131Y-151807798D01*
X101358012Y-131628581D02*
X100278827Y-129640971D01*
X142815561Y-149416578D02*
X140795711Y-149575544D01*
X95078745Y-93256961D02*
X96016382Y-90993306D01*
X120079493Y-133109816D02*
X118897130Y-132099982D01*
X140230482Y-138790345D02*
X138770309Y-138828581D01*
X145693768Y-143500896D02*
X143979577Y-143818603D01*
X166861183Y-136221718D02*
X165498945Y-137657217D01*
X183216284Y-103889030D02*
X183523794Y-106224800D01*
X109318115Y-146399012D02*
X107454997Y-144807759D01*
X98482954Y-92091495D02*
X99476921Y-90007600D01*
X143380014Y-67070165D02*
X145669069Y-67371525D01*
X109901698Y-124737873D02*
X109171436Y-123206848D01*
X147948114Y-82682202D02*
X149413837Y-83201242D01*
X168867674Y-83828791D02*
X170244720Y-85441105D01*
X160425656Y-68427570D02*
X162620309Y-69619169D01*
X103556995Y-102543760D02*
X103996979Y-100711095D01*
X150729267Y-147734468D02*
X148786606Y-148309910D01*
X166523338Y-145200718D02*
X164691639Y-146606230D01*
X151563613Y-71554841D02*
X153606742Y-72278351D01*
X164431297Y-124003507D02*
X163711841Y-125328581D01*
X163279066Y-73188405D02*
X165220645Y-74522816D01*
X136462293Y-65989019D02*
X138770309Y-65928581D01*
X180711901Y-124556230D02*
X179941206Y-126732608D01*
X122371100Y-132600155D02*
X121212270Y-131710953D01*
X176182606Y-89328581D02*
X177261791Y-91316191D01*
X169351151Y-133146864D02*
X168146426Y-134716892D01*
X181906618Y-120097487D02*
X181367638Y-122342501D01*
X104804151Y-132086462D02*
X103696280Y-130278581D01*
X161851544Y-129619397D02*
X160841710Y-130801760D01*
X99520526Y-135517688D02*
X98240320Y-133428581D01*
X112891348Y-89072212D02*
X114023586Y-87746532D01*
X167530014Y-85033227D02*
X168845858Y-86573882D01*
X118705417Y-91962071D02*
X119678443Y-90936715D01*
X154574336Y-152099478D02*
X152397958Y-152870173D01*
X112235832Y-101407007D02*
X112723415Y-100030115D01*
X123243834Y-140501004D02*
X121670309Y-139646650D01*
X172152393Y-100082084D02*
X172674306Y-101844033D01*
X170992818Y-107541859D02*
X171125906Y-109232896D01*
X137121726Y-78571751D02*
X138770309Y-78528581D01*
X112813253Y-107300385D02*
X112991609Y-105945636D01*
X112017095Y-134117283D02*
X110793054Y-132684115D01*
X168881186Y-144370098D02*
X167089727Y-145900149D01*
X101108471Y-122265654D02*
X100519646Y-120277815D01*
X142994040Y-84260996D02*
X144383925Y-84518596D01*
X128986949Y-146540577D02*
X127089467Y-145978517D01*
X142251107Y-144046160D02*
X140513096Y-144182945D01*
X166278659Y-73066586D02*
X168222503Y-74558150D01*
X119420309Y-143543764D02*
X117692778Y-142485132D01*
X148087795Y-145701911D02*
X146255130Y-146141895D01*
X174412972Y-101378158D02*
X174863955Y-103256640D01*
X157156924Y-74842817D02*
X159020309Y-75854552D01*
X144571045Y-138218899D02*
X143134831Y-138485086D01*
X115370309Y-69498592D02*
X117523554Y-68329476D01*
X125546532Y-75579463D02*
X127367582Y-74934596D01*
X107461351Y-132775870D02*
X106313758Y-131106112D01*
X104532274Y-98903969D02*
X105161414Y-97127335D01*
X117090477Y-134106473D02*
X115860049Y-132938841D01*
X149019543Y-72677918D02*
X151007382Y-73266743D01*
X110087776Y-128655236D02*
X109152240Y-127128581D01*
X141780729Y-139570812D02*
X140277585Y-139689112D01*
X124127790Y-77140945D02*
X125869063Y-76419686D01*
X92933213Y-107626361D02*
X93121754Y-105230725D01*
X177417272Y-108903179D02*
X177470309Y-110928581D01*
X175755681Y-86910000D02*
X176962029Y-88878581D01*
X112874955Y-138788286D02*
X111405277Y-137393613D01*
X169545289Y-135849668D02*
X168198844Y-137426153D01*
X130850446Y-139585911D02*
X129314389Y-139130910D01*
X136839112Y-73179151D02*
X138770309Y-73128581D01*
X101435690Y-115941804D02*
X101177381Y-113979757D01*
X164226153Y-85472737D02*
X165523523Y-86839879D01*
X151349024Y-78159908D02*
X153046765Y-78863135D01*
X160859455Y-83650758D02*
X162256793Y-84844198D01*
X144383925Y-84518596D02*
X145758423Y-84848584D01*
X158171647Y-154504699D02*
X155864460Y-155460367D01*
X159920309Y-74295706D02*
X161808540Y-75452816D01*
X138030209Y-159246581D02*
X141976451Y-159246581D01*
X125592042Y-80429708D02*
X127159187Y-79780575D01*
X182786951Y-120284607D02*
X182236971Y-122575438D01*
X168222503Y-74558150D02*
X170085621Y-76149403D01*
X108659432Y-76587064D02*
X110450891Y-75057013D01*
X111638009Y-122108659D02*
X111042970Y-120672109D01*
X161318365Y-145649543D02*
X159470309Y-146782033D01*
X131730758Y-65582606D02*
X134066528Y-65275096D01*
X160425656Y-153429592D02*
X158171647Y-154504699D01*
X111670519Y-140125946D02*
X110132484Y-138666406D01*
X155169518Y-88357007D02*
X156328348Y-89246209D01*
X150118261Y-136416499D02*
X148768775Y-136975475D01*
X99476921Y-90007600D02*
X100578589Y-87978581D01*
X161152113Y-129053008D02*
X160172880Y-130199542D01*
X142533334Y-146731369D02*
X140654403Y-146879244D01*
X99224579Y-112101085D02*
X99170309Y-110028581D01*
X94260864Y-95566586D02*
X95078745Y-93256961D01*
X170044638Y-126863648D02*
X169167801Y-128478581D01*
X111505509Y-123920690D02*
X110815818Y-122474722D01*
X136415191Y-154966910D02*
X134066528Y-154782066D01*
X152720309Y-86766472D02*
X153965738Y-87529672D01*
X153284211Y-148738588D02*
X151285497Y-149446370D01*
X129219886Y-145671244D02*
X127367582Y-145122566D01*
X107454997Y-75249403D02*
X109318115Y-73658150D01*
X111790966Y-147162461D02*
X109884503Y-145699581D01*
X163976981Y-101252646D02*
X164448835Y-102585122D01*
X133878377Y-156572206D02*
X131449176Y-156252395D01*
X166192353Y-86237662D02*
X167446995Y-87706659D01*
X118946717Y-85548483D02*
X120255074Y-84544546D01*
X153479601Y-82059970D02*
X154970309Y-82869358D01*
X106704863Y-95752125D02*
X107495980Y-94093514D01*
X141592578Y-137780672D02*
X140183380Y-137891578D01*
X119513105Y-86247915D02*
X120784080Y-85272661D01*
X111379881Y-118928270D02*
X110951645Y-117482569D01*
X171887888Y-114409379D02*
X171660331Y-116137849D01*
X100970309Y-110028581D02*
X101022113Y-108050282D01*
X109212979Y-117948444D02*
X108838992Y-116390679D01*
X163461228Y-83506537D02*
X164862549Y-84836341D01*
X109394192Y-86240270D02*
X110679435Y-84735444D01*
X138770309Y-82128581D02*
X140277585Y-82168050D01*
X173438170Y-116419431D02*
X173103290Y-118226281D01*
X112150056Y-77155307D02*
X113906993Y-75807162D01*
X107068562Y-89441225D02*
X108189467Y-87810298D01*
X119726067Y-136240732D02*
X118380328Y-135208110D01*
X158570309Y-145223187D02*
X156748333Y-146212439D01*
X162932418Y-124878581D02*
X162169218Y-126124010D01*
X172211826Y-80817704D02*
X173741877Y-82609163D01*
X145528278Y-68260445D02*
X147752094Y-68672605D01*
X159930578Y-81803969D02*
X161425843Y-82951326D01*
X96470309Y-110028581D02*
X96528280Y-107814770D01*
X98780980Y-99313473D02*
X99396569Y-97235277D01*
X126836656Y-78940353D02*
X128480043Y-78358399D01*
X149485417Y-150917910D02*
X147377853Y-151423892D01*
X167821293Y-117103558D02*
X167458306Y-118615507D01*
X137074624Y-142384178D02*
X135383587Y-142251090D01*
X121998689Y-66337017D02*
X124308314Y-65519136D01*
X98240320Y-86628581D02*
X99520526Y-84539474D01*
X129040042Y-64251273D02*
X131449176Y-63804767D01*
X96838572Y-128697793D02*
X95918967Y-126477670D01*
X161052358Y-135675304D02*
X159726678Y-136807542D01*
X109111012Y-108474203D02*
X109233009Y-106924086D01*
X130151635Y-77863251D02*
X131846850Y-77456266D01*
X170472056Y-90341225D02*
X171506069Y-92028581D01*
X181026285Y-119910366D02*
X180498305Y-122109564D01*
X135007284Y-74225793D02*
X136886215Y-74077918D01*
X94324334Y-102989030D02*
X94753667Y-100672555D01*
X145669069Y-67371525D02*
X147939215Y-67792272D01*
X113091806Y-101685130D02*
X113563660Y-100352655D01*
X144945286Y-139979565D02*
X143416413Y-140262925D01*
X149736368Y-82361020D02*
X151216450Y-82974090D01*
X97071204Y-88781826D02*
X98240320Y-86628581D01*
X103696280Y-89778581D02*
X104804151Y-87970700D01*
X131589967Y-155363476D02*
X129227162Y-154925556D01*
X158643488Y-132999982D02*
X157461125Y-134009816D01*
X171804972Y-102076970D02*
X172222957Y-103818001D01*
X151028052Y-86871405D02*
X152270309Y-87545895D01*
X101080733Y-90824783D02*
X102137434Y-88878581D01*
X131449176Y-156252395D02*
X129040042Y-155805889D01*
X105317661Y-117139161D02*
X104991368Y-115378640D01*
X172379204Y-123829827D02*
X171657945Y-125571100D01*
X131472609Y-144361562D02*
X129685761Y-143932578D01*
X153888193Y-140599098D02*
X152314639Y-141349645D01*
X138770309Y-70428581D02*
X140889915Y-70484085D01*
X155541929Y-67237017D02*
X157805584Y-68174654D01*
X131659729Y-143481229D02*
X129918698Y-143063244D01*
X144758166Y-82757930D02*
X146224297Y-83109917D01*
X109332972Y-129145411D02*
X108372817Y-127578581D01*
X162179371Y-89850967D02*
X163250407Y-91104989D01*
X159726678Y-85049620D02*
X161052358Y-86181858D01*
X124820309Y-85866472D02*
X126103974Y-85169499D01*
X163633625Y-145150000D02*
X161808540Y-146404346D01*
X109261649Y-77255894D02*
X111017280Y-75756444D01*
X94730747Y-112336597D02*
X94670309Y-110028581D01*
X138770309Y-68628581D02*
X140984120Y-68686552D01*
X164817203Y-120927047D02*
X164258227Y-122276533D01*
X95806963Y-114544211D02*
X95629513Y-112289494D01*
X173719843Y-136320904D02*
X172343015Y-138115222D01*
X97042313Y-121209564D02*
X96514333Y-119010366D01*
X136697805Y-70482851D02*
X138770309Y-70428581D01*
X108223296Y-140575594D02*
X106666453Y-138935023D01*
X173844338Y-131178581D02*
X172736467Y-132986462D01*
X107527054Y-123938974D02*
X106841858Y-122284765D01*
X176104928Y-105015358D02*
X176363237Y-106977405D01*
X136556498Y-67786552D02*
X138770309Y-67728581D01*
X120101565Y-89294840D02*
X121212270Y-88346209D01*
X112716445Y-77854738D02*
X114436000Y-76535277D01*
X118070309Y-74175129D02*
X119975102Y-73140911D01*
X177261791Y-130540971D02*
X176182606Y-132528581D01*
X142627409Y-147626439D02*
X140701506Y-147778011D01*
X176518505Y-108950282D02*
X176570309Y-110928581D01*
X119042030Y-129756860D02*
X118036568Y-128697325D01*
X163250407Y-91104989D02*
X164254344Y-92413346D01*
X104437328Y-102730881D02*
X104866312Y-100944033D01*
X166278659Y-148790576D02*
X164259416Y-150178364D01*
X111505509Y-96136472D02*
X112269932Y-94728581D01*
X172152393Y-121775078D02*
X171538982Y-123507296D01*
X175840171Y-80909998D02*
X177360420Y-82891224D01*
X117087937Y-127586620D02*
X116198735Y-126427790D01*
X134913209Y-73330723D02*
X136839112Y-73179151D01*
X175840171Y-140947164D02*
X174218317Y-142846111D01*
X131730758Y-154474556D02*
X129414283Y-154045223D01*
X178774895Y-84949299D02*
X180079721Y-87078581D01*
X134913209Y-146726439D02*
X132997877Y-146474281D01*
D28*
X126785178Y-149641712D02*
X127646689Y-149641712D01*
D27*
X177020972Y-121177815D02*
X176432147Y-123165654D01*
X156341332Y-71463417D02*
X158382699Y-72437099D01*
X134405787Y-137585086D02*
X132969573Y-137318899D01*
X100915997Y-101982399D02*
X101388980Y-100012284D01*
X103480969Y-96482273D02*
X104238291Y-94653936D01*
X105277005Y-134362890D02*
X104049347Y-132576637D01*
X113771377Y-71533602D02*
X115820309Y-70278015D01*
X122321220Y-152879923D02*
X120101097Y-151960318D01*
X110082312Y-117715507D02*
X109719325Y-116203558D01*
X166160737Y-102028892D02*
X166588973Y-103474593D01*
X182423803Y-96744701D02*
X183106304Y-99048787D01*
X103696280Y-130278581D02*
X102684545Y-128415196D01*
X165749652Y-148062461D02*
X163769241Y-149423560D01*
X156416614Y-83755655D02*
X157814551Y-84716430D01*
X163125008Y-141004130D02*
X161517598Y-142237539D01*
X134442831Y-151201787D02*
X132293922Y-150918878D01*
X130349886Y-70413603D02*
X132434713Y-70027203D01*
X109171436Y-123206848D02*
X108522303Y-121639703D01*
X140770309Y-157986681D02*
X140897394Y-157986681D01*
X112269932Y-125328581D02*
X111505509Y-123920690D01*
X129918698Y-143063244D02*
X128201928Y-142554714D01*
X170462291Y-104192242D02*
X170771411Y-105860104D01*
X111820978Y-117249632D02*
X111479991Y-115829317D01*
X128480043Y-141698763D02*
X126836656Y-141116809D01*
X144120368Y-77149640D02*
X145880889Y-77475933D01*
X166035109Y-124820690D02*
X165270686Y-126228581D01*
X162179371Y-132006195D02*
X161044173Y-133202445D01*
X152680702Y-142171836D02*
X151026493Y-142857032D01*
X164257785Y-79454170D02*
X165870099Y-80831216D01*
X175755681Y-134947162D02*
X174447958Y-136849911D01*
X106733236Y-86752285D02*
X107995329Y-85107494D01*
X162256793Y-137012964D02*
X160859455Y-138206404D01*
X171660331Y-116137849D02*
X171342624Y-117852040D01*
X115283825Y-83944198D02*
X116681163Y-82750758D01*
X170097749Y-114221228D02*
X169882492Y-115856267D01*
X166698039Y-129065061D02*
X165710575Y-130501830D01*
X109719325Y-103853604D02*
X110082312Y-102341655D01*
X181621651Y-94479492D02*
X182423803Y-96744701D01*
X112269932Y-94728581D02*
X113106990Y-93362627D01*
X98675015Y-89599009D02*
X99799166Y-87528581D01*
X166807666Y-149518692D02*
X164749591Y-150933167D01*
X175403184Y-89778581D02*
X176459885Y-91724783D01*
X98540618Y-96957162D02*
X99279857Y-94869617D01*
X92034447Y-112477904D02*
X91970309Y-110028581D01*
X164448835Y-119272040D02*
X163976981Y-120604516D01*
X178235473Y-128499604D02*
X177261791Y-130540971D01*
X177360420Y-138965938D02*
X175840171Y-140947164D01*
X105255126Y-90678581D02*
X106313758Y-88951050D01*
X118486773Y-93603297D02*
X119374204Y-92564249D01*
X107100127Y-120318847D02*
X106604979Y-118647255D01*
X124586429Y-153682075D02*
X122321220Y-152879923D01*
X156906789Y-83000851D02*
X158343558Y-83988315D01*
X178063697Y-130949562D02*
X176962029Y-132978581D01*
X168327639Y-103008718D02*
X168701626Y-104566483D01*
X167458306Y-118615507D02*
X167016688Y-120106386D01*
X158835219Y-128995107D02*
X157862192Y-130020464D01*
X95116815Y-124212461D02*
X94434314Y-121908375D01*
X181911105Y-108667668D02*
X181970309Y-110928581D01*
X171342624Y-104005122D02*
X171660331Y-105719313D01*
X157396964Y-139611114D02*
X155870309Y-140546650D01*
X134536906Y-69750444D02*
X136650703Y-69584085D01*
X176363237Y-106977405D02*
X176518505Y-108950282D01*
X179300298Y-87528581D02*
X180469414Y-89681826D01*
X98270309Y-110028581D02*
X98325813Y-107908975D01*
X103862590Y-113697530D02*
X103718412Y-111865573D01*
X175468167Y-114785681D02*
X175216009Y-116701013D01*
X103820775Y-135420904D02*
X102539740Y-133556987D01*
X156416614Y-138101507D02*
X154970309Y-138987804D01*
X119735034Y-67274654D02*
X121998689Y-66337017D01*
X156339741Y-145410533D02*
X154511017Y-146282790D01*
X108812029Y-100294546D02*
X109362526Y-98739991D01*
X172024673Y-109185794D02*
X172070309Y-110928581D01*
X181567852Y-124834346D02*
X180781428Y-127055139D01*
X185427950Y-101011193D02*
X185883043Y-103466657D01*
X111583668Y-76455875D02*
X113377986Y-75079047D01*
X100070309Y-110028581D02*
X100123346Y-108003179D01*
X135853965Y-137775742D02*
X134405787Y-137585086D01*
X150417166Y-154395243D02*
X148126335Y-154945223D01*
X165657425Y-100607584D02*
X166160737Y-102028892D01*
X140654403Y-146879244D02*
X138770309Y-146928581D01*
X118380328Y-135208110D02*
X117090477Y-134106473D01*
X165348701Y-89405824D02*
X166438690Y-90826325D01*
X116114775Y-138005836D02*
X114681607Y-136781795D01*
X172263613Y-86594272D02*
X173491271Y-88380525D01*
X169584540Y-120940732D02*
X169018315Y-122539703D01*
X155420309Y-82089935D02*
X156906789Y-83000851D01*
X136792010Y-72280385D02*
X138770309Y-72228581D01*
X138770309Y-83028581D02*
X140230482Y-83066817D01*
X169191373Y-97384251D02*
X169858537Y-98994928D01*
X169242732Y-95402106D02*
X170013564Y-97018188D01*
X175576196Y-98969623D02*
X176151638Y-100912284D01*
X127356389Y-152625910D02*
X125142660Y-151970173D01*
X117610040Y-139153193D02*
X116114775Y-138005836D01*
X102324609Y-115801013D02*
X102072451Y-113885681D01*
X166632073Y-109468408D02*
X166670309Y-110928581D01*
X105388225Y-99182084D02*
X106001636Y-97449866D01*
X119157919Y-71537099D02*
X121199286Y-70563417D01*
X115470620Y-126956796D02*
X114616597Y-125714185D01*
X167872638Y-120384501D02*
X167337870Y-121894640D01*
X104475703Y-90228581D02*
X105558955Y-88460875D01*
X108547046Y-105241686D02*
X108838992Y-103666483D01*
X167215733Y-115433894D02*
X166940960Y-116916438D01*
X117202603Y-143239935D02*
X115494013Y-142065654D01*
X102684545Y-128415196D02*
X101771718Y-126501415D01*
X150451151Y-74978645D02*
X152316617Y-75639241D01*
X125142660Y-68086989D02*
X127356389Y-67431252D01*
X154640511Y-89085122D02*
X155761960Y-89945640D01*
X167446995Y-87706659D02*
X168623036Y-89239305D01*
X142157031Y-143151090D02*
X140465994Y-143284178D01*
X93831980Y-107673463D02*
X94016824Y-105324800D01*
X156770309Y-79751666D02*
X158377314Y-80736441D01*
X159608473Y-70031382D02*
X161720309Y-71178015D01*
X138770309Y-144228581D02*
X136980419Y-144181711D01*
X175744288Y-103069519D02*
X176104928Y-105015358D01*
X160452681Y-93370542D02*
X161341883Y-94529372D01*
X143697995Y-142040764D02*
X142062956Y-142256021D01*
X136597509Y-136654381D02*
X136336417Y-136915473D01*
X93873334Y-119571728D02*
X93435414Y-117208923D01*
X151994086Y-76479463D02*
X153778891Y-77218754D01*
X165498945Y-137657217D02*
X164063446Y-139019455D01*
X98240320Y-133428581D02*
X97071204Y-131275336D01*
X112460200Y-121742596D02*
X111883193Y-120349578D01*
X108057214Y-144138928D02*
X106314108Y-142484782D01*
X108812029Y-119762616D02*
X108343645Y-118181381D01*
X97660763Y-128331730D02*
X96759190Y-126155139D01*
X160841710Y-130801760D02*
X159771380Y-131929652D01*
X112307415Y-123512099D02*
X111638009Y-122108659D01*
X174863955Y-103256640D02*
X175216009Y-105156149D01*
X167638920Y-125637873D02*
X166829532Y-127128581D01*
X112558158Y-129072823D02*
X111597383Y-127674886D01*
X130426858Y-84350078D02*
X131782201Y-83948607D01*
X164259416Y-150178364D02*
X162170309Y-151458570D01*
X170698760Y-123184765D02*
X170013564Y-124838974D01*
X122594530Y-134937097D02*
X121313087Y-134056386D01*
X115387644Y-123528569D02*
X114713154Y-122286314D01*
X155870309Y-81310512D02*
X157396964Y-82246048D01*
X108223296Y-79481568D02*
X109863867Y-77924725D01*
X138770309Y-137928581D02*
X137310136Y-137890345D01*
X127123452Y-153495243D02*
X124864544Y-152826124D01*
X126690231Y-82896281D02*
X128126781Y-82301242D01*
X176518505Y-112906880D02*
X176363237Y-114879757D01*
X149338690Y-143454714D02*
X147621920Y-143963244D01*
X99224579Y-107956077D02*
X99387242Y-105889254D01*
X169202679Y-107730010D02*
X169328373Y-109327101D01*
X122900121Y-131872020D02*
X121778674Y-131011503D01*
X144383925Y-137338566D02*
X142994040Y-137596166D01*
X134254679Y-67065235D02*
X136509396Y-66887785D01*
X158867489Y-141875525D02*
X157220309Y-142884918D01*
X127804250Y-81461020D02*
X129314389Y-80926252D01*
X175282305Y-120711941D02*
X174720245Y-122609423D01*
X164691639Y-75250932D02*
X166523338Y-76656444D01*
X153071010Y-138995287D02*
X151582513Y-139705263D01*
X165348701Y-132451338D02*
X164185862Y-133812848D01*
X156756538Y-86172661D02*
X158027513Y-87147915D01*
X104659962Y-140741676D02*
X103099309Y-138914387D01*
X101784937Y-86010000D02*
X103092660Y-84107251D01*
X132969573Y-137318899D02*
X131549258Y-136977912D01*
X104049347Y-87480525D02*
X105277005Y-85694272D01*
X114751728Y-73043209D02*
X116720309Y-71836861D01*
X147377853Y-70433270D02*
X149485417Y-70939252D01*
X176151638Y-120944878D02*
X175576196Y-122887539D01*
X113911227Y-122694916D02*
X113282391Y-121376533D01*
X107586900Y-78845172D02*
X109261649Y-77255894D01*
X108372817Y-92478581D02*
X109332972Y-90911751D01*
X127056294Y-83718472D02*
X128449312Y-83141465D01*
X133138668Y-74471801D02*
X135007284Y-74225793D01*
X109362526Y-98739991D02*
X109993627Y-97216377D01*
X167074534Y-79493555D02*
X168680926Y-81017964D01*
X111017280Y-75756444D02*
X112848979Y-74350932D01*
X178153376Y-115067908D02*
X177882767Y-117123386D01*
X163589757Y-135748029D02*
X162256793Y-137012964D01*
X184607405Y-108526361D02*
X184670309Y-110928581D01*
X115515008Y-98179413D02*
X116167016Y-96978564D01*
X112041673Y-136757217D02*
X110679435Y-135321718D01*
X93873334Y-100485434D02*
X94434314Y-98148787D01*
X135477662Y-141356021D02*
X133842623Y-141140764D01*
X101177381Y-106077405D02*
X101435690Y-104115358D01*
X170013564Y-97018188D02*
X170698760Y-98672397D01*
X138770309Y-141528581D02*
X137121726Y-141485411D01*
X107956078Y-120040732D02*
X107474312Y-118414318D01*
X140607301Y-145980478D02*
X138770309Y-146028581D01*
X168307609Y-114033076D02*
X168104653Y-115574685D01*
X100252520Y-122543769D02*
X99650313Y-120510752D01*
X171538982Y-98349866D02*
X172152393Y-100082084D01*
X119163304Y-140220721D02*
X117610040Y-139153193D01*
X113559612Y-116783767D02*
X113240623Y-115455083D01*
X132293922Y-69138284D02*
X134442831Y-68855375D01*
X116198735Y-126427790D02*
X115371400Y-125224010D01*
X137404339Y-83964316D02*
X139141870Y-83931192D01*
X92920000Y-145500000D02*
X92920000Y-152920000D01*
X171648450Y-127680830D02*
X170726646Y-129378581D01*
X99657851Y-116223386D02*
X99387242Y-114167908D01*
X173549487Y-142243893D02*
X171862906Y-144021178D01*
X138770309Y-74028581D02*
X140701506Y-74079151D01*
X102593909Y-93921810D02*
X103486451Y-92050557D01*
X162169218Y-126124010D02*
X161341883Y-127327790D01*
X110010604Y-84133227D02*
X111405277Y-82663549D01*
X124061017Y-81159970D02*
X125592042Y-80429708D01*
X170013564Y-124838974D02*
X169242732Y-126455056D01*
X144401950Y-146485361D02*
X142533334Y-146731369D01*
X157805584Y-153682508D02*
X155541929Y-154620145D01*
X154511017Y-75574372D02*
X156339741Y-76446629D01*
X105388225Y-120875078D02*
X104866312Y-119113129D01*
X115494013Y-142065654D02*
X113849222Y-140803561D01*
X113354756Y-87144314D02*
X114587257Y-85845529D01*
X140277585Y-139689112D02*
X138770309Y-139728581D01*
X111790966Y-72894701D02*
X113771377Y-71533602D01*
X162798114Y-128385803D02*
X161851544Y-129619397D01*
X169584540Y-100916430D02*
X170066306Y-102542844D01*
X118182953Y-78326834D02*
X119870309Y-77292821D01*
X107495980Y-125963648D02*
X106704863Y-124305037D01*
X102967521Y-113791606D02*
X102819646Y-111912675D01*
X138770309Y-147828581D02*
X136792010Y-147776777D01*
X146923109Y-141355245D02*
X145319527Y-141740230D01*
X112716445Y-142202424D02*
X111068302Y-140794777D01*
X138770309Y-151428581D02*
X136603600Y-151371844D01*
X131098368Y-73934935D02*
X132997877Y-73582881D01*
X168278969Y-143701268D02*
X166523338Y-145200718D01*
X140607301Y-75876684D02*
X142439258Y-76020862D01*
X103798741Y-138347999D02*
X102364544Y-136478917D01*
X173302327Y-95553936D02*
X174059649Y-97382273D01*
X120383694Y-146114345D02*
X118520309Y-145102610D01*
X163517032Y-88646532D02*
X164649270Y-89972212D01*
X180469414Y-89681826D02*
X181524236Y-91893306D01*
X138770309Y-149628581D02*
X136697805Y-149574311D01*
X166497648Y-121572109D02*
X165902609Y-123008659D01*
X148320732Y-75285918D02*
X150173036Y-75834596D01*
X166050109Y-95178581D02*
X166837015Y-96627880D01*
X114104604Y-121010461D02*
X113563660Y-119704507D01*
X147564974Y-69552937D02*
X149718355Y-70069919D01*
X103294544Y-133066812D02*
X102137434Y-131178581D01*
X114751728Y-147013953D02*
X112848979Y-145706230D01*
X136320986Y-156764443D02*
X133878377Y-156572206D01*
X97599412Y-125832608D02*
X96828717Y-123656230D01*
X110523930Y-119206386D02*
X110082312Y-117715507D01*
X121670309Y-139646650D02*
X120143654Y-138711114D01*
X131871549Y-66471525D02*
X134160604Y-66170165D01*
X151841728Y-70698890D02*
X153929273Y-71438129D01*
X166060627Y-116729317D02*
X165719640Y-118149632D01*
X113286274Y-91513346D02*
X114290211Y-90204989D01*
X107068562Y-130615937D02*
X106034549Y-128928581D01*
X143568165Y-156577136D02*
X141172529Y-156765677D01*
X148786606Y-148309910D02*
X146816491Y-148782893D01*
X147113768Y-136607107D02*
X145758423Y-137008578D01*
X163629391Y-123594916D02*
X162932418Y-124878581D01*
X171643583Y-137548834D02*
X170205335Y-139232806D01*
X120320309Y-78072244D02*
X122018060Y-77150440D01*
X129314389Y-80926252D02*
X130850446Y-80471251D01*
X106769207Y-104960104D02*
X107078327Y-103292242D01*
X107495980Y-94093514D02*
X108372817Y-92478581D01*
X149485417Y-70939252D02*
X151563613Y-71554841D01*
X159401571Y-82532084D02*
X160859455Y-83650758D01*
X125695383Y-84367593D02*
X127056294Y-83718472D01*
X110373812Y-89397319D02*
X111492486Y-87939435D01*
X146224297Y-83109917D02*
X147669998Y-83538153D01*
X111597383Y-92382276D02*
X112558158Y-90984339D01*
X143756317Y-63489887D02*
X146232233Y-63815847D01*
X166724800Y-123374722D02*
X166035109Y-124820690D01*
X173219427Y-97704804D02*
X173864294Y-99525854D01*
X174573097Y-107165556D02*
X174720972Y-109044487D01*
X103000000Y-163000000D02*
X115000001Y-163000000D01*
X125720292Y-87425288D02*
X126921141Y-86773280D01*
X149091306Y-84041465D02*
X150484324Y-84618472D01*
X168429606Y-109374203D02*
X168470309Y-110928581D01*
X94016824Y-105324800D02*
X94324334Y-102989030D01*
X113590780Y-130418562D02*
X112558158Y-129072823D01*
X170079267Y-133675870D02*
X168845858Y-135283280D01*
X110870309Y-110028581D02*
X110908545Y-108568408D01*
X120320309Y-141984918D02*
X118673129Y-140975525D01*
X170992818Y-114315303D02*
X170771411Y-115997058D01*
X170440491Y-121218847D02*
X169858537Y-122862234D01*
X159245706Y-88188349D02*
X160407777Y-89291113D01*
X154896867Y-152939700D02*
X152676074Y-153726124D01*
X95972766Y-96122816D02*
X96759190Y-93902023D01*
X101882639Y-91233374D02*
X102916857Y-89328581D01*
X119678443Y-90936715D02*
X120703799Y-89963689D01*
X134264996Y-81583157D02*
X135759889Y-81386350D01*
X138770309Y-75828581D02*
X140607301Y-75876684D01*
X157461125Y-134009816D02*
X156227531Y-134956386D01*
X103213529Y-104396940D02*
X103556995Y-102543760D01*
X153778891Y-77218754D02*
X155522558Y-78050440D01*
X108547046Y-114815476D02*
X108337939Y-113227152D01*
X168993572Y-106141686D02*
X169202679Y-107730010D01*
X136697805Y-149574311D02*
X134630982Y-149411648D01*
X120255074Y-135512616D02*
X118946717Y-134508679D01*
X149951292Y-152656577D02*
X147752094Y-153184557D01*
X162170309Y-151458570D02*
X160017064Y-152627686D01*
X157974107Y-73239005D02*
X159920309Y-74295706D01*
X107335283Y-81724356D02*
X108859692Y-80117964D01*
X142439258Y-145836300D02*
X140607301Y-145980478D01*
X179214805Y-113048187D02*
X179048446Y-115161984D01*
X175670309Y-110928581D02*
X175619739Y-112859778D01*
X174946709Y-127035352D02*
X174054167Y-128906605D01*
X128771843Y-83981687D02*
X130148735Y-83494104D01*
X148226229Y-81826252D02*
X149736368Y-82361020D01*
X117654938Y-125369796D02*
X116880978Y-124243678D01*
X138770309Y-148728581D02*
X136744907Y-148675544D01*
X116222253Y-144749543D02*
X114436000Y-143521885D01*
X120645882Y-132410385D02*
X119499348Y-131431152D01*
X110009778Y-108521305D02*
X110128078Y-107018161D01*
X138770309Y-64128581D02*
X141219632Y-64192719D01*
X171535497Y-87123278D02*
X172736467Y-88870700D01*
X137215931Y-80369284D02*
X138770309Y-80328581D01*
X176363237Y-114879757D02*
X176104928Y-116841804D01*
X107100127Y-99738315D02*
X107682081Y-98094928D01*
X170270309Y-110928581D02*
X170227139Y-112577164D01*
X165733306Y-112341652D02*
X165622400Y-113750850D01*
X170807382Y-134204877D02*
X169545289Y-135849668D01*
X101870309Y-110028581D02*
X101920879Y-108097384D01*
X112235832Y-118650155D02*
X111820978Y-117249632D01*
X170835755Y-125205037D02*
X170044638Y-126863648D01*
X112670275Y-110028581D02*
X112706044Y-108662611D01*
X111261959Y-72166586D02*
X113281202Y-70778798D01*
X104238291Y-125403226D02*
X103480969Y-123574889D01*
X117247552Y-83450189D02*
X118668053Y-82360200D01*
X162953361Y-86745529D02*
X164185862Y-88044314D01*
X118182953Y-141730328D02*
X116552026Y-140609423D01*
X145105905Y-150929959D02*
X143003712Y-151206718D01*
X152720309Y-135090690D02*
X151436644Y-135787663D01*
X159847923Y-87519519D02*
X161044173Y-88654717D01*
X151671555Y-144537476D02*
X149894921Y-145166616D01*
X158791290Y-71635193D02*
X160820309Y-72736861D01*
X143134831Y-83372076D02*
X144571045Y-83638263D01*
X153929273Y-71438129D02*
X155975269Y-72285608D01*
X159726678Y-136807542D02*
X158343558Y-137868847D01*
X153284211Y-73118574D02*
X155243143Y-73929990D01*
X106694074Y-126372239D02*
X105882673Y-124671100D01*
X146068009Y-145261562D02*
X144261159Y-145596442D01*
X130704955Y-134851189D02*
X129416893Y-134395062D01*
X164854692Y-87442097D02*
X166048132Y-88839435D01*
X111883193Y-99707584D02*
X112460200Y-98314566D01*
X182236971Y-99281724D02*
X182786951Y-101572555D01*
X106604979Y-101409907D02*
X107100127Y-99738315D01*
X112723415Y-120027047D02*
X112235832Y-118650155D01*
X127089467Y-145978517D02*
X125224001Y-145317921D01*
X96172980Y-121442501D02*
X95634000Y-119197487D01*
X165710575Y-130501830D02*
X164649270Y-131884950D01*
X98325813Y-107908975D02*
X98492172Y-105795178D01*
X129788524Y-152284557D02*
X127589326Y-151756577D01*
X109435965Y-105382477D02*
X109719325Y-103853604D01*
X94911893Y-105418876D02*
X95213253Y-103129821D01*
X140770309Y-136654381D02*
X139232509Y-135116581D01*
X169202679Y-114127152D02*
X168993572Y-115715476D01*
X122104355Y-84365262D02*
X123470309Y-83528204D01*
X165270686Y-95628581D02*
X166035109Y-97036472D01*
X165233203Y-124412099D02*
X164491263Y-125778581D01*
X186209003Y-105942573D02*
X186404938Y-108432156D01*
X174720245Y-122609423D02*
X174059649Y-124474889D01*
X183216284Y-117968132D02*
X182786951Y-120284607D01*
X140937018Y-152271844D02*
X138770309Y-152328581D01*
X127481719Y-80620798D02*
X129036274Y-80070301D01*
X166472316Y-141694777D02*
X164824173Y-143102424D01*
X168178092Y-99639991D02*
X168728589Y-101194546D01*
X128771843Y-136075475D02*
X127422357Y-135516499D01*
X172024673Y-112671368D02*
X171887888Y-114409379D01*
X116552026Y-79447739D02*
X118182953Y-78326834D01*
X120784080Y-85272661D02*
X122104355Y-84365262D01*
X120255074Y-84544546D02*
X121614179Y-83610458D01*
X131316321Y-137847245D02*
X129870620Y-137419009D01*
X146068009Y-76595600D02*
X147854857Y-77024584D01*
X109152240Y-127128581D02*
X108297886Y-125555056D01*
X101800524Y-95837210D02*
X102593909Y-93921810D01*
X168146426Y-134716892D02*
X166861183Y-136221718D01*
X125225979Y-79607517D02*
X126836656Y-78940353D01*
X126836656Y-141116809D02*
X125225979Y-140449645D01*
X101796330Y-117887643D02*
X101435690Y-115941804D01*
X110842579Y-91892101D02*
X111830043Y-90455332D01*
X113590780Y-89638600D02*
X114692417Y-88348749D01*
X126514125Y-141957032D02*
X124859916Y-141271836D01*
X137168829Y-140586645D02*
X135571738Y-140460951D01*
X150381431Y-141176587D02*
X148782460Y-141742812D01*
X106813972Y-91578581D02*
X107823365Y-89931401D01*
X152119843Y-69842939D02*
X154251804Y-70597907D01*
X138770309Y-77628581D02*
X140513096Y-77674217D01*
X168278969Y-78155894D02*
X169953718Y-79745172D01*
X110703603Y-124329282D02*
X109993627Y-122840785D01*
X118897130Y-132099982D02*
X117769238Y-131029652D01*
X110908545Y-108568408D02*
X111023148Y-107112237D01*
X162256793Y-84844198D02*
X163589757Y-86109133D01*
X100915997Y-118074763D02*
X100546770Y-116082595D01*
X172343015Y-83741940D02*
X173719843Y-85536258D01*
X179100983Y-126410076D02*
X178235473Y-128499604D01*
X152662418Y-138193381D02*
X151216450Y-138883072D01*
X109341774Y-136526153D02*
X107995329Y-134949668D01*
X143557204Y-80705318D02*
X145132407Y-80997264D01*
X158041270Y-89526010D02*
X159134984Y-90563906D01*
X147003612Y-149663226D02*
X144965114Y-150041039D01*
X159199881Y-151023875D02*
X157073458Y-152038127D01*
X175140740Y-140380775D02*
X173549487Y-142243893D01*
X113109321Y-123103507D02*
X112460200Y-121742596D01*
X99387242Y-105889254D02*
X99657851Y-103833776D01*
X155113967Y-78852346D02*
X156770309Y-79751666D01*
X169328373Y-112530061D02*
X169202679Y-114127152D01*
X168104653Y-115574685D02*
X167821293Y-117103558D01*
X122018060Y-142906722D02*
X120320309Y-141984918D01*
X172782958Y-114503454D02*
X172549250Y-116278640D01*
X114104604Y-99046701D02*
X114713154Y-97770848D01*
X169196973Y-119081381D02*
X168728589Y-120662616D01*
X117132841Y-88391113D02*
X118294912Y-87288349D01*
X173822206Y-112765573D02*
X173678028Y-114597530D01*
X154251804Y-151259255D02*
X152119843Y-152014223D01*
X143416413Y-81594237D02*
X144945286Y-81877597D01*
X182327365Y-104029821D02*
X182628725Y-106318876D01*
X154877080Y-147104981D02*
X152961680Y-147898366D01*
X166724800Y-98482440D02*
X167337870Y-99962522D01*
X112041673Y-83299945D02*
X113477172Y-81937707D01*
X111017280Y-144300718D02*
X109261649Y-142801268D01*
X134546582Y-136696143D02*
X133156698Y-136438543D01*
X105677712Y-143121178D02*
X103991131Y-141343893D01*
X164982460Y-91884339D02*
X165943235Y-93282276D01*
X102258313Y-119811941D02*
X101796330Y-117887643D01*
X128154469Y-133872149D02*
X126921141Y-133283882D01*
X111101928Y-89926325D02*
X112191917Y-88505824D01*
X133561041Y-77138559D02*
X135289511Y-76911002D01*
X111023148Y-107112237D02*
X111213804Y-105664059D01*
X165870099Y-141025946D02*
X164257785Y-142402992D01*
X116023020Y-141337539D02*
X114415610Y-140104130D01*
X122426651Y-142104816D02*
X120770309Y-141205496D01*
X174720245Y-99247739D02*
X175282305Y-101145221D01*
X161851544Y-92237765D02*
X162798114Y-93471359D01*
X112360347Y-115642192D02*
X112102747Y-114252308D01*
X114014389Y-128014810D02*
X113106990Y-126694535D01*
X118970309Y-75733975D02*
X120792285Y-74744723D01*
X165220645Y-74522816D02*
X167089727Y-75957013D01*
X148687697Y-64270940D02*
X151115977Y-64853919D01*
X113282391Y-121376533D02*
X112723415Y-120027047D01*
X172736467Y-88870700D02*
X173844338Y-90678581D01*
X167412540Y-113939001D02*
X167215733Y-115433894D01*
X167676751Y-78824725D02*
X169317322Y-80381568D01*
X109362526Y-121317171D02*
X108812029Y-119762616D01*
X138770309Y-80328581D02*
X140371789Y-80370517D01*
X116126224Y-95323340D02*
X116926870Y-94158393D01*
X129592504Y-138274960D02*
X128126781Y-137755920D01*
X150184229Y-68331252D02*
X152397958Y-68986989D01*
X125592042Y-139627454D02*
X124061017Y-138897192D01*
X105882673Y-95386062D02*
X106694074Y-93684923D01*
X168962449Y-130535586D02*
X167894921Y-132088850D01*
X106666453Y-81122139D02*
X108223296Y-79481568D01*
X103676324Y-98625854D02*
X104321191Y-96804804D01*
X137027522Y-76774217D02*
X138770309Y-76728581D01*
X144401950Y-75371801D02*
X146255130Y-75715267D01*
X176459885Y-130132379D02*
X175403184Y-132078581D01*
X158872565Y-83260200D02*
X160293066Y-84350189D01*
X157887139Y-140365918D02*
X156320309Y-141326073D01*
X115886042Y-84613028D02*
X117247552Y-83450189D01*
X123020309Y-82748781D02*
X124469608Y-81961875D01*
X132857086Y-147363200D02*
X130911247Y-147002560D01*
X106314108Y-77572380D02*
X108057214Y-75918234D01*
X134442831Y-68855375D02*
X136603600Y-68685318D01*
X148500576Y-65151273D02*
X150883040Y-65723252D01*
X178316039Y-113001085D02*
X178153376Y-115067908D01*
X185313934Y-106036649D02*
X185506171Y-108479258D01*
X140183380Y-137891578D02*
X138770309Y-137928581D01*
X112307415Y-96545063D02*
X113049355Y-95178581D01*
X121931412Y-147849363D02*
X119975102Y-146916251D01*
X108349245Y-123572911D02*
X107682081Y-121962234D01*
X119197060Y-136968847D02*
X117813940Y-135907542D01*
X129870620Y-82638153D02*
X131316321Y-82209917D01*
X158593901Y-86448483D02*
X159847923Y-87519519D01*
X105197603Y-137215222D02*
X103820775Y-135420904D01*
X183708638Y-113283699D02*
X183523794Y-115632362D01*
X114965006Y-142793769D02*
X113282833Y-141502992D01*
X166048132Y-133017727D02*
X164854692Y-134415065D01*
X125698890Y-69798890D02*
X127822263Y-69169919D01*
X108522303Y-98417459D02*
X109171436Y-96850314D01*
X168178092Y-122217171D02*
X167546991Y-123740785D01*
X180781428Y-94802023D02*
X181567852Y-97022816D01*
X123611345Y-149519033D02*
X121565349Y-148671554D01*
X132015123Y-135239278D02*
X130704955Y-134851189D01*
X153412828Y-78040945D02*
X155113967Y-78852346D01*
X117787387Y-127020216D02*
X116926870Y-125898769D01*
X174059649Y-124474889D02*
X173302327Y-126303226D01*
X159847840Y-78472030D02*
X161517598Y-79619623D01*
X110202748Y-99062522D02*
X110815818Y-97582440D01*
X104532274Y-121153193D02*
X103996979Y-119346067D01*
X115732078Y-145504346D02*
X113906993Y-144250000D01*
X184135705Y-96188470D02*
X184844971Y-98582913D01*
X121313087Y-134056386D02*
X120079493Y-133109816D01*
X167412540Y-107918161D02*
X167530840Y-109421305D01*
X145758423Y-84848584D02*
X147113768Y-85250055D01*
X113906993Y-75807162D02*
X115732078Y-74552816D01*
X114616597Y-94342977D02*
X115470620Y-93100366D01*
X163691396Y-141703561D02*
X162046605Y-142965654D01*
X150381431Y-80680575D02*
X151948576Y-81329708D01*
X150058899Y-140336364D02*
X148504344Y-140886861D01*
X181271320Y-89273234D02*
X182346427Y-91527243D01*
X108212245Y-108427101D02*
X108337939Y-106830010D01*
X143191863Y-152996857D02*
X140984120Y-153170610D01*
X113314465Y-135484425D02*
X112017095Y-134117283D01*
X129685761Y-76124584D02*
X131472609Y-75695600D01*
X114742504Y-127485803D02*
X113861793Y-126204360D01*
X111023148Y-112944925D02*
X110908545Y-111488754D01*
X134066528Y-154782066D02*
X131730758Y-154474556D01*
X102676663Y-102356640D02*
X103127646Y-100478158D01*
X115361247Y-88950967D02*
X116496445Y-87754717D01*
X147391883Y-84394104D02*
X148768775Y-84881687D01*
X110908545Y-111488754D02*
X110870309Y-110028581D01*
X164162632Y-145878115D02*
X162298715Y-147159150D01*
X109863867Y-142132437D02*
X108223296Y-140575594D01*
X141874804Y-140465881D02*
X140324687Y-140587878D01*
X120467160Y-68919035D02*
X122643751Y-68017462D01*
X153888193Y-81258064D02*
X155420309Y-82089935D01*
X109394192Y-133816892D02*
X108189467Y-132246864D01*
X155243143Y-73929990D02*
X157156924Y-74842817D01*
X181271320Y-132583928D02*
X180079721Y-134778581D01*
X138770309Y-69528581D02*
X140937018Y-69585318D01*
X167546991Y-98116377D02*
X168178092Y-99639991D01*
X156227531Y-86900776D02*
X157461125Y-87847346D01*
X166861183Y-85635444D02*
X168146426Y-87140270D01*
X112272737Y-139457116D02*
X110768880Y-138030010D01*
X104288357Y-127598013D02*
X103416100Y-125769289D01*
X113906993Y-144250000D02*
X112150056Y-142901855D01*
X154970309Y-82869358D02*
X156416614Y-83755655D01*
X132782452Y-138199232D02*
X131316321Y-137847245D01*
X172674306Y-120013129D02*
X172152393Y-121775078D01*
X172499302Y-144657574D02*
X170687839Y-146376589D01*
X116698908Y-129901760D02*
X115689074Y-128719397D01*
X148226229Y-140030910D02*
X146690172Y-140485911D01*
X161720309Y-150679147D02*
X159608473Y-151825780D01*
X143979577Y-78038559D02*
X145693768Y-78356266D01*
X105060482Y-95019999D02*
X105892168Y-93276332D01*
X107956078Y-100016430D02*
X108522303Y-98417459D01*
X174623761Y-90228581D02*
X175657979Y-92133374D01*
X116388505Y-128153008D02*
X115470620Y-126956796D01*
X116880978Y-95813484D02*
X117654938Y-94687366D01*
X110599658Y-116016438D02*
X110324885Y-114533894D01*
X105897035Y-83408328D02*
X107335283Y-81724356D01*
X94670309Y-110028581D02*
X94730747Y-107720565D01*
X121212270Y-131710953D02*
X120101565Y-130762322D01*
X152961680Y-147898366D02*
X151007382Y-148590419D01*
X169947224Y-92928581D02*
X170846544Y-94584923D01*
X146232233Y-158041315D02*
X143756317Y-158367275D01*
X159847923Y-134337643D02*
X158593901Y-135408679D01*
X167872638Y-101472661D02*
X168327639Y-103008718D01*
X113240623Y-115455083D02*
X112991609Y-114111526D01*
X168198844Y-137426153D02*
X166771738Y-138930010D01*
X99396569Y-122821885D02*
X98780980Y-120743689D01*
X100252520Y-97513393D02*
X100960302Y-95514679D01*
X122570309Y-81969358D02*
X124061017Y-81159970D01*
X133878377Y-63484956D02*
X136320986Y-63292719D01*
X171125906Y-112624266D02*
X170992818Y-114315303D01*
X92993001Y-119758848D02*
X92546495Y-117349714D01*
X147003612Y-72193936D02*
X149019543Y-72677918D01*
X147388983Y-143093911D02*
X145693768Y-143500896D01*
X167894921Y-132088850D02*
X166747564Y-133584115D01*
X155219398Y-153779923D02*
X152954189Y-154582075D01*
X116552026Y-140609423D02*
X114981998Y-139404698D01*
X95213253Y-116927341D02*
X94911893Y-114638286D01*
X123429094Y-131143952D02*
X122345025Y-130312117D01*
X169882492Y-115856267D02*
X169581958Y-117477799D01*
X162046605Y-78891508D02*
X163691396Y-80153601D01*
X110009778Y-111535857D02*
X109970309Y-110028581D01*
X116023020Y-78719623D02*
X117692778Y-77572030D01*
X163949838Y-90538600D02*
X164982460Y-91884339D01*
X132595332Y-80977597D02*
X134124205Y-80694237D01*
X122426651Y-77952346D02*
X124127790Y-77140945D01*
X159504050Y-129597325D02*
X158498588Y-130656860D01*
X174441309Y-139814387D02*
X172880656Y-141641676D01*
X156748333Y-75644723D02*
X158570309Y-76633975D01*
X112991609Y-114111526D02*
X112813253Y-112756777D01*
X119975102Y-73140911D02*
X121931412Y-72207799D01*
X164649270Y-131884950D02*
X163517032Y-133210630D01*
X109901698Y-95319289D02*
X110711086Y-93828581D01*
X176962029Y-88878581D02*
X178063697Y-90907600D01*
X101030133Y-85519824D02*
X102364544Y-83578245D01*
X184105204Y-118108923D02*
X183667284Y-120471728D01*
X145105905Y-70927203D02*
X147190732Y-71313603D01*
X102819646Y-108144487D02*
X102967521Y-106265556D01*
X168728589Y-120662616D02*
X168178092Y-122217171D01*
X144261159Y-145596442D02*
X142439258Y-145836300D01*
X121565349Y-71385608D02*
X123611345Y-70538129D01*
X178771687Y-117264177D02*
X178385287Y-119349004D01*
X122120309Y-138867227D02*
X120633829Y-137956311D01*
X111807335Y-111441651D02*
X111770333Y-110028581D01*
X162069998Y-127856796D02*
X161152113Y-129053008D01*
X130148735Y-136563058D02*
X128771843Y-136075475D01*
X172211826Y-141039458D02*
X170590114Y-142748386D01*
X158120309Y-144443764D02*
X156339741Y-145410533D01*
X166588973Y-103474593D02*
X166940960Y-104940724D01*
X174856073Y-129315196D02*
X173844338Y-131178581D01*
X124820309Y-134190690D02*
X123574880Y-133427490D01*
X166771738Y-138930010D02*
X165267881Y-140357116D01*
X165870099Y-80831216D02*
X167408134Y-82290756D01*
X116720309Y-71836861D02*
X118749328Y-70735193D01*
X118340737Y-69933287D02*
X120467160Y-68919035D01*
X137263033Y-81268050D02*
X138770309Y-81228581D01*
X138770309Y-145128581D02*
X136933317Y-145080478D01*
X113947701Y-101963227D02*
X114403828Y-100675165D01*
X160017064Y-152627686D02*
X157805584Y-153682508D01*
X145132407Y-140859898D02*
X143557204Y-141151844D01*
X168044530Y-140202802D02*
X166472316Y-141694777D01*
X128754012Y-147409910D02*
X126811351Y-146834468D01*
X173302327Y-126303226D02*
X172450356Y-128089422D01*
X162316965Y-87381925D02*
X163517032Y-88646532D01*
X125698890Y-150258272D02*
X123611345Y-149519033D01*
X162932418Y-96978581D02*
X163629391Y-98262246D01*
X140324687Y-140587878D02*
X138770309Y-140628581D01*
X175000878Y-87400175D02*
X176182606Y-89328581D01*
X115370309Y-150558570D02*
X113281202Y-149278364D01*
X92870309Y-110028581D02*
X92933213Y-107626361D01*
X116926870Y-125898769D02*
X116126224Y-124733822D01*
X164433628Y-127594535D02*
X163526229Y-128914810D01*
X124901469Y-73899018D02*
X126811351Y-73222694D01*
X169317322Y-80381568D02*
X170874165Y-82022139D01*
X179855951Y-124278115D02*
X179100983Y-126410076D01*
X177504954Y-119161884D02*
X177020972Y-121177815D01*
X132293922Y-150918878D02*
X130162765Y-150523892D01*
X149736368Y-139496142D02*
X148226229Y-140030910D01*
X161318365Y-76207619D02*
X163104618Y-77435277D01*
X96016382Y-129063856D02*
X95078745Y-126800201D01*
X160828190Y-76962423D02*
X162575612Y-78163393D01*
X172782958Y-107353708D02*
X172923439Y-109138691D01*
X119374204Y-127492913D02*
X118486773Y-126453865D01*
X121199286Y-149493745D02*
X119157919Y-148520063D01*
X106034549Y-91128581D02*
X107068562Y-89441225D01*
X169947224Y-128928581D02*
X168962449Y-130535586D01*
X145506648Y-142620563D02*
X143838786Y-142929683D01*
X168680926Y-81017964D02*
X170205335Y-82624356D01*
X143275622Y-82483157D02*
X144758166Y-82757930D01*
X115371400Y-125224010D02*
X114608200Y-123978581D01*
X129601403Y-66892272D02*
X131871549Y-66471525D01*
X119726067Y-83816430D02*
X121124004Y-82855655D01*
X126103974Y-85169499D02*
X127422357Y-84540663D01*
X168440826Y-95810697D02*
X169191373Y-97384251D01*
X95634000Y-119197487D02*
X95213253Y-116927341D01*
X164649270Y-89972212D02*
X165710575Y-91355332D01*
X111918242Y-107206315D02*
X112102747Y-105804854D01*
X179943515Y-115256059D02*
X179660606Y-117404968D01*
X174054167Y-92950557D02*
X174946709Y-94821810D01*
X129592504Y-81782202D02*
X131083383Y-81340584D01*
X162316965Y-134475237D02*
X161052358Y-135675304D01*
X173491271Y-133476637D02*
X172263613Y-135262890D01*
X130349886Y-149643559D02*
X128288138Y-149148577D01*
X168623036Y-89239305D02*
X169717253Y-90831401D01*
X163279066Y-148668757D02*
X161270309Y-149899724D01*
X146457235Y-82240584D02*
X147948114Y-82682202D01*
X95972766Y-123934346D02*
X95303647Y-121675438D01*
X171804972Y-119780192D02*
X171296442Y-121496962D01*
X169328373Y-109327101D02*
X169370309Y-110928581D01*
X126533236Y-72366743D02*
X128521075Y-71777918D01*
X172263613Y-135262890D02*
X170944152Y-136982445D01*
X124878200Y-82763781D02*
X126324168Y-82074090D01*
X170079267Y-88181292D02*
X171226860Y-89851050D01*
X95303647Y-98381724D02*
X95972766Y-96122816D01*
X164448835Y-102585122D02*
X164850306Y-103940467D01*
X135289511Y-76911002D02*
X137027522Y-76774217D01*
X143416413Y-140262925D02*
X141874804Y-140465881D01*
X95116815Y-95844701D02*
X95918967Y-93579492D01*
X102593909Y-126135352D02*
X101800524Y-124219952D01*
X184994123Y-118249714D02*
X184547617Y-120658848D01*
X141031222Y-67787785D02*
X143285939Y-67965235D01*
X153606742Y-72278351D02*
X155609206Y-73107799D01*
X123574880Y-133427490D02*
X122371100Y-132600155D01*
X120792285Y-145312439D02*
X118970309Y-144323187D01*
X175904189Y-83949238D02*
X177265288Y-85929649D01*
X170205335Y-82624356D02*
X171643583Y-84308328D01*
X110324885Y-114533894D02*
X110128078Y-113039001D01*
X154455913Y-86774869D02*
X155698524Y-87628892D01*
X94730747Y-107720565D02*
X94911893Y-105418876D01*
X103092660Y-135949911D02*
X101784937Y-134047162D01*
X168429606Y-112482959D02*
X168307609Y-114033076D01*
X104548890Y-85165265D02*
X105897035Y-83408328D01*
X119420309Y-76513398D02*
X121200877Y-75546629D01*
X100519646Y-99779347D02*
X101108471Y-97791508D01*
X157565516Y-147816251D02*
X155609206Y-148749363D01*
X167656115Y-146599581D02*
X165749652Y-148062461D01*
X133279459Y-144696442D02*
X131472609Y-144361562D01*
X124308314Y-65519136D02*
X126657578Y-64823252D01*
X171542996Y-81419921D02*
X173042446Y-83175552D01*
X92034447Y-107579258D02*
X92226684Y-105136649D01*
X103416100Y-125769289D02*
X102640746Y-123897421D01*
X131782201Y-136108555D02*
X130426858Y-135707084D01*
X118705417Y-128095091D02*
X117787387Y-127020216D01*
X168845858Y-135283280D02*
X167530014Y-136823935D01*
X147752094Y-68672605D02*
X149951292Y-69200585D01*
X144824323Y-72705042D02*
X146816491Y-73074269D01*
X164185862Y-133812848D02*
X162953361Y-135111633D01*
X120383694Y-73942817D02*
X122297475Y-73029990D01*
X166135341Y-138293613D02*
X164665663Y-139688286D01*
X106414712Y-111724266D02*
X106370309Y-110028581D01*
X111918242Y-112850847D02*
X111807335Y-111441651D01*
X123288814Y-150359255D02*
X121199286Y-149493745D01*
X158498588Y-91200302D02*
X159504050Y-92259837D01*
X108838992Y-103666483D02*
X109212979Y-102108718D01*
X143557204Y-141151844D02*
X141968880Y-141360951D01*
X171862906Y-77835984D02*
X173549487Y-79613269D01*
X116712428Y-76062423D02*
X118520309Y-74954552D01*
X156770309Y-142105496D02*
X155113967Y-143004816D01*
X175657979Y-129723788D02*
X174623761Y-131628581D01*
X129227162Y-65131606D02*
X131589967Y-64693686D01*
X109645697Y-88868312D02*
X110793054Y-87373047D01*
X169581958Y-104379363D02*
X169882492Y-106000895D01*
X140183380Y-83965584D02*
X141592578Y-84076490D01*
X155698524Y-87628892D02*
X156894736Y-88546777D01*
X174863955Y-118600522D02*
X174412972Y-120479004D01*
X93770309Y-110028581D02*
X93831980Y-107673463D01*
X180702046Y-129597793D02*
X179667508Y-131766745D01*
X164185862Y-88044314D02*
X165348701Y-89405824D01*
X157862192Y-130020464D02*
X156836835Y-130993491D01*
X111348265Y-134719500D02*
X110093623Y-133250503D01*
X150058899Y-81520798D02*
X151582513Y-82151899D01*
X140795711Y-72281618D02*
X142815561Y-72440584D01*
X178774895Y-136907863D02*
X177360420Y-138965938D01*
X104498172Y-82275552D02*
X105997622Y-80519921D01*
X137168829Y-79470517D02*
X138770309Y-79428581D01*
X106370309Y-110028581D02*
X106414712Y-108332896D01*
X181026285Y-101946796D02*
X181438445Y-104170612D01*
X103991131Y-141343893D02*
X102399878Y-139480775D01*
X157285544Y-136412616D02*
X155926439Y-137346704D01*
X156894736Y-133310385D02*
X155698524Y-134228270D01*
X147752094Y-153184557D02*
X145528278Y-153596717D01*
X113377986Y-75079047D02*
X115241903Y-73798012D01*
X118405634Y-130393256D02*
X117367738Y-129299542D01*
X167166806Y-131559843D02*
X166048132Y-133017727D01*
X143285939Y-153891927D02*
X141031222Y-154069377D01*
X171226860Y-132006112D02*
X170079267Y-133675870D01*
X164257785Y-142402992D02*
X162575612Y-143693769D01*
X114261552Y-72288405D02*
X116270309Y-71057438D01*
X172923439Y-109138691D02*
X172970309Y-110928581D01*
X116496445Y-132302445D02*
X115361247Y-131106195D01*
X157565516Y-74040911D02*
X159470309Y-75075129D01*
X174770309Y-110928581D02*
X174720972Y-112812675D01*
X163104618Y-144421885D02*
X161318365Y-145649543D01*
X133156698Y-83618619D02*
X134546582Y-83361019D01*
X123020309Y-137308381D02*
X121614179Y-136446704D01*
X150703962Y-142016809D02*
X149060575Y-142598763D01*
X155975269Y-72285608D02*
X157974107Y-73239005D01*
X96702033Y-105607027D02*
X96991092Y-103411403D01*
X114681607Y-83275367D02*
X116114775Y-82051326D01*
X166438690Y-90826325D02*
X167452842Y-92301926D01*
X97599412Y-94224554D02*
X98482954Y-92091495D01*
X112017095Y-85939879D02*
X113314465Y-84572737D01*
X172222957Y-118039161D02*
X171804972Y-119780192D01*
X156756538Y-135684501D02*
X155436263Y-136591900D01*
X168388378Y-128028581D02*
X167452842Y-129555236D01*
X153232304Y-155438026D02*
X150883040Y-156133910D01*
X92226684Y-105136649D02*
X92546495Y-102707448D01*
X167821293Y-104753604D02*
X168104653Y-106282477D01*
X106005121Y-133833884D02*
X104804151Y-132086462D01*
X136509396Y-153169377D02*
X134254679Y-152991927D01*
X174856073Y-92541966D02*
X175768900Y-94455747D01*
X168307609Y-107824086D02*
X168429606Y-109374203D01*
X173103290Y-118226281D02*
X172674306Y-120013129D01*
X163436036Y-99946692D02*
X163976981Y-101252646D01*
X136770309Y-136654381D02*
X136597509Y-136654381D01*
X103099309Y-138914387D02*
X101636429Y-137007924D01*
X119163304Y-79836441D02*
X120770309Y-78851666D01*
X121998689Y-153720145D02*
X119735034Y-152782508D01*
X119042030Y-90300302D02*
X120101565Y-89294840D01*
X173064915Y-130728581D02*
X171981663Y-132496287D01*
X172480136Y-95919999D02*
X173219427Y-97704804D01*
X98780980Y-120743689D02*
X98274998Y-118636125D01*
X107823365Y-130125761D02*
X106813972Y-128478581D01*
X186404938Y-113425006D02*
X186209003Y-115914589D01*
X140701506Y-147778011D02*
X138770309Y-147828581D01*
X100278827Y-129640971D02*
X99305145Y-127599604D01*
X135759889Y-81386350D02*
X137263033Y-81268050D01*
X118139047Y-81632084D02*
X119653479Y-80591244D01*
X154520309Y-138208381D02*
X153071010Y-138995287D01*
X103991131Y-78713269D02*
X105677712Y-76935984D01*
X166837015Y-125229282D02*
X166050109Y-126678581D01*
X133983414Y-140251844D02*
X132408211Y-139959898D01*
X117787387Y-93036946D02*
X118705417Y-91962071D01*
X113109321Y-96953655D02*
X113828777Y-95628581D01*
X131285488Y-145241895D02*
X129452823Y-144801911D01*
X164254344Y-92413346D02*
X165188432Y-93772451D01*
X153412828Y-143816217D02*
X151671555Y-144537476D01*
X118673129Y-140975525D02*
X117081033Y-139881308D01*
X130537006Y-71293936D02*
X132575504Y-70916123D01*
X92933213Y-112430801D02*
X92870309Y-110028581D01*
X172736467Y-132986462D02*
X171535497Y-134733884D01*
X127367582Y-74934596D02*
X129219886Y-74385918D01*
X179000000Y-124000000D02*
X178260761Y-126087545D01*
X176591091Y-127767478D02*
X175657979Y-129723788D01*
X99305145Y-127599604D02*
X98439635Y-125510076D01*
X141976451Y-159246581D02*
X142761742Y-158461290D01*
X138770309Y-72228581D02*
X140795711Y-72281618D01*
X113282833Y-141502992D02*
X111670519Y-140125946D01*
X177420539Y-125765014D02*
X176591091Y-127767478D01*
X167570309Y-110928581D02*
X167530840Y-112435857D01*
X182327365Y-117827341D02*
X181906618Y-120097487D01*
X141780729Y-82286350D02*
X143275622Y-82483157D01*
X151671555Y-77319686D02*
X153412828Y-78040945D01*
X105652730Y-113509379D02*
X105515945Y-111771368D01*
X100578589Y-87978581D02*
X101784937Y-86010000D01*
X164258227Y-99580629D02*
X164817203Y-100930115D01*
X172880656Y-141641676D02*
X171226510Y-143384782D01*
X115886042Y-135444134D02*
X114587257Y-134211633D01*
X174573097Y-114691606D02*
X174327089Y-116560222D01*
X179855951Y-97579047D02*
X180498305Y-99747598D01*
X165956950Y-77355875D02*
X167676751Y-78824725D01*
X112690335Y-103040473D02*
X113091806Y-101685130D01*
X135477662Y-78701141D02*
X137121726Y-78571751D01*
X169242732Y-126455056D02*
X168388378Y-128028581D01*
X162859011Y-84175367D02*
X164226153Y-85472737D01*
X111490509Y-125778581D02*
X110703603Y-124329282D01*
X109884503Y-145699581D02*
X108057214Y-144138928D01*
X179941206Y-126732608D02*
X179057664Y-128865667D01*
X107078327Y-103292242D02*
X107474312Y-101642844D01*
X104757660Y-113603454D02*
X104617179Y-111818471D01*
X153475563Y-133572686D02*
X152270309Y-134311267D01*
X108189467Y-87810298D02*
X109394192Y-86240270D01*
X122835242Y-141302910D02*
X121220309Y-140426073D01*
X168962449Y-91321576D02*
X169947224Y-92928581D01*
X133420250Y-143807522D02*
X131659729Y-143481229D01*
X130384572Y-141324578D02*
X128758158Y-140842812D01*
X134770309Y-135820281D02*
X134687364Y-135807281D01*
X101388980Y-100012284D02*
X101964422Y-98069623D01*
X121842094Y-86728892D02*
X123084705Y-85874869D01*
X109341774Y-83531009D02*
X110768880Y-82027152D01*
X143474090Y-155682066D02*
X141125427Y-155866910D01*
X135195436Y-144041230D02*
X133420250Y-143807522D01*
X172070309Y-110928581D02*
X172024673Y-112671368D01*
X148504344Y-140886861D02*
X146923109Y-141355245D01*
X108349245Y-96484251D02*
X109099792Y-94910697D01*
X183302095Y-93834430D02*
X184135705Y-96188470D01*
X157805584Y-68174654D02*
X160017064Y-69229476D01*
X109233009Y-106924086D02*
X109435965Y-105382477D01*
X122345025Y-130312117D02*
X121305977Y-129424686D01*
X103213529Y-115660222D02*
X102967521Y-113791606D01*
X99520526Y-84539474D02*
X100908314Y-82520231D01*
X157396964Y-82246048D02*
X158872565Y-83260200D01*
X178020092Y-85439474D02*
X179300298Y-87528581D01*
X95634000Y-100859675D02*
X96172980Y-98614661D01*
X184547617Y-101198314D02*
X184994123Y-103607448D01*
X100123346Y-108003179D02*
X100282312Y-105983329D01*
X99650313Y-99546410D02*
X100252520Y-97513393D01*
X163461228Y-138350625D02*
X161992231Y-139605267D01*
X145758423Y-137008578D02*
X144383925Y-137338566D01*
X135101360Y-75120862D02*
X136933317Y-74976684D01*
X176432147Y-123165654D02*
X175740094Y-125119952D01*
X138770309Y-146928581D02*
X136839112Y-146878011D01*
X162848201Y-89248749D02*
X163949838Y-90538600D01*
X169191373Y-124472911D02*
X168440826Y-126046465D01*
X162152995Y-124428581D02*
X161414414Y-125633835D01*
X169953718Y-79745172D02*
X171542996Y-81419921D01*
X120703799Y-89963689D02*
X121778674Y-89045659D01*
X175176074Y-84478245D02*
X176510485Y-86419824D01*
X132716295Y-71805042D02*
X134725057Y-71540584D01*
X168881186Y-77487064D02*
X170590114Y-79108776D01*
X141125427Y-65990252D02*
X143474090Y-66175096D01*
X164063446Y-139019455D02*
X162558620Y-140304698D01*
X145693768Y-78356266D02*
X147388983Y-78763251D01*
X173438170Y-105437731D02*
X173678028Y-107259632D01*
X103127646Y-100478158D02*
X103676324Y-98625854D01*
X151845235Y-136589569D02*
X150484324Y-137238690D01*
X127589326Y-151756577D02*
X125420775Y-151114223D01*
X114587257Y-85845529D02*
X115886042Y-84613028D01*
X170726646Y-92478581D02*
X171648450Y-94176332D01*
X102967521Y-106265556D02*
X103213529Y-104396940D01*
X123652425Y-139699098D02*
X122120309Y-138867227D01*
X115548387Y-138705267D02*
X114079390Y-137450625D01*
X122371100Y-87457007D02*
X123574880Y-86629672D01*
X117081033Y-139881308D02*
X115548387Y-138705267D01*
X96759190Y-93902023D02*
X97660763Y-91725432D01*
X125720292Y-132631874D02*
X124555212Y-131917912D01*
X112685926Y-133515065D02*
X111492486Y-132117727D01*
X161414414Y-96223327D02*
X162152995Y-97428581D01*
X153510420Y-65563185D02*
X155864460Y-66396795D01*
X170687839Y-146376589D02*
X168788892Y-147998443D01*
X162550975Y-130185785D02*
X161510541Y-131403978D01*
X176624621Y-118974763D02*
X176151638Y-120944878D01*
X170771411Y-115997058D02*
X170462291Y-117664920D01*
X169858537Y-122862234D02*
X169191373Y-124472911D01*
X113849222Y-140803561D02*
X112272737Y-139457116D01*
X152119843Y-152014223D02*
X149951292Y-152656577D01*
X147854857Y-144832578D02*
X146068009Y-145261562D01*
X135289511Y-143146160D02*
X133561041Y-142918603D01*
X104321191Y-123252358D02*
X103676324Y-121431308D01*
X113947701Y-118093935D02*
X113559612Y-116783767D01*
X136886215Y-74077918D02*
X138770309Y-74028581D01*
X156707395Y-70641226D02*
X158791290Y-71635193D01*
X147377853Y-151423892D02*
X145246696Y-151818878D01*
X170698760Y-98672397D02*
X171296442Y-100360200D01*
X107295898Y-135516057D02*
X106005121Y-133833884D01*
X103676324Y-121431308D02*
X103127646Y-119579004D01*
X114608200Y-123978581D02*
X113911227Y-122694916D01*
X111770333Y-110028581D02*
X111807335Y-108615511D01*
X112848979Y-145706230D02*
X111017280Y-144300718D01*
X138770309Y-140628581D02*
X137168829Y-140586645D01*
X156906789Y-138856311D02*
X155420309Y-139767227D01*
X111405277Y-82663549D02*
X112874955Y-81268876D01*
X110128078Y-107018161D02*
X110324885Y-105523268D01*
X172674306Y-101844033D02*
X173103290Y-103630881D01*
X111597383Y-127674886D02*
X110711086Y-126228581D01*
X108372817Y-127578581D02*
X107495980Y-125963648D01*
X170044638Y-94993514D02*
X170835755Y-96652125D01*
X170846544Y-127272239D02*
X169947224Y-128928581D01*
X140560199Y-76775451D02*
X142345182Y-76915932D01*
X164824173Y-78754738D02*
X166472316Y-80162385D01*
X163250407Y-130752173D02*
X162179371Y-132006195D01*
X176459885Y-91724783D02*
X177413282Y-93723621D01*
X121124004Y-137201507D02*
X119726067Y-136240732D01*
X141172529Y-156765677D02*
X138770309Y-156828581D01*
X172480136Y-125937163D02*
X171648450Y-127680830D01*
X103718412Y-108191589D02*
X103862590Y-106359632D01*
X117692778Y-77572030D02*
X119420309Y-76513398D01*
X104570309Y-110028581D02*
X104617179Y-108238691D01*
X108337939Y-106830010D02*
X108547046Y-105241686D01*
X116126224Y-124733822D02*
X115387644Y-123528569D01*
X128126781Y-82301242D02*
X129592504Y-81782202D01*
X145950651Y-65593686D02*
X148313456Y-66031606D01*
X102820373Y-121709423D02*
X102258313Y-119811941D01*
X175000878Y-134456987D02*
X173719843Y-136320904D01*
X129452823Y-144801911D02*
X127645697Y-144266616D01*
X159357665Y-142630328D02*
X157670309Y-143664341D01*
X150650103Y-155264576D02*
X148313456Y-155825556D01*
X177741452Y-88428581D02*
X178865603Y-90499009D01*
X157814551Y-84716430D02*
X159160290Y-85749052D01*
X166160737Y-119828270D02*
X165657425Y-121249578D01*
X108189467Y-132246864D02*
X107068562Y-130615937D01*
X104049347Y-132576637D02*
X102916857Y-130728581D01*
X174124518Y-126669289D02*
X173252261Y-128498013D01*
X168701626Y-104566483D02*
X168993572Y-106141686D01*
X117132841Y-131666049D02*
X116030077Y-130503978D01*
X161152113Y-92804154D02*
X162069998Y-94000366D01*
X162152995Y-97428581D02*
X162827485Y-98670838D01*
X132408211Y-80097264D02*
X133983414Y-79805318D01*
X105892168Y-93276332D02*
X106813972Y-91578581D01*
X144261159Y-76260720D02*
X146068009Y-76595600D01*
X176962029Y-132978581D02*
X175755681Y-134947162D01*
X118070309Y-145882033D02*
X116222253Y-144749543D01*
X155436263Y-136591900D02*
X154070309Y-137428958D01*
X120833223Y-69741226D02*
X122966282Y-68857684D01*
X113911227Y-97362246D02*
X114608200Y-96078581D01*
X155761960Y-131911522D02*
X154640511Y-132772040D01*
X111101928Y-130130837D02*
X110087776Y-128655236D01*
X121842094Y-133328270D02*
X120645882Y-132410385D01*
X122643751Y-68017462D02*
X124864544Y-67231038D01*
X112191917Y-88505824D02*
X113354756Y-87144314D01*
X112891348Y-130984950D02*
X111830043Y-129601830D01*
X152676074Y-153726124D02*
X150417166Y-154395243D01*
X183302095Y-128022732D02*
X182346427Y-130329919D01*
X146690172Y-81371251D02*
X148226229Y-81826252D01*
X114742504Y-92571359D02*
X115689074Y-91337765D01*
X111883193Y-120349578D02*
X111379881Y-118928270D01*
X101022113Y-108050282D02*
X101177381Y-106077405D01*
X158027513Y-134709247D02*
X156756538Y-135684501D01*
X158643488Y-88857180D02*
X159771380Y-89927510D01*
X126890515Y-154364576D02*
X124586429Y-153682075D01*
X157439053Y-131662322D02*
X156328348Y-132610953D01*
X115820309Y-149779147D02*
X113771377Y-148523560D01*
X163629391Y-98262246D02*
X164258227Y-99580629D01*
X165956950Y-144501287D02*
X164162632Y-145878115D01*
X142251107Y-77811002D02*
X143979577Y-78038559D01*
X141125427Y-155866910D02*
X138770309Y-155928581D01*
X112678069Y-83936341D02*
X114079390Y-82606537D01*
X186404938Y-108432156D02*
X186470309Y-110928581D01*
X168728589Y-101194546D02*
X169196973Y-102775781D01*
X162069998Y-94000366D02*
X162924021Y-95242977D01*
X146232233Y-63815847D02*
X148687697Y-64270940D01*
X124469608Y-81961875D02*
X125958105Y-81251899D01*
X105677712Y-76935984D02*
X107454997Y-75249403D01*
X142345182Y-144941230D02*
X140560199Y-145081711D01*
X160338015Y-77717227D02*
X162046605Y-78891508D01*
X126690231Y-137160881D02*
X125286791Y-136491475D01*
X113828777Y-124428581D02*
X113109321Y-123103507D01*
X104991368Y-115378640D02*
X104757660Y-113603454D01*
X161510541Y-90453184D02*
X162550975Y-91671377D01*
X158382699Y-72437099D02*
X160370309Y-73516284D01*
X128986949Y-73516585D02*
X130911247Y-73054602D01*
X114261552Y-147768757D02*
X112319973Y-146434346D01*
X151349024Y-143697254D02*
X149616806Y-144310665D01*
X110599658Y-104040724D02*
X110951645Y-102574593D01*
X133279459Y-75360720D02*
X135101360Y-75120862D01*
X180145953Y-102133916D02*
X180549526Y-104311403D01*
X184670309Y-110928581D02*
X184607405Y-113330801D01*
X96528280Y-107814770D02*
X96702033Y-105607027D01*
X151028052Y-134985757D02*
X149752198Y-135594308D01*
X100908314Y-137536931D02*
X99520526Y-135517688D01*
X171542996Y-140437241D02*
X169953718Y-142111990D01*
X98482954Y-127965667D02*
X97599412Y-125832608D01*
X125270321Y-133411246D02*
X124065068Y-132672666D01*
X104757660Y-106453708D02*
X104991368Y-104678522D01*
X154144954Y-145460599D02*
X152316617Y-146217921D01*
X127422357Y-135516499D02*
X126103974Y-134887663D01*
X105882673Y-124671100D02*
X105161414Y-122929827D01*
X138770309Y-146028581D02*
X136886215Y-145979244D01*
X179048446Y-115161984D02*
X178771687Y-117264177D01*
X110450891Y-75057013D02*
X112319973Y-73622816D01*
X135195436Y-76015932D02*
X136980419Y-75875451D01*
X108004113Y-82326574D02*
X109496088Y-80754360D01*
X113563660Y-100352655D02*
X114104604Y-99046701D01*
X159470309Y-75075129D02*
X161318365Y-76207619D01*
X175744288Y-118787643D02*
X175282305Y-120711941D01*
X138770309Y-73128581D02*
X140748608Y-73180385D01*
X177413282Y-93723621D02*
X178260761Y-95769617D01*
X141219632Y-157664443D02*
X140730090Y-157687529D01*
X137310136Y-82166817D02*
X138770309Y-82128581D01*
X124555212Y-131917912D02*
X123429094Y-131143952D01*
X109884503Y-74357581D02*
X111790966Y-72894701D01*
X147669998Y-138319009D02*
X146224297Y-138747245D01*
X154574336Y-69757684D02*
X156707395Y-70641226D01*
X106414712Y-108332896D02*
X106547800Y-106641859D01*
X140748608Y-148676777D02*
X138770309Y-148728581D01*
X158593901Y-135408679D02*
X157285544Y-136412616D01*
X163691396Y-80153601D02*
X165267881Y-81500046D01*
X163976981Y-120604516D02*
X163436036Y-121910470D01*
X129314389Y-139130910D02*
X127804250Y-138596142D01*
X111492486Y-132117727D02*
X110373812Y-130659843D01*
X142533334Y-75125793D02*
X144401950Y-75371801D01*
X101636429Y-137007924D02*
X100275330Y-135027513D01*
X138770309Y-71328581D02*
X140842813Y-71382851D01*
X153606742Y-149578811D02*
X151563613Y-150302321D01*
X185570309Y-110928581D02*
X185506171Y-113377904D01*
X175740094Y-96737210D02*
X176432147Y-98691508D01*
X159134984Y-90563906D02*
X160172880Y-91657620D01*
D28*
X127646689Y-149641712D02*
X126310169Y-149245817D01*
D27*
X172880656Y-80215486D02*
X174441309Y-82042775D01*
X102916857Y-130728581D02*
X101882639Y-128823788D01*
X108672944Y-82928791D02*
X110132484Y-81390756D01*
X149019543Y-149179244D02*
X147003612Y-149663226D01*
X101030133Y-134537338D02*
X99799166Y-132528581D01*
X141686653Y-83181420D02*
X143134831Y-83372076D01*
X95213253Y-103129821D02*
X95634000Y-100859675D01*
X97597103Y-114356059D02*
X97427046Y-112195290D01*
X143003712Y-151206718D02*
X140889915Y-151373077D01*
X123429094Y-88913210D02*
X124555212Y-88139250D01*
X93435414Y-117208923D02*
X93121754Y-114826437D01*
X165180294Y-105314965D02*
X165437894Y-106704850D01*
X164259416Y-71678798D02*
X166278659Y-73066586D01*
X174623761Y-131628581D02*
X173491271Y-133476637D01*
X171342624Y-117852040D02*
X170935639Y-119547255D01*
X102820373Y-98347739D02*
X103480969Y-96482273D01*
X127645697Y-75790546D02*
X129452823Y-75255251D01*
X153620309Y-85207627D02*
X154946088Y-86020065D01*
X152662418Y-83663781D02*
X154070309Y-84428204D01*
X131782201Y-83948607D02*
X133156698Y-83618619D01*
X99799166Y-132528581D02*
X98675015Y-130458153D01*
X182346427Y-130329919D02*
X181271320Y-132583928D01*
X94434314Y-98148787D02*
X95116815Y-95844701D01*
X151948576Y-81329708D02*
X153479601Y-82059970D01*
X134405787Y-82472076D02*
X135853965Y-82281420D01*
X110132484Y-81390756D02*
X111670519Y-79931216D01*
X154946088Y-86020065D02*
X156227531Y-86900776D01*
X116030077Y-89553184D02*
X117132841Y-88391113D01*
X163517032Y-133210630D02*
X162316965Y-134475237D01*
X165657425Y-121249578D02*
X165080418Y-122642596D01*
X106769207Y-115097058D02*
X106547800Y-113415303D01*
X180498305Y-99747598D02*
X181026285Y-101946796D01*
X123933876Y-71378351D02*
X125977005Y-70654841D01*
X181911105Y-113189494D02*
X181733655Y-115444211D01*
X118294912Y-87288349D02*
X119513105Y-86247915D01*
X170874165Y-139835023D02*
X169317322Y-141475594D01*
X165710575Y-91355332D02*
X166698039Y-92792101D01*
X162924021Y-126614185D02*
X162069998Y-127856796D01*
X111068302Y-79262385D02*
X112716445Y-77854738D01*
X176993848Y-104874567D02*
X177258306Y-106883329D01*
X170066306Y-119314318D02*
X169584540Y-120940732D01*
X93564980Y-97915850D02*
X94260864Y-95566586D01*
X135853965Y-82281420D02*
X137310136Y-82166817D01*
X114926741Y-120644421D02*
X114403828Y-119381997D01*
X177890305Y-121410752D02*
X177288098Y-123443769D01*
X117813940Y-84149620D02*
X119197060Y-83088315D01*
X158498588Y-130656860D02*
X157439053Y-131662322D01*
X165498945Y-84199945D02*
X166861183Y-85635444D01*
X170205335Y-139232806D02*
X168680926Y-140839198D01*
X133138668Y-145585361D02*
X131285488Y-145241895D01*
X166837015Y-96627880D02*
X167546991Y-98116377D01*
X107461351Y-87281292D02*
X108694760Y-85673882D01*
X140889915Y-151373077D02*
X138770309Y-151428581D01*
X102072451Y-113885681D02*
X101920879Y-111959778D01*
X136770309Y-136954381D02*
X136336417Y-136915473D01*
X163526229Y-128914810D02*
X162550975Y-130185785D01*
X118970309Y-144323187D02*
X117202603Y-143239935D01*
X170472056Y-131515937D02*
X169351151Y-133146864D01*
X167638920Y-96219289D02*
X168369182Y-97750314D01*
X156320309Y-141326073D02*
X154705376Y-142202910D01*
X120784080Y-134784501D02*
X119513105Y-133809247D01*
X178316039Y-108856077D02*
X178370309Y-110928581D01*
X148087795Y-76155251D02*
X149894921Y-76690546D01*
X126514125Y-78100130D02*
X128201928Y-77502448D01*
X124370309Y-134970113D02*
X123084705Y-134182293D01*
X107527054Y-96118188D02*
X108297886Y-94502106D01*
X113282833Y-78554170D02*
X114965006Y-77263393D01*
X149060575Y-79258399D02*
X150703962Y-79840353D01*
X139232509Y-135116581D02*
X135378064Y-135116581D01*
X114436000Y-143521885D02*
X112716445Y-142202424D01*
X97684667Y-123378115D02*
X97042313Y-121209564D01*
X93564980Y-122141312D02*
X92993001Y-119758848D01*
X162798114Y-93471359D02*
X163678825Y-94752802D01*
X109645697Y-131188850D02*
X108578169Y-129635586D01*
X162848201Y-132608413D02*
X161680569Y-133838841D01*
X178865603Y-131358153D02*
X177741452Y-133428581D01*
X121778674Y-131011503D02*
X120703799Y-130093473D01*
X149060575Y-142598763D02*
X147388983Y-143093911D01*
X103480969Y-123574889D02*
X102820373Y-121709423D01*
X110711086Y-126228581D02*
X109901698Y-124737873D01*
X110793054Y-132684115D02*
X109645697Y-131188850D01*
X176510485Y-86419824D02*
X177741452Y-88428581D01*
X116720309Y-148220301D02*
X114751728Y-147013953D01*
X178520875Y-133878581D02*
X177265288Y-135927513D01*
X157670309Y-143664341D02*
X155931150Y-144608628D01*
X171226510Y-78472380D02*
X172880656Y-80215486D01*
X118380328Y-84849052D02*
X119726067Y-83816430D01*
X122966282Y-68857684D02*
X125142660Y-68086989D01*
X165220645Y-147334346D02*
X163279066Y-148668757D01*
X136368089Y-64191485D02*
X138770309Y-64128581D01*
X109332972Y-90911751D02*
X110373812Y-89397319D01*
X135383587Y-142251090D02*
X133701832Y-142029683D01*
X125270321Y-86645916D02*
X126512576Y-85971426D01*
X145528278Y-153596717D02*
X143285939Y-153891927D01*
X170935639Y-119547255D02*
X170440491Y-121218847D01*
X157073458Y-69819035D02*
X159199881Y-70833287D01*
X97597103Y-105701103D02*
X97880012Y-103552194D01*
X115387644Y-96528593D02*
X116126224Y-95323340D01*
X128201928Y-142554714D02*
X126514125Y-141957032D01*
X164162632Y-75979047D02*
X165956950Y-77355875D01*
X132012340Y-152696717D02*
X129788524Y-152284557D01*
X168470309Y-110928581D02*
X168429606Y-112482959D01*
X160172880Y-91657620D02*
X161152113Y-92804154D01*
X103996979Y-119346067D02*
X103556995Y-117513402D01*
X130151635Y-142193911D02*
X128480043Y-141698763D01*
X110679435Y-84735444D02*
X112041673Y-83299945D01*
X128754012Y-72647252D02*
X130724127Y-72174269D01*
X127822263Y-69169919D02*
X129975644Y-68652937D01*
X127367582Y-145122566D02*
X125546532Y-144477699D01*
X177020972Y-100679347D02*
X177504954Y-102695278D01*
X160859455Y-138206404D02*
X159401571Y-139325078D01*
X111490509Y-94278581D02*
X112352186Y-92872451D01*
X164433628Y-94262627D02*
X165270686Y-95628581D01*
X143380014Y-154786997D02*
X141078325Y-154968143D01*
X150650103Y-66592586D02*
X152954189Y-67275087D01*
X153965738Y-134327490D02*
X152720309Y-135090690D01*
X102364544Y-136478917D02*
X101030133Y-134537338D01*
X98768931Y-116364177D02*
X98492172Y-114261984D01*
X150883040Y-65723252D02*
X153232304Y-66419136D01*
X174246074Y-87890350D02*
X175403184Y-89778581D01*
X172499302Y-77199588D02*
X174218317Y-79011051D01*
X140748608Y-73180385D02*
X142721485Y-73335653D01*
X179214805Y-108808975D02*
X179270309Y-110928581D01*
X165437894Y-106704850D02*
X165622400Y-108106312D01*
X96102173Y-103270612D02*
X96514333Y-101046796D01*
X170462291Y-117664920D02*
X170066306Y-119314318D01*
X117367738Y-90757620D02*
X118405634Y-89663906D01*
X132033970Y-78336599D02*
X133701832Y-78027479D01*
X160820309Y-149120301D02*
X158791290Y-150221969D01*
X150118261Y-85440663D02*
X151436644Y-86069499D01*
X137310136Y-137890345D02*
X135853965Y-137775742D01*
X136415191Y-65090252D02*
X138770309Y-65028581D01*
X173042446Y-83175552D02*
X174447958Y-85007251D01*
X144965114Y-150041039D02*
X142909636Y-150311648D01*
X126191594Y-77259908D02*
X127923812Y-76646497D01*
X121565349Y-148671554D02*
X119566511Y-147718157D01*
X171226510Y-143384782D02*
X169483404Y-145038928D01*
X162046605Y-142965654D02*
X160338015Y-144139935D01*
X104804151Y-87970700D02*
X106005121Y-86223278D01*
X124578938Y-73058796D02*
X126533236Y-72366743D01*
X99657851Y-103833776D02*
X100035664Y-101795278D01*
X164749591Y-150933167D02*
X162620309Y-152237993D01*
X140795711Y-149575544D02*
X138770309Y-149628581D01*
X120143654Y-138711114D02*
X118668053Y-137696962D01*
X111405277Y-137393613D02*
X110010604Y-135923935D01*
X171538982Y-123507296D02*
X170835755Y-125205037D01*
X179270309Y-110928581D02*
X179214805Y-113048187D01*
X105197603Y-82841940D02*
X106666453Y-81122139D01*
X107454997Y-144807759D02*
X105677712Y-143121178D01*
X97427046Y-112195290D02*
X97370309Y-110028581D01*
X152954189Y-67275087D02*
X155219398Y-68077239D01*
X115689074Y-128719397D02*
X114742504Y-127485803D01*
X156320309Y-80531089D02*
X157887139Y-81491244D01*
X165622400Y-108106312D02*
X165733306Y-109515510D01*
X98675015Y-130458153D02*
X97660763Y-128331730D01*
X156836835Y-90863671D02*
X157862192Y-91836698D01*
X123611345Y-70538129D02*
X125698890Y-69798890D01*
X180711901Y-97300932D02*
X181367638Y-99514661D01*
X111479991Y-104227845D02*
X111820978Y-102807530D01*
X147190732Y-71313603D02*
X149252480Y-71808585D01*
X101435690Y-104115358D02*
X101796330Y-102169519D01*
X153232304Y-66419136D02*
X155541929Y-67237017D01*
X157220309Y-78972244D02*
X158867489Y-79981637D01*
X123029601Y-145382790D02*
X121200877Y-144510533D01*
X117769238Y-89027510D02*
X118897130Y-87957180D01*
X149752198Y-86262854D02*
X151028052Y-86871405D01*
X154251804Y-70597907D02*
X156341332Y-71463417D01*
X154640511Y-132772040D02*
X153475563Y-133572686D01*
X184135705Y-125668692D02*
X183302095Y-128022732D01*
X113314465Y-84572737D02*
X114681607Y-83275367D01*
X145880889Y-77475933D02*
X147621920Y-77893918D01*
X108694760Y-134383280D02*
X107461351Y-132775870D01*
X164862549Y-84836341D02*
X166192353Y-86237662D01*
X154705376Y-142202910D02*
X153046765Y-142994027D01*
X153475563Y-88284476D02*
X154640511Y-89085122D01*
X140984120Y-68686552D02*
X143191863Y-68860305D01*
X151007382Y-148590419D02*
X149019543Y-149179244D01*
X183106304Y-99048787D02*
X183667284Y-101385434D01*
X169536505Y-138630588D02*
X168044530Y-140202802D01*
X137263033Y-138789112D02*
X135759889Y-138670812D01*
X159771380Y-131929652D02*
X158643488Y-132999982D01*
X159847840Y-143385132D02*
X158120309Y-144443764D01*
X179660606Y-104452194D02*
X179943515Y-106601103D01*
X185506171Y-108479258D02*
X185570309Y-110928581D01*
X165770309Y-110928581D02*
X165733306Y-112341652D01*
X117692695Y-133437643D02*
X116496445Y-132302445D01*
X97394665Y-118823246D02*
X96991092Y-116645759D01*
X183106304Y-122808375D02*
X182423803Y-125112461D01*
X161414414Y-125633835D02*
X160613768Y-126798783D01*
X144824323Y-149152120D02*
X142815561Y-149416578D01*
X131871549Y-153585637D02*
X129601403Y-153164890D01*
X178370309Y-110928581D02*
X178316039Y-113001085D01*
X134124205Y-80694237D02*
X135665814Y-80491281D01*
X119870309Y-77292821D02*
X121609468Y-76348534D01*
X157156924Y-147014345D02*
X155243143Y-147927172D01*
X102916857Y-89328581D02*
X104049347Y-87480525D01*
X143275622Y-139374005D02*
X141780729Y-139570812D01*
X99305145Y-92457558D02*
X100278827Y-90416191D01*
X102640746Y-96159741D02*
X103416100Y-94287873D01*
X101784937Y-134047162D02*
X100578589Y-132078581D01*
X105161414Y-122929827D02*
X104532274Y-121153193D01*
X165437894Y-115152312D02*
X165180294Y-116542197D01*
X170066306Y-102542844D02*
X170462291Y-104192242D01*
X113281202Y-70778798D02*
X115370309Y-69498592D01*
X143838786Y-78927479D02*
X145506648Y-79236599D01*
X127788429Y-134694286D02*
X126512576Y-134085736D01*
X105558955Y-131596287D02*
X104475703Y-129828581D01*
X161044173Y-133202445D02*
X159847923Y-134337643D01*
X149338690Y-78402448D02*
X151026493Y-79000130D01*
X107295898Y-84541105D02*
X108672944Y-82928791D01*
X143097787Y-152101787D02*
X140937018Y-152271844D01*
X129788524Y-67772605D02*
X132012340Y-67360445D01*
X170244720Y-85441105D02*
X171535497Y-87123278D01*
X118520309Y-145102610D02*
X116712428Y-143994739D01*
X184607405Y-113330801D02*
X184418864Y-115726437D01*
X178235473Y-93357558D02*
X179100983Y-95447086D01*
X110466084Y-141463607D02*
X108859692Y-139939198D01*
X106313758Y-88951050D02*
X107461351Y-87281292D01*
X140465994Y-143284178D02*
X138770309Y-143328581D01*
X164850306Y-103940467D02*
X165180294Y-105314965D01*
X95918967Y-126477670D02*
X95116815Y-124212461D01*
X147621920Y-143963244D02*
X145880889Y-144381229D01*
X151845235Y-85267593D02*
X153170309Y-85987049D01*
X161341883Y-127327790D02*
X160452681Y-128486620D01*
X126785178Y-149641712D02*
X125977005Y-149402321D01*
X129918698Y-76993918D02*
X131659729Y-76575933D01*
X129452823Y-75255251D02*
X131285488Y-74815267D01*
X153620309Y-136649535D02*
X152253827Y-137391475D01*
X148126335Y-154945223D02*
X145809860Y-155374556D01*
X181567852Y-97022816D02*
X182236971Y-99281724D01*
X105328792Y-140139458D02*
X103798741Y-138347999D01*
%TO.N,Net-(Q1-B)*%
X182073226Y-132992519D02*
X180859144Y-135228581D01*
X185847607Y-126224922D02*
X184982540Y-128667795D01*
X165729941Y-152442774D02*
X163520309Y-153796838D01*
X151348915Y-157872576D02*
X148874817Y-158466554D01*
D28*
X143110309Y-160128581D02*
X143110309Y-160118581D01*
D27*
X135670309Y-161028581D02*
X143790309Y-161028581D01*
X108109309Y-146568881D02*
X107786565Y-146288325D01*
X92695643Y-97682911D02*
X93404909Y-95288469D01*
X163070309Y-68839746D02*
X165239766Y-70169191D01*
X178088535Y-82362218D02*
X179529699Y-84459124D01*
X98010970Y-136498005D02*
X96681527Y-134328551D01*
X180284502Y-83968949D02*
X181638566Y-86178581D01*
X110203981Y-70710404D02*
X112300885Y-69269242D01*
X154066650Y-63851283D02*
X156509523Y-64716350D01*
X119002916Y-154426872D02*
X116706380Y-153331480D01*
X183990809Y-90795117D02*
X184982540Y-93189367D01*
X158537710Y-155326890D02*
X156186991Y-156300590D01*
X177239034Y-79777222D02*
X178816650Y-81833211D01*
X126191709Y-156972556D02*
X123752089Y-156249908D01*
X186308282Y-121033089D02*
X185714304Y-123507187D01*
X183990809Y-131062045D02*
X182875132Y-133401111D01*
X105041312Y-76299584D02*
X106852776Y-74580569D01*
X116706380Y-153331480D02*
X114470319Y-152117398D01*
X185714304Y-123507187D02*
X184991656Y-125946807D01*
X165239766Y-151687971D02*
X163070309Y-153017416D01*
X104404962Y-75663234D02*
X106250602Y-73911787D01*
X160834247Y-154231498D02*
X158537710Y-155326890D01*
X135670309Y-161028581D02*
X132424609Y-158212781D01*
X121676156Y-154560373D02*
X119368969Y-153604705D01*
X178816650Y-140023951D02*
X177239034Y-142079940D01*
X106250602Y-146145375D02*
X104404962Y-144393928D01*
X161242839Y-66823758D02*
X163520309Y-68060324D01*
X158537710Y-66530272D02*
X160834247Y-67625664D01*
X131167603Y-62026987D02*
X133690232Y-61694877D01*
X124030197Y-155393982D02*
X121676156Y-154560373D01*
X91657571Y-117490506D02*
X91331610Y-115014589D01*
X97460893Y-86178579D02*
X98765719Y-84049296D01*
X119002933Y-65630327D02*
X121353648Y-64656629D01*
X121353648Y-64656629D02*
X123752102Y-63807292D01*
X114470319Y-152117398D02*
X112300863Y-150787953D01*
X94372055Y-90261205D02*
X95467446Y-87964670D01*
X188202471Y-113519211D02*
X187999143Y-116102740D01*
X160834247Y-67625664D02*
X163070309Y-68839746D01*
X91657571Y-102566656D02*
X92112664Y-100111192D01*
X119368969Y-66452458D02*
X121676156Y-65496790D01*
X183168618Y-91161180D02*
X184142318Y-93511899D01*
X106852776Y-145476593D02*
X105041312Y-143757578D01*
X92549020Y-125046788D02*
X91826372Y-122607171D01*
X101700443Y-80009995D02*
X103322297Y-78111048D01*
X106852776Y-74580569D02*
X108751723Y-72958715D01*
X183168618Y-130695982D02*
X182073226Y-132992519D01*
X111242978Y-150081097D02*
X110173825Y-150081097D01*
X100180195Y-138065940D02*
X98765719Y-136007866D01*
X131167597Y-158030214D02*
X128665805Y-157566534D01*
X98010970Y-83559157D02*
X99452132Y-81462253D01*
X187999143Y-105754422D02*
X188202471Y-108337951D01*
X90768715Y-117631287D02*
X90436605Y-115108658D01*
X151581852Y-158741909D02*
X149061938Y-159346887D01*
X186583637Y-98117038D02*
X187188615Y-100636952D01*
X90236974Y-107485057D02*
X90436605Y-104948504D01*
X176539603Y-80343610D02*
X178088535Y-82362218D01*
X187660882Y-118672087D02*
X187188615Y-121220210D01*
X98765719Y-84049296D02*
X100180195Y-81991222D01*
X99452132Y-138594909D02*
X98010970Y-136498005D01*
X169921668Y-72459856D02*
X171892274Y-74142912D01*
X100180195Y-81991222D02*
X101700443Y-80009995D01*
X128665813Y-62490667D02*
X131167603Y-62026987D01*
X90436605Y-115108658D02*
X90236974Y-112572105D01*
X138770309Y-62328581D02*
X141313836Y-62395186D01*
X116706398Y-66725718D02*
X119002933Y-65630327D01*
X126191719Y-63084644D02*
X128665813Y-62490667D01*
X151348915Y-63984586D02*
X153788535Y-64707234D01*
X106370309Y-147128581D02*
X106250609Y-146145381D01*
X114920306Y-151337998D02*
X112791024Y-150033172D01*
X92112664Y-119945970D02*
X91657571Y-117490506D01*
X132426739Y-158212781D02*
X131167597Y-158030214D01*
X187104073Y-116008664D02*
X186771962Y-118531296D01*
X109560309Y-149467581D02*
X106385309Y-149467581D01*
X128852920Y-63370936D02*
X131308384Y-62915843D01*
X128852920Y-156686227D02*
X126424639Y-156103249D01*
X96269294Y-88373232D02*
X97460893Y-86178579D01*
X119368969Y-153604705D02*
X117114960Y-152529597D01*
X93404909Y-95288469D02*
X94238518Y-92934428D01*
X153788535Y-157149928D02*
X151348915Y-157872576D01*
X185714304Y-98349975D02*
X186308282Y-100824073D01*
X187104073Y-105848498D02*
X187303704Y-108385054D01*
X179529699Y-84459124D02*
X180859144Y-86628581D01*
X107940309Y-146442069D02*
X107786565Y-146288325D01*
X148874817Y-158466554D02*
X146373024Y-158930234D01*
X158903773Y-65708081D02*
X161242839Y-66823758D01*
X117114960Y-67527566D02*
X119368969Y-66452458D01*
X167336672Y-71610355D02*
X169355280Y-73159287D01*
X167865679Y-150974922D02*
X165729941Y-152442774D01*
X136226785Y-61495246D02*
X138770299Y-61428641D01*
X114470339Y-67939799D02*
X116706398Y-66725718D01*
X182875132Y-88456051D02*
X183990809Y-90795117D01*
X133690232Y-61694877D02*
X136226785Y-61495246D01*
X106385309Y-149467581D02*
X104760309Y-147842581D01*
X175555978Y-77806616D02*
X177239034Y-79777222D01*
X95194186Y-129429921D02*
X94238518Y-127122734D01*
X91331610Y-105042573D02*
X91657571Y-102566656D01*
X141360939Y-61496419D02*
X143944468Y-61699747D01*
X110732949Y-148618696D02*
X110063728Y-148123498D01*
X136370309Y-160068581D02*
X133784299Y-157467281D01*
X141313836Y-62395186D02*
X143850392Y-62594817D01*
X90236974Y-112572105D02*
X90170369Y-110028581D01*
X104404962Y-144393928D02*
X102653515Y-142548288D01*
X126424639Y-63953915D02*
X128852920Y-63370936D01*
X110173825Y-150081097D02*
X109560309Y-149467581D01*
X149061938Y-159346887D02*
X147365894Y-159676565D01*
X184142318Y-93511899D02*
X184991656Y-95910355D01*
X169355280Y-73159287D02*
X171290056Y-74811742D01*
X92549020Y-95010374D02*
X93398357Y-92611920D01*
X102653515Y-77508874D02*
X104404962Y-75663234D01*
X171892274Y-147714250D02*
X169921668Y-149397306D01*
X187999143Y-116102740D02*
X187660882Y-118672087D01*
X156509523Y-157140812D02*
X154066650Y-158005879D01*
X187660882Y-103185075D02*
X187999143Y-105754422D01*
X91826372Y-122607171D02*
X91232395Y-120133077D01*
X173135699Y-145293971D02*
X171290056Y-147045420D01*
X95467446Y-132092492D02*
X94372055Y-129795957D01*
X182875132Y-133401111D02*
X181638566Y-135678581D01*
X106370309Y-147128581D02*
X107890309Y-148378581D01*
X108751723Y-72958715D02*
X110732950Y-71438467D01*
X169355280Y-148697875D02*
X167336672Y-150246807D01*
X94238518Y-92934428D02*
X95194186Y-90627241D01*
X93398357Y-92611920D02*
X94372055Y-90261205D01*
D28*
X136370309Y-160128581D02*
X136370309Y-160068581D01*
D27*
X188202471Y-108337951D02*
X188270309Y-110928581D01*
X91826372Y-97449991D02*
X92549020Y-95010374D01*
X106250609Y-146145381D02*
X106250602Y-146145375D01*
X121353634Y-155400571D02*
X119002916Y-154426872D01*
X163520309Y-153796838D02*
X161242839Y-155033404D01*
X91232395Y-99924085D02*
X91826372Y-97449991D01*
X128665805Y-157566534D02*
X126191709Y-156972556D01*
X154066650Y-158005879D02*
X151581852Y-158741909D01*
X186771962Y-103325866D02*
X187104073Y-105848498D01*
X184982540Y-128667795D02*
X183990809Y-131062045D01*
X156186991Y-65556572D02*
X158537710Y-66530272D01*
X187303704Y-113472108D02*
X187104073Y-116008664D01*
X92695643Y-122374251D02*
X92112664Y-119945970D01*
X105041312Y-143757578D02*
X103322297Y-141946114D01*
X93398357Y-127445242D02*
X92549020Y-125046788D01*
X104760309Y-147048581D02*
X104760309Y-147842581D01*
X94372055Y-129795957D02*
X93398357Y-127445242D01*
X171290056Y-74811742D02*
X173135699Y-76563191D01*
X184982540Y-93189367D02*
X185847607Y-95632240D01*
X143110309Y-160118581D02*
X144693159Y-159166324D01*
X90436605Y-104948504D02*
X90768715Y-102425875D01*
X173772095Y-75926795D02*
X175555978Y-77806616D01*
X173135699Y-76563191D02*
X174887148Y-78408834D01*
X186308282Y-100824073D02*
X186771962Y-103325866D01*
X112791024Y-70023991D02*
X114920307Y-68719165D01*
X90768715Y-102425875D02*
X91232395Y-99924085D01*
X167865679Y-70882240D02*
X169921668Y-72459856D01*
X131308384Y-157141321D02*
X128852920Y-156686227D01*
X106250602Y-73911787D02*
X108185376Y-72259334D01*
X98765719Y-136007866D02*
X97460893Y-133878583D01*
X180284502Y-137888213D02*
X178816650Y-140023951D01*
X180859144Y-86628581D02*
X182073226Y-88864643D01*
X161242839Y-155033404D02*
X158903773Y-156149081D01*
X146373024Y-62926928D02*
X148874817Y-63390608D01*
X146373024Y-158930234D02*
X144693159Y-159166324D01*
X143110309Y-160128581D02*
X136370309Y-160128581D01*
X94238518Y-127122734D02*
X93404909Y-124768693D01*
X184142318Y-128345263D02*
X183168618Y-130695982D01*
X103322297Y-78111048D02*
X105041312Y-76299584D01*
X148874817Y-63390608D02*
X151348915Y-63984586D01*
X91070304Y-110028581D02*
X91135676Y-107532156D01*
X126424639Y-156103249D02*
X124030197Y-155393982D01*
X91135676Y-112525006D02*
X91070304Y-110028581D01*
X95467446Y-87964670D02*
X96681527Y-85728611D01*
X131308384Y-62915843D02*
X133784301Y-62589882D01*
X180859144Y-135228581D02*
X179529699Y-137398038D01*
X90170369Y-110028581D02*
X90236974Y-107485057D01*
X108185376Y-72259334D02*
X110203981Y-70710404D01*
X136273884Y-62393948D02*
X138770346Y-62328576D01*
X124030197Y-64663181D02*
X126424639Y-63953915D01*
X114920307Y-68719165D02*
X117114960Y-67527566D01*
X101001062Y-140613514D02*
X99452132Y-138594909D01*
X112791024Y-150033172D02*
X110732949Y-148618696D01*
X143790309Y-161028581D02*
X147365894Y-159676565D01*
X110732950Y-71438467D02*
X112791024Y-70023991D01*
X181638566Y-86178581D02*
X182875132Y-88456051D01*
X174887148Y-143448328D02*
X173135699Y-145293971D01*
X143944468Y-61699747D02*
X146513815Y-62038008D01*
X171892274Y-74142912D02*
X173772095Y-75926795D01*
X179529699Y-137398038D02*
X178088535Y-139494944D01*
X182073226Y-88864643D02*
X183168618Y-91161180D01*
X153788535Y-64707234D02*
X156186991Y-65556572D01*
X178816650Y-81833211D02*
X180284502Y-83968949D01*
X101700443Y-140047167D02*
X100180195Y-138065940D01*
X156186991Y-156300590D02*
X153788535Y-157149928D01*
X138770309Y-61428581D02*
X141360939Y-61496419D01*
X187303704Y-108385054D02*
X187370309Y-110928581D01*
X91232395Y-120133077D02*
X90768715Y-117631287D01*
X178088535Y-139494944D02*
X176539603Y-141513552D01*
X133784301Y-62589882D02*
X136273884Y-62393948D01*
X99452132Y-81462253D02*
X101001062Y-79443648D01*
X176539603Y-141513552D02*
X174887148Y-143448328D01*
X102653515Y-142548288D02*
X101001062Y-140613514D01*
X181638566Y-135678581D02*
X180284502Y-137888213D01*
X177239034Y-142079940D02*
X175555978Y-144050546D01*
X117114960Y-152529597D02*
X114920306Y-151337998D01*
X112300885Y-69269242D02*
X114470339Y-67939799D01*
X184991656Y-95910355D02*
X185714304Y-98349975D01*
X184991656Y-125946807D02*
X184142318Y-128345263D01*
X174887148Y-78408834D02*
X176539603Y-80343610D01*
X169921668Y-149397306D02*
X167865679Y-150974922D01*
X123752089Y-156249908D02*
X121353634Y-155400571D01*
X146513815Y-62038008D02*
X149061938Y-62510275D01*
X112300863Y-150787953D02*
X111242978Y-150081097D01*
X167336672Y-150246807D02*
X165239766Y-151687971D01*
X149061938Y-62510275D02*
X151581852Y-63115253D01*
X96681527Y-85728611D02*
X98010970Y-83559157D01*
X158903773Y-156149081D02*
X156509523Y-157140812D01*
X107786565Y-146288325D02*
X106852776Y-145476593D01*
X175555978Y-144050546D02*
X173772095Y-145930367D01*
X95194186Y-90627241D02*
X96269294Y-88373232D01*
X121676156Y-65496790D02*
X124030197Y-64663181D01*
X107890309Y-148378581D02*
X110063728Y-148123498D01*
X92112664Y-100111192D02*
X92695643Y-97682911D01*
X163520309Y-68060324D02*
X165729941Y-69414388D01*
X93404909Y-124768693D02*
X92695643Y-122374251D01*
X123752102Y-63807292D02*
X126191719Y-63084644D01*
X97460893Y-133878583D02*
X96269294Y-131683930D01*
X165239766Y-70169191D02*
X167336672Y-71610355D01*
X165729941Y-69414388D02*
X167865679Y-70882240D01*
X187370309Y-110928581D02*
X187303704Y-113472108D01*
X151581852Y-63115253D02*
X154066650Y-63851283D01*
X103322297Y-141946114D02*
X101700443Y-140047167D01*
X143850392Y-62594817D02*
X146373024Y-62926928D01*
X107940309Y-146808581D02*
X107940309Y-146442069D01*
X133784299Y-157467281D02*
X131308384Y-157141321D01*
X96269294Y-131683930D02*
X95194186Y-129429921D01*
X171290056Y-147045420D02*
X169355280Y-148697875D01*
X156509523Y-64716350D02*
X158903773Y-65708081D01*
X186583637Y-123740124D02*
X185847607Y-126224922D01*
X188270309Y-110928581D02*
X188202471Y-113519211D01*
X163070309Y-153017416D02*
X160834247Y-154231498D01*
X91331610Y-115014589D02*
X91135676Y-112525006D01*
X101001062Y-79443648D02*
X102653515Y-77508874D01*
X187188615Y-121220210D02*
X186583637Y-123740124D01*
X187188615Y-100636952D02*
X187660882Y-103185075D01*
X185847607Y-95632240D02*
X186583637Y-98117038D01*
X173772095Y-145930367D02*
X171892274Y-147714250D01*
X96681527Y-134328551D02*
X95467446Y-132092492D01*
X186771962Y-118531296D02*
X186308282Y-121033089D01*
X91135676Y-107532156D02*
X91331610Y-105042573D01*
%TO.N,Net-(U1-ADJ)*%
D26*
X124500000Y-116080000D02*
X124500000Y-120910000D01*
X124500000Y-120910000D02*
X130050000Y-126460000D01*
%TD*%
M02*
