M48
; DRILL file KiCad 10.0.1 date 2026-05-12T19:54:08
; FORMAT={-:-/ absolute / metric / decimal}
; #@! TF.CreationDate,2026-05-12T19:54:08+07:00
; #@! TF.GenerationSoftware,Kicad,Pcbnew,10.0.1
; #@! TF.FileFunction,MixedPlating,1,2
FMAT,2
METRIC
; #@! TA.AperFunction,Plated,PTH,ComponentDrill
T1C0.700
; #@! TA.AperFunction,Plated,PTH,ComponentDrill
T2C0.762
; #@! TA.AperFunction,Plated,PTH,ComponentDrill
T3C0.800
; #@! TA.AperFunction,Plated,PTH,ComponentDrill
T4C1.000
; #@! TA.AperFunction,Plated,PTH,ComponentDrill
T5C1.100
; #@! TA.AperFunction,Plated,PTH,ComponentDrill
T6C1.200
%
G90
G05
T1
X104.76Y-147.049
X107.94Y-146.809
X136.77Y-136.654
X136.77Y-157.987
X140.77Y-136.654
X140.77Y-157.987
T2
X143.92Y-95.0
X149.0Y-95.0
X190.0Y-78.5
X190.0Y-83.58
X190.0Y-88.66
T3
X89.5Y-139.92
X89.5Y-150.08
X92.92Y-145.5
X95.46Y-145.5
X98.0Y-145.5
X100.42Y-153.0
X102.96Y-153.0
X105.5Y-153.0
X107.0Y-59.5
X107.0Y-62.0
X120.5Y-95.0
X120.5Y-100.0
X124.5Y-105.92
X124.5Y-116.08
X133.0Y-90.0
X138.0Y-90.0
X154.0Y-94.5
X156.5Y-94.5
X163.84Y-60.5
X174.0Y-60.5
X180.0Y-60.5
X180.0Y-65.5
T4
X93.5Y-72.0
X93.5Y-74.54
X93.5Y-79.62
T5
X117.5Y-105.92
X117.5Y-116.08
X130.05Y-126.46
X130.05Y-129.0
X130.05Y-131.54
X141.5Y-90.0
X151.66Y-90.0
T6
X103.5Y-159.5
X118.5Y-159.5
X190.5Y-60.5
X190.5Y-65.58
X190.5Y-70.66
T3
G00X88.9Y-61.7
M15
G01X88.9Y-63.9
M16
G05
G00X94.6Y-59.5
M15
G01X92.4Y-59.5
M16
G05
G00X94.6Y-65.6
M15
G01X92.4Y-65.6
M16
G05
M30
