%TF.GenerationSoftware,KiCad,Pcbnew,10.0.1*%
%TF.CreationDate,2026-05-12T19:54:10+07:00*%
%TF.ProjectId,Power_and_Motor,506f7765-725f-4616-9e64-5f4d6f746f72,rev?*%
%TF.SameCoordinates,Original*%
%TF.FileFunction,Copper,L1,Top*%
%TF.FilePolarity,Positive*%
%FSLAX46Y46*%
G04 Gerber Fmt 4.6, Leading zero omitted, Abs format (unit mm)*
G04 Created by KiCad (PCBNEW 10.0.1) date 2026-05-12 19:54:10*
%MOMM*%
%LPD*%
G01*
G04 APERTURE LIST*
G04 Aperture macros list*
%AMRoundRect*
0 Rectangle with rounded corners*
0 $1 Rounding radius*
0 $2 $3 $4 $5 $6 $7 $8 $9 X,Y pos of 4 corners*
0 Add a 4 corners polygon primitive as box body*
4,1,4,$2,$3,$4,$5,$6,$7,$8,$9,$2,$3,0*
0 Add four circle primitives for the rounded corners*
1,1,$1+$1,$2,$3*
1,1,$1+$1,$4,$5*
1,1,$1+$1,$6,$7*
1,1,$1+$1,$8,$9*
0 Add four rect primitives between the rounded corners*
20,1,$1+$1,$2,$3,$4,$5,0*
20,1,$1+$1,$4,$5,$6,$7,0*
20,1,$1+$1,$6,$7,$8,$9,0*
20,1,$1+$1,$8,$9,$2,$3,0*%
G04 Aperture macros list end*
%TA.AperFunction,ComponentPad*%
%ADD10R,2.000000X1.905000*%
%TD*%
%TA.AperFunction,ComponentPad*%
%ADD11O,2.000000X1.905000*%
%TD*%
%TA.AperFunction,ComponentPad*%
%ADD12R,1.500000X1.500000*%
%TD*%
%TA.AperFunction,ComponentPad*%
%ADD13C,1.500000*%
%TD*%
%TA.AperFunction,ComponentPad*%
%ADD14C,2.000000*%
%TD*%
%TA.AperFunction,ComponentPad*%
%ADD15C,2.500000*%
%TD*%
%TA.AperFunction,ComponentPad*%
%ADD16C,1.600000*%
%TD*%
%TA.AperFunction,ComponentPad*%
%ADD17R,1.600000X1.600000*%
%TD*%
%TA.AperFunction,ComponentPad*%
%ADD18C,1.300000*%
%TD*%
%TA.AperFunction,ComponentPad*%
%ADD19RoundRect,0.249999X0.850001X-0.850001X0.850001X0.850001X-0.850001X0.850001X-0.850001X-0.850001X0*%
%TD*%
%TA.AperFunction,ComponentPad*%
%ADD20C,2.200000*%
%TD*%
%TA.AperFunction,ComponentPad*%
%ADD21O,1.600000X1.600000*%
%TD*%
%TA.AperFunction,ComponentPad*%
%ADD22O,4.000000X2.000000*%
%TD*%
%TA.AperFunction,ComponentPad*%
%ADD23O,2.000000X4.000000*%
%TD*%
%TA.AperFunction,ComponentPad*%
%ADD24RoundRect,0.249999X-0.850001X-0.850001X0.850001X-0.850001X0.850001X0.850001X-0.850001X0.850001X0*%
%TD*%
%TA.AperFunction,Conductor*%
%ADD25C,1.000000*%
%TD*%
%TA.AperFunction,Conductor*%
%ADD26C,1.500000*%
%TD*%
%TA.AperFunction,Conductor*%
%ADD27C,0.700000*%
%TD*%
G04 APERTURE END LIST*
D10*
%TO.P,U1,1,ADJ_1*%
%TO.N,Net-(U1-ADJ)*%
X130050000Y-126460000D03*
D11*
%TO.P,U1,2,VO_2*%
%TO.N,Net-(D2-A)*%
X130050000Y-129000000D03*
%TO.P,U1,3,VI_3*%
%TO.N,+12V*%
X130050000Y-131540000D03*
%TD*%
D12*
%TO.P,Q1,1,C_1*%
%TO.N,Net-(Q1-C)*%
X92920000Y-145500000D03*
D13*
%TO.P,Q1,2,B_2*%
%TO.N,Net-(Q1-B)*%
X95460000Y-145500000D03*
%TO.P,Q1,3,E_3*%
%TO.N,GND*%
X98000000Y-145500000D03*
%TD*%
D14*
%TO.P,M1,1,+_1*%
%TO.N,Net-(D1-K)*%
X143920000Y-95000000D03*
%TO.P,M1,2,-_2*%
%TO.N,GND*%
X149000000Y-95000000D03*
%TD*%
D15*
%TO.P,RV1,1,1_1*%
%TO.N,GND*%
X190500000Y-70660000D03*
%TO.P,RV1,2,2_2*%
%TO.N,Net-(C4-Pad1)*%
X190500000Y-65580000D03*
%TO.P,RV1,3,3_3*%
X190500000Y-60500000D03*
%TD*%
D16*
%TO.P,C3,1*%
%TO.N,Net-(D1-K)*%
X138000000Y-90000000D03*
%TO.P,C3,2*%
%TO.N,GND*%
X133000000Y-90000000D03*
%TD*%
D17*
%TO.P,C6,1*%
%TO.N,Net-(D2-A)*%
X154000000Y-94500000D03*
D16*
%TO.P,C6,2*%
%TO.N,GND*%
X156500000Y-94500000D03*
%TD*%
D18*
%TO.P,U6,1,Pin1_1*%
%TO.N,Net-(Q1-C)*%
X140770309Y-136654381D03*
%TD*%
D19*
%TO.P,D2,1,K_1*%
%TO.N,+12V*%
X117500000Y-116080000D03*
D20*
%TO.P,D2,2,A_2*%
%TO.N,Net-(D2-A)*%
X117500000Y-105920000D03*
%TD*%
D14*
%TO.P,SW1,1,A_1*%
%TO.N,unconnected-(SW1A-A-Pad1)*%
X190000000Y-88660000D03*
%TO.P,SW1,2,B_2*%
%TO.N,Net-(D2-A)*%
X190000000Y-83580000D03*
%TO.P,SW1,3,C_3*%
%TO.N,Net-(D1-K)*%
X190000000Y-78500000D03*
%TD*%
D16*
%TO.P,C5,1*%
%TO.N,+12V*%
X120500000Y-100000000D03*
%TO.P,C5,2*%
%TO.N,GND*%
X120500000Y-95000000D03*
%TD*%
D18*
%TO.P,U2,1,Pin1_1*%
%TO.N,Net-(Q1-B)*%
X104760309Y-147048581D03*
%TD*%
%TO.P,U7,1,Pin1_1*%
%TO.N,Net-(Q1-C)*%
X140770309Y-157986681D03*
%TD*%
%TO.P,U5,1,Pin1_1*%
%TO.N,Net-(Q1-C)*%
X136770309Y-157986681D03*
%TD*%
D16*
%TO.P,R1,1*%
%TO.N,+12V*%
X89500000Y-139920000D03*
D21*
%TO.P,R1,2*%
%TO.N,Net-(Q1-B)*%
X89500000Y-150080000D03*
%TD*%
D22*
%TO.P,J1,1*%
%TO.N,+12V*%
X93500000Y-65599999D03*
D23*
%TO.P,J1,2*%
%TO.N,N/C*%
X88900000Y-62800000D03*
D22*
%TO.P,J1,3*%
%TO.N,GND*%
X93500000Y-59500000D03*
%TD*%
D24*
%TO.P,D1,1,K_1*%
%TO.N,Net-(D1-K)*%
X141500000Y-90000000D03*
D20*
%TO.P,D1,2,A_2*%
%TO.N,GND*%
X151660000Y-90000000D03*
%TD*%
D14*
%TO.P,L5,1,1_1*%
%TO.N,+12V*%
X93500000Y-72000000D03*
%TO.P,L5,2,2_2*%
%TO.N,Net-(Q1-C)*%
X93500000Y-79620000D03*
%TO.P,L5,3,3_3*%
%TO.N,+12V*%
X93500000Y-74540000D03*
%TD*%
D15*
%TO.P,C2,1*%
%TO.N,Net-(Q1-C)*%
X103499999Y-159500000D03*
%TO.P,C2,2*%
X118500001Y-159500000D03*
%TD*%
D18*
%TO.P,U3,1,Pin1_1*%
%TO.N,Net-(Q1-B)*%
X107940309Y-146808581D03*
%TD*%
D16*
%TO.P,R3,1*%
%TO.N,Net-(U1-ADJ)*%
X163840000Y-60500000D03*
D21*
%TO.P,R3,2*%
%TO.N,Net-(C4-Pad1)*%
X174000000Y-60500000D03*
%TD*%
D18*
%TO.P,U4,1,Pin1_1*%
%TO.N,Net-(Q1-C)*%
X136770309Y-136654381D03*
%TD*%
D16*
%TO.P,R2,1*%
%TO.N,Net-(D2-A)*%
X124500000Y-105920000D03*
D21*
%TO.P,R2,2*%
%TO.N,Net-(U1-ADJ)*%
X124500000Y-116080000D03*
%TD*%
D17*
%TO.P,C1,1*%
%TO.N,+12V*%
X107000000Y-62000000D03*
D16*
%TO.P,C1,2*%
%TO.N,GND*%
X107000000Y-59500000D03*
%TD*%
D12*
%TO.P,Q2,1,C_1*%
%TO.N,Net-(Q1-C)*%
X100420000Y-153000000D03*
D13*
%TO.P,Q2,2,B_2*%
%TO.N,Net-(Q1-B)*%
X102960000Y-153000000D03*
%TO.P,Q2,3,E_3*%
%TO.N,GND*%
X105500000Y-153000000D03*
%TD*%
D16*
%TO.P,C4,1*%
%TO.N,Net-(C4-Pad1)*%
X180000000Y-60500000D03*
%TO.P,C4,2*%
%TO.N,GND*%
X180000000Y-65500000D03*
%TD*%
%TO.N,Net-(D1-K)*%
D25*
X145600000Y-96680000D02*
X186820000Y-96680000D01*
X141500000Y-90000000D02*
X141500000Y-92580000D01*
X186820000Y-96680000D02*
X192500000Y-91000000D01*
X192500000Y-91000000D02*
X192500000Y-81000000D01*
X141500000Y-92580000D02*
X143920000Y-95000000D01*
X143920000Y-95000000D02*
X145600000Y-96680000D01*
X192500000Y-81000000D02*
X190000000Y-78500000D01*
%TO.N,GND*%
D26*
X133000000Y-90000000D02*
X135500000Y-87500000D01*
X151660000Y-90000000D02*
X151660000Y-92340000D01*
X107000000Y-59500000D02*
X110500000Y-59500000D01*
X135500000Y-87500000D02*
X149160000Y-87500000D01*
X151660000Y-92340000D02*
X149000000Y-95000000D01*
X151660000Y-90000000D02*
X153750000Y-90000000D01*
X180000000Y-65500000D02*
X185340000Y-65500000D01*
X185340000Y-65500000D02*
X190500000Y-70660000D01*
X110500000Y-59500000D02*
X120500000Y-69500000D01*
X178250000Y-65500000D02*
X180000000Y-65500000D01*
X149160000Y-87500000D02*
X151660000Y-90000000D01*
X153750000Y-90000000D02*
X178250000Y-65500000D01*
X120500000Y-69500000D02*
X120500000Y-95000000D01*
%TO.N,Net-(D2-A)*%
D25*
X190000000Y-83580000D02*
X164920000Y-83580000D01*
X164920000Y-83580000D02*
X154000000Y-94500000D01*
%TO.N,+12V*%
D26*
X93500000Y-65599999D02*
X93500000Y-72000000D01*
X107000000Y-62000000D02*
X97099999Y-62000000D01*
X93500000Y-74540000D02*
X95430000Y-76470000D01*
X107000000Y-62000000D02*
X109500000Y-62000000D01*
X120500000Y-100000000D02*
X120500000Y-113080000D01*
X127645000Y-131540000D02*
X130050000Y-131540000D01*
X88500000Y-89500000D02*
X88500000Y-139000000D01*
X117500000Y-70000000D02*
X117500000Y-97000000D01*
X95430000Y-76470000D02*
X95430000Y-82570000D01*
X93500000Y-72000000D02*
X93500000Y-74540000D01*
X95430000Y-82570000D02*
X88500000Y-89500000D01*
X117500000Y-121395000D02*
X127645000Y-131540000D01*
X117500000Y-116080000D02*
X117500000Y-121395000D01*
X109500000Y-62000000D02*
X117500000Y-70000000D01*
X88500000Y-139000000D02*
X89420000Y-139920000D01*
X117500000Y-97000000D02*
X120500000Y-100000000D01*
X120500000Y-113080000D02*
X117500000Y-116080000D01*
X89420000Y-139920000D02*
X89500000Y-139920000D01*
X97099999Y-62000000D02*
X93500000Y-65599999D01*
%TO.N,Net-(Q1-C)*%
D27*
X118500001Y-159500000D02*
X123000001Y-164000000D01*
X138000000Y-164000000D02*
X140770309Y-161229691D01*
X134256990Y-160500000D02*
X136770309Y-157986681D01*
X132845619Y-136654381D02*
X136770309Y-136654381D01*
X123500000Y-160500000D02*
X134256990Y-160500000D01*
X136770309Y-157986681D02*
X137023474Y-157986681D01*
X86500000Y-154000000D02*
X97000000Y-164500000D01*
X119500000Y-156500000D02*
X123500000Y-160500000D01*
X100420000Y-153000000D02*
X100420000Y-156420001D01*
X110000000Y-164500000D02*
X118000000Y-156500000D01*
X93500000Y-79620000D02*
X89380000Y-79620000D01*
X100420000Y-156420001D02*
X103499999Y-159500000D01*
X140770309Y-154239846D02*
X140770309Y-136654381D01*
X103499999Y-159500000D02*
X110000000Y-159500000D01*
X89380000Y-79620000D02*
X86500000Y-82500000D01*
X118000000Y-156500000D02*
X119500000Y-156500000D01*
X110000000Y-159500000D02*
X132845619Y-136654381D01*
X137023474Y-157986681D02*
X140770309Y-154239846D01*
X123000001Y-164000000D02*
X138000000Y-164000000D01*
X140770309Y-161229691D02*
X140770309Y-157986681D01*
X97000000Y-164500000D02*
X110000000Y-164500000D01*
X86500000Y-82500000D02*
X86500000Y-154000000D01*
%TO.N,Net-(Q1-B)*%
X89500000Y-150080000D02*
X90880000Y-150080000D01*
X96740000Y-144220000D02*
X105351728Y-144220000D01*
X103230000Y-152500000D02*
X103230000Y-148578890D01*
X105351728Y-144220000D02*
X107940309Y-146808581D01*
X95460000Y-145500000D02*
X96740000Y-144220000D01*
X103230000Y-148578890D02*
X104760309Y-147048581D01*
X90880000Y-150080000D02*
X95460000Y-145500000D01*
%TO.N,Net-(U1-ADJ)*%
D25*
X163840000Y-60500000D02*
X158500000Y-60500000D01*
X127000000Y-92000000D02*
X127000000Y-113580000D01*
X158500000Y-60500000D02*
X127000000Y-92000000D01*
X127000000Y-113580000D02*
X124500000Y-116080000D01*
%TO.N,Net-(C4-Pad1)*%
X174000000Y-60500000D02*
X180000000Y-60500000D01*
X192500000Y-63580000D02*
X192500000Y-62500000D01*
X192500000Y-62500000D02*
X190500000Y-60500000D01*
X190500000Y-65580000D02*
X192500000Y-63580000D01*
X190500000Y-60500000D02*
X180000000Y-60500000D01*
%TD*%
M02*
